<?xml version="1.0" encoding="utf-8"?>
<!-- Generator: Adobe Illustrator 27.5.0, SVG Export Plug-In . SVG Version: 6.00 Build 0)  -->
<svg version="1.1" xmlns="http://www.w3.org/2000/svg" xmlns:xlink="http://www.w3.org/1999/xlink" x="0px" y="0px"
	 viewBox="0 0 3710 3710" style="enable-background:new 0 0 3710 3710;" xml:space="preserve">
<g id="Background">
	<g>
		<g>
			<rect style="fill:#FFFFFF;" width="3710" height="3710"/>
		</g>
	</g>
</g>
<g id="Illustration">
	<g>
		<path style="fill:#F4F7FA;" d="M1062.705,656.438c-97.27,139.248,16.782,365.004-127.551,469.73
			c-140.497,101.943-313.094-65.156-445.503,22.597C293.229,1278.94,329.099,1874.597,616.279,2244.69
			c86.364,111.3,158.528,154.605,190.488,280.479c68.629,270.285-172.566,431.068-126.667,564.747
			c103.348,300.995,1692.77,553.565,2330.517-351.025c297.854-422.481,342.419-1032.548,76.296-1495.896
			C2606.032,405.732,1280.964,343.991,1062.705,656.438z"/>
		<g>
			<path style="fill:#BFC6D1;" d="M1925.435,1570.148c60.113,5.062,113.29-43.6,118.771-108.691
				c5.483-65.09-38.805-121.962-98.918-127.024c-3.115-0.262-6.198-0.293-9.269-0.275c-2.866-33.62-8.108-66.549-15.653-98.555
				c2.854-1.169,5.701-2.38,8.508-3.823c54.801-28.161,78.709-98.737,53.399-157.639c-25.309-58.904-90.25-83.824-145.052-55.665
				c-2.865,1.474-5.593,3.128-8.285,4.823c-17.892-27.018-37.705-52.46-59.272-76.114c1.993-2.593,3.954-5.231,5.773-8.044
				c34.804-53.836,23.038-127.421-26.279-164.351c-49.318-36.93-117.515-23.223-152.32,30.614c-1.783,2.76-3.362,5.598-4.902,8.454
				c-27.842-13.437-56.908-24.563-87.004-33.268c0.536-3.278,1.023-6.579,1.307-9.95c5.482-65.092,17.346-138.578-42.841-142.699
				c-139.228-9.534-169.367,59.273-174.85,124.364c-0.284,3.371-0.355,6.706-0.375,10.028c-31.128,3.55-61.646,9.657-91.343,18.247
				c-1.04-3.072-2.122-6.135-3.419-9.154c-25.308-58.901-20.74-98.194-78.264-76.124
				C989.704,743.429,969.65,814.503,994.959,873.404c1.322,3.078,2.815,6.007,4.347,8.896c-25.219,19.713-49.01,41.484-71.168,65.13
				c-2.372-2.122-4.784-4.209-7.363-6.141c-49.317-36.93-117.514-23.223-152.318,30.619c-34.804,53.839-23.039,127.42,26.28,164.348
				c2.526,1.894,5.131,3.565,7.749,5.194c-12.793,30.295-23.467,61.882-31.918,94.55c-3.024-0.533-6.069-1.018-9.183-1.281
				c-60.113-5.063-113.29,43.599-118.773,108.691c-5.482,65.09,38.806,121.961,98.92,127.024c3.114,0.263,6.197,0.294,9.268,0.275
				c2.868,33.62,8.108,66.548,15.655,98.555c-2.855,1.168-5.702,2.38-8.509,3.82c-54.8,28.164-78.708,98.74-53.4,157.643
				c25.31,58.904,90.252,83.821,145.052,55.66c2.863-1.471,5.594-3.124,8.286-4.82c17.891,27.019,37.705,52.462,59.271,76.116
				c-1.994,2.593-3.953,5.23-5.773,8.044c-34.804,53.837-23.038,127.42,26.281,164.351c49.318,36.93,156.08,20.033,190.884-33.803
				c1.784-2.761-35.201-2.41-33.662-5.266c27.84,13.438,56.908,24.563,87.004,33.268c-0.535,3.278-1.024,6.579-1.307,9.95
				c-5.483,65.091,38.804,121.961,98.919,127.026c60.113,5.063,113.289-43.6,118.772-108.691c0.283-3.372,0.354-6.708,0.374-10.03
				c31.128-3.547,61.647-9.655,91.342-18.246c1.041,3.073,2.124,6.135,3.42,9.155c25.309,58.899,90.252,83.821,145.052,55.66
				c54.801-28.16,78.709-98.74,53.4-157.639c-1.322-3.078-2.814-6.007-4.346-8.897c25.219-19.713,49.009-41.484,71.168-65.13
				c2.37,2.123,4.786,4.21,7.362,6.139c49.319,36.929,117.514,23.226,152.319-30.615c34.805-53.84,23.038-127.42-26.281-164.354
				c-2.525-1.889-5.13-3.56-7.748-5.188c12.792-30.294,23.467-61.881,31.916-94.549
				C1919.276,1569.399,1922.32,1569.885,1925.435,1570.148z M1307.368,1830.345c-218.259-18.383-379.057-224.866-359.152-461.198
				c19.904-236.33,212.974-413.01,431.233-394.628c218.261,18.384,379.059,224.867,359.153,461.199
				C1718.697,1672.05,1525.628,1848.729,1307.368,1830.345z"/>
			<path style="fill:#BFC6D1;" d="M1928.873,1231.78c54.801-28.162,78.708-98.738,53.4-157.641
				c-25.31-58.902-90.252-83.824-145.053-55.662c-2.866,1.472-5.593,3.128-8.286,4.821c-17.891-27.019-37.705-52.46-59.272-76.114
				c1.994-2.592,3.954-5.232,5.772-8.046c34.804-53.836,61.544-160.628,8.698-192.304c-100.3-60.118-152.493,4.734-187.296,58.569
				c-1.783,2.76-3.363,5.597-4.903,8.452c-27.841-13.435-56.907-24.56-87.004-33.266c0.537-3.279,1.025-6.578,1.309-9.949
				c2.984-35.425-8.85-68.34-29.878-91.869c-13.4,101.781-26.026,203.652-37.639,305.639
				c187.316,47.153,317.934,236.945,299.88,451.31c-15.299,181.654-132.948,327.946-285.661,377.625
				c0.352,19.857,0.863,39.76,0.678,59.642c-0.498,53.955-3.997,108.025-7.551,162.045c14.816-2.994,29.467-6.565,43.92-10.745
				c1.04,3.075,2.123,6.137,3.42,9.155c25.309,58.902,81.855,94.714,182.685,47.396c55.777-26.175,41.077-90.473,15.766-149.375
				c-1.322-3.077-2.814-6.007-4.345-8.896c25.219-19.715,49.009-41.485,71.167-65.13c2.372,2.123,4.787,4.209,7.364,6.138
				c49.319,36.931,159.959,16.197,194.763-37.643c34.806-53.84-19.406-120.393-68.724-157.325c-2.526-1.892-5.131-3.563-7.749-5.193
				c12.794-30.292,23.467-61.882,31.917-94.547c3.027,0.534,6.071,1.02,9.185,1.279c60.114,5.066,113.29-43.6,118.772-108.691
				c5.482-65.089-38.806-121.963-98.92-127.024c-3.115-0.262-6.198-0.294-9.269-0.273c-2.866-33.62-8.108-66.55-15.653-98.554
				C1923.219,1234.434,1926.066,1233.222,1928.873,1231.78z"/>
			<path style="fill:#D8DEE8;" d="M1981.513,1554.472c60.113,5.064,113.289-43.598,118.772-108.689
				c5.482-65.092-38.806-121.963-98.92-127.025c-3.114-0.263-6.196-0.294-9.268-0.274c-2.867-33.621-8.108-66.55-15.653-98.557
				c2.853-1.169,5.701-2.38,8.507-3.823c54.802-28.161,78.71-98.736,53.401-157.64c-25.309-58.903-90.251-83.824-145.052-55.663
				c-2.865,1.474-5.593,3.127-8.285,4.823c-17.892-27.018-37.706-52.461-59.273-76.116c1.994-2.591,3.955-5.231,5.774-8.045
				c34.804-53.836,23.038-127.42-26.281-164.349c-49.318-36.931-117.515-23.223-152.319,30.614c-1.782,2.76-3.361,5.599-4.902,8.454
				c-27.842-13.437-56.907-24.562-87.005-33.267c0.535-3.279,1.024-6.58,1.309-9.952c5.482-65.09-38.806-121.961-98.92-127.024
				s-113.289,43.598-118.772,108.689c-0.283,3.372-0.354,6.708-0.376,10.031c-31.128,3.548-61.646,9.655-91.341,18.246
				c-1.041-3.073-2.123-6.136-3.419-9.154c-25.309-58.901-90.251-83.823-145.053-55.661c-54.8,28.16-78.708,98.74-53.4,157.64
				c1.323,3.079,2.813,6.007,4.347,8.896c-25.22,19.715-49.01,41.486-71.169,65.13c-2.371-2.121-4.785-4.207-7.363-6.141
				c-49.318-36.93-117.514-23.221-152.318,30.619c-34.805,53.84-23.038,127.42,26.28,164.351c2.526,1.892,5.131,3.563,7.75,5.193
				c-12.793,30.293-23.467,61.881-31.919,94.549c-3.024-0.533-6.069-1.017-9.183-1.279c-60.114-5.064-113.29,43.598-118.773,108.688
				c-5.481,65.091,38.805,121.962,98.919,127.025c3.114,0.263,6.197,0.294,9.268,0.274c2.868,33.62,8.108,66.55,15.653,98.555
				c-2.853,1.168-5.7,2.381-8.507,3.821c-54.801,28.164-78.709,98.739-53.4,157.643c25.309,58.903,90.252,83.821,145.052,55.661
				c2.864-1.471,5.594-3.125,8.287-4.82c17.891,27.018,37.704,52.46,59.271,76.116c-1.994,2.591-3.954,5.231-5.774,8.045
				c-34.804,53.836-23.038,127.42,26.281,164.349c49.319,36.93,117.514,23.223,152.318-30.614c1.784-2.761,3.362-5.599,4.903-8.454
				c27.839,13.437,56.908,24.562,87.003,33.268c-0.535,3.279-1.024,6.579-1.308,9.952c-5.482,65.089,38.806,121.961,98.92,127.024
				c60.113,5.063,113.29-43.599,118.771-108.69c0.285-3.371,0.355-6.707,0.376-10.029c31.128-3.548,61.647-9.654,91.342-18.246
				c1.041,3.073,2.124,6.135,3.419,9.154c25.31,58.901,90.252,83.821,145.052,55.66c54.802-28.16,78.71-98.739,53.401-157.638
				c-1.323-3.08-2.814-6.008-4.346-8.899c25.219-19.713,49.008-41.484,71.167-65.128c2.371,2.122,4.785,4.208,7.363,6.136
				c49.319,36.931,117.515,23.226,152.319-30.614c34.805-53.84,23.039-127.421-26.28-164.354c-2.526-1.888-5.13-3.56-7.749-5.19
				c12.793-30.293,23.467-61.881,31.918-94.548C1975.354,1553.726,1978.398,1554.21,1981.513,1554.472z M1363.446,1814.672
				c-218.258-18.382-379.056-224.866-359.152-461.198c19.904-236.331,212.974-413.01,431.233-394.628
				c218.258,18.383,379.057,224.866,359.152,461.197C1774.775,1656.375,1581.706,1833.054,1363.446,1814.672z"/>
		</g>
		<g>
			<path style="fill:#BFC6D1;" d="M2852.062,2579.059c45.573,3.838,85.887-33.054,90.042-82.401
				c4.157-49.346-29.418-92.461-74.992-96.299c-2.362-0.199-4.698-0.222-7.027-0.208c-2.173-25.488-6.146-50.452-11.867-74.717
				c2.163-0.886,4.322-1.804,6.45-2.898c41.546-21.349,59.671-74.854,40.483-119.51c-19.187-44.656-68.42-63.549-109.967-42.201
				c-2.171,1.118-4.24,2.371-6.281,3.656c-13.565-20.482-28.585-39.771-44.935-57.704c1.511-1.965,2.998-3.965,4.377-6.098
				c26.385-40.815,17.465-96.6-19.923-124.598c-37.389-27.997-89.09-17.606-115.476,23.209c-1.352,2.093-2.549,4.244-3.716,6.41
				c-21.107-10.187-43.143-18.622-65.959-25.221c0.406-2.485,0.776-4.988,0.991-7.543c4.156-49.347,13.15-105.059-32.479-108.182
				c-105.551-7.228-128.4,44.936-132.557,94.282c-0.215,2.556-0.269,5.084-0.284,7.603c-23.599,2.691-46.735,7.321-69.249,13.833
				c-0.788-2.329-1.609-4.651-2.592-6.94c-19.187-44.653-15.723-74.442-59.333-57.711c-95.1,36.487-110.303,90.369-91.117,135.023
				c1.002,2.333,2.134,4.554,3.296,6.744c-19.119,14.945-37.156,31.45-53.954,49.376c-1.798-1.609-3.627-3.191-5.582-4.656
				c-37.388-27.997-89.09-17.605-115.475,23.213c-26.386,40.817-17.466,96.599,19.923,124.596c1.915,1.436,3.89,2.702,5.875,3.937
				c-9.699,22.967-17.791,46.914-24.198,71.68c-2.292-0.404-4.601-0.771-6.962-0.971c-45.573-3.838-85.887,33.052-90.043,82.4
				c-4.156,49.346,29.419,92.461,74.992,96.299c2.361,0.199,4.698,0.223,7.027,0.208c2.174,25.488,6.147,50.452,11.868,74.717
				c-2.164,0.886-4.322,1.804-6.451,2.896c-41.545,21.352-59.67,74.857-40.484,119.512c19.188,44.656,68.422,63.546,109.967,42.197
				c2.171-1.115,4.241-2.368,6.282-3.655c13.564,20.484,28.585,39.773,44.935,57.705c-1.512,1.966-2.997,3.965-4.377,6.099
				c-26.385,40.815-17.466,96.599,19.924,124.597c37.389,27.997,118.327,15.188,144.712-25.626
				c1.352-2.094-26.687-1.827-25.52-3.993c21.106,10.188,43.143,18.622,65.959,25.221c-0.406,2.486-0.776,4.988-0.991,7.543
				c-4.157,49.346,29.418,92.461,74.992,96.301c45.573,3.838,85.887-33.054,90.043-82.4c0.215-2.556,0.268-5.085,0.284-7.604
				c23.598-2.69,46.736-7.32,69.248-13.833c0.789,2.33,1.61,4.651,2.593,6.941c19.188,44.652,68.421,63.546,109.967,42.197
				c41.546-21.349,59.671-74.857,40.483-119.51c-1.002-2.334-2.134-4.554-3.294-6.745c19.119-14.945,37.155-31.45,53.954-49.376
				c1.797,1.609,3.628,3.191,5.582,4.654c37.389,27.997,89.09,17.608,115.476-23.21c26.386-40.817,17.466-96.6-19.924-124.6
				c-1.914-1.432-3.889-2.699-5.874-3.933c9.698-22.967,17.791-46.914,24.196-71.68
				C2847.393,2578.492,2849.7,2578.86,2852.062,2579.059z M2383.494,2776.32c-165.466-13.936-287.37-170.476-272.28-349.642
				c15.09-179.167,161.459-313.111,326.926-299.174c165.468,13.937,287.371,170.476,272.28,349.643
				C2695.33,2656.313,2548.961,2790.257,2383.494,2776.32z"/>
			<path style="fill:#BFC6D1;" d="M2854.668,2322.536c41.546-21.351,59.67-74.855,40.484-119.511
				c-19.188-44.655-68.421-63.548-109.967-42.198c-2.172,1.116-4.24,2.371-6.281,3.655c-13.564-20.484-28.585-39.771-44.935-57.704
				c1.512-1.964,2.998-3.966,4.376-6.1c26.385-40.814,46.657-121.776,6.594-145.79c-76.039-45.576-115.608,3.589-141.993,44.402
				c-1.352,2.093-2.55,4.243-3.717,6.407c-21.106-10.186-43.142-18.62-65.959-25.219c0.407-2.486,0.777-4.987,0.992-7.543
				c2.262-26.856-6.71-51.809-22.652-69.647c-10.159,77.162-19.731,154.392-28.535,231.71
				c142.007,35.748,241.031,179.632,227.345,342.146c-11.598,137.715-100.79,248.622-216.565,286.284
				c0.267,15.054,0.655,30.143,0.514,45.216c-0.378,40.904-3.031,81.896-5.724,122.849c11.232-2.27,22.34-4.977,33.296-8.146
				c0.788,2.331,1.61,4.653,2.593,6.941c19.187,44.655,62.056,71.804,138.497,35.932c42.286-19.844,31.141-68.59,11.952-113.244
				c-1.002-2.333-2.133-4.554-3.294-6.744c19.119-14.946,37.154-31.451,53.953-49.376c1.798,1.609,3.629,3.191,5.583,4.654
				c37.39,27.998,121.268,12.279,147.654-28.538c26.387-40.817-14.712-91.272-52.101-119.271c-1.915-1.434-3.89-2.701-5.875-3.937
				c9.699-22.965,17.791-46.914,24.197-71.678c2.295,0.405,4.602,0.773,6.963,0.97c45.573,3.84,85.887-33.054,90.044-82.401
				c4.156-49.345-29.42-92.462-74.993-96.299c-2.362-0.199-4.699-0.223-7.027-0.208c-2.173-25.488-6.147-50.453-11.867-74.716
				C2850.382,2324.549,2852.54,2323.63,2854.668,2322.536z"/>
			<path style="fill:#D8DEE8;" d="M2894.576,2567.176c45.573,3.839,85.886-33.053,90.043-82.399
				c4.156-49.347-29.42-92.463-74.993-96.3c-2.361-0.199-4.698-0.223-7.026-0.208c-2.174-25.489-6.147-50.453-11.867-74.718
				c2.163-0.886,4.323-1.804,6.45-2.898c41.546-21.349,59.671-74.854,40.484-119.51c-19.187-44.655-68.421-63.549-109.967-42.199
				c-2.171,1.117-4.24,2.371-6.281,3.656c-13.564-20.483-28.586-39.772-44.935-57.705c1.511-1.965,2.998-3.966,4.376-6.099
				c26.386-40.814,17.466-96.599-19.923-124.596c-37.389-27.999-89.09-17.605-115.475,23.209c-1.352,2.093-2.549,4.244-3.717,6.409
				c-21.107-10.187-43.143-18.621-65.96-25.219c0.405-2.486,0.777-4.989,0.992-7.545c4.156-49.346-29.42-92.461-74.993-96.299
				c-45.573-3.838-85.886,33.052-90.043,82.399c-0.215,2.557-0.268,5.086-0.285,7.604c-23.598,2.69-46.735,7.32-69.247,13.832
				c-0.79-2.33-1.61-4.651-2.592-6.94c-19.188-44.654-68.421-63.548-109.967-42.198c-41.545,21.349-59.67,74.856-40.484,119.509
				c1.003,2.335,2.133,4.554,3.296,6.745c-19.12,14.947-37.155,31.451-53.954,49.376c-1.798-1.608-3.627-3.19-5.582-4.656
				c-37.389-27.997-89.089-17.604-115.475,23.213c-26.386,40.818-17.466,96.599,19.923,124.597c1.916,1.434,3.89,2.701,5.875,3.937
				c-9.699,22.966-17.791,46.914-24.198,71.679c-2.293-0.405-4.601-0.772-6.962-0.97c-45.574-3.839-85.887,33.053-90.044,82.399
				c-4.155,49.347,29.419,92.461,74.993,96.3c2.36,0.199,4.698,0.223,7.026,0.208c2.175,25.488,6.147,50.452,11.867,74.717
				c-2.163,0.885-4.321,1.805-6.449,2.897c-41.546,21.352-59.67,74.856-40.483,119.512c19.188,44.655,68.422,63.546,109.967,42.197
				c2.171-1.116,4.24-2.369,6.282-3.655c13.563,20.483,28.584,39.771,44.934,57.705c-1.512,1.965-2.998,3.966-4.377,6.099
				c-26.385,40.814-17.466,96.599,19.924,124.596c37.39,27.998,89.089,17.606,115.475-23.209c1.353-2.093,2.549-4.245,3.718-6.409
				c21.105,10.186,43.143,18.62,65.958,25.22c-0.405,2.486-0.776,4.988-0.992,7.544c-4.155,49.346,29.42,92.461,74.993,96.299
				c45.573,3.838,85.887-33.053,90.042-82.4c0.216-2.556,0.269-5.085,0.285-7.604c23.598-2.69,46.736-7.319,69.248-13.832
				c0.789,2.33,1.61,4.651,2.592,6.939c19.188,44.654,68.422,63.546,109.967,42.197c41.546-21.348,59.672-74.855,40.484-119.508
				c-1.003-2.335-2.134-4.555-3.295-6.746c19.119-14.945,37.154-31.45,53.953-49.375c1.798,1.608,3.628,3.19,5.582,4.652
				c37.39,27.998,89.09,17.608,115.476-23.209c26.386-40.817,17.466-96.601-19.923-124.6c-1.916-1.432-3.89-2.699-5.875-3.934
				c9.698-22.966,17.791-46.914,24.197-71.679C2889.907,2566.61,2892.214,2566.977,2894.576,2567.176z M2426.008,2764.437
				c-165.466-13.936-287.37-170.475-272.28-349.642c15.09-179.167,161.46-313.111,326.926-299.175
				c165.466,13.936,287.37,170.475,272.28,349.642C2737.844,2644.429,2591.475,2778.373,2426.008,2764.437z"/>
		</g>
		<g>
			<g>
				<linearGradient id="SVGID_1_" gradientUnits="userSpaceOnUse" x1="1770.8269" y1="2426.4648" x2="2424.9736" y2="2426.4648">
					<stop  offset="0" style="stop-color:#FF9085"/>
					<stop  offset="1" style="stop-color:#FB6FBB"/>
				</linearGradient>
				<path style="fill:url(#SVGID_1_);" d="M2355.377,2550.018c-95.579-20.227-145.991,183.946-170.522-156.535
					c-13.23-183.628-58.127-253.177-172.328-355.428c-31.715-28.392-93.922-62.776-134.596-52.291
					c-96.907,24.981-152.698,316.416-58.908,545.65c18.93,46.268,38.854,300.849,274.717,333.184
					C2434.43,2911.304,2494.191,2579.389,2355.377,2550.018z"/>
				
					<linearGradient id="SVGID_00000030487172645271979320000009989590173014350744_" gradientUnits="userSpaceOnUse" x1="5708.6245" y1="2765.5552" x2="5426.8521" y2="2366.3777" gradientTransform="matrix(-1 0 0 1 6610.9595 0)">
					<stop  offset="0" style="stop-color:#444B8C"/>
					<stop  offset="0.9964" style="stop-color:#26264F"/>
				</linearGradient>
				<path style="fill:url(#SVGID_00000030487172645271979320000009989590173014350744_);" d="M1541.977,2048.737
					c34.985-32.339,101.919-69.621,135.49-156.287c10.108-26.086,45.907-118.516-6.905-189.22
					c-31.345-41.972-89.567-70.472-140.887-60.382c-43.854,8.622-50.709,39.166-125.229,100.637
					c-29.008,23.924-75.63,62.383-127.521,83.764c-88.902,36.64-142.312,2.165-231.563,6.097
					c-109.647,4.835-237.022,66.025-298.389,155.01c-108.922,157.935,48.863,318.147-70.442,503.168
					c-39.093,60.614-58.361,47.026-150.95,164.366c-92.714,117.497-139.07,176.238-130.825,248.23
					c11.449,99.912,119.066,195.354,220.406,201.839c98.994,6.343,161.92-71.54,212.318-37.471
					c35.873,24.238,15.362,71.397,53.459,128.067c49.109,73.068,145.638,87.627,161.227,89.97
					c144.698,21.828,339.796-147.845,422.659-348.862C1614.245,2575.175,1351.771,2224.556,1541.977,2048.737z"/>
				<g>
					
						<linearGradient id="SVGID_00000174562409750230295020000006817796300114367405_" gradientUnits="userSpaceOnUse" x1="279.0072" y1="2646.2246" x2="2047.7399" y2="2646.2246">
						<stop  offset="0" style="stop-color:#FF9085"/>
						<stop  offset="1" style="stop-color:#FB6FBB"/>
					</linearGradient>
					<path style="fill:url(#SVGID_00000174562409750230295020000006817796300114367405_);" d="M1112.137,3357.029
						c217.592-25.893,282.69-165.783,480.944-155.195c141.712,7.568,161.68,81.887,300.377,103.343
						c0.166,0.025,0.333,0.051,0.499,0.077c27.085,4.156,50.779-18.537,48.181-45.815c-9.463-99.353-20.737-231.946-20.825-316.149
						c-0.071-65.325,22.582-172.056,67.895-385.523c2.674-12.59,27.194-127.916,47.006-281.977
						c17.84-138.728,15.256-181.33-9.803-220.269c-10.708-16.635-44.756-62.729-189.25-96.701
						c-72.418-17.023-206.306-46.192-378.604-9.683c-236.641,50.138-384.02,192.133-439.489,251.817
						c45.424,29.577,170.77,119.823,232.847,291.032c19.317,53.267,76.375,235.374-5.232,405.939
						c-47.017,98.288-130.196,172.073-193.367,228.126c-94.755,84.056-143.826,96.976-175.591,172.285
						c-5.213,12.358-8.828,23.747-11.39,34.396C968.432,3363.645,1050.959,3364.309,1112.137,3357.029z"/>
				</g>
				<g style="opacity:0.3;">
					
						<linearGradient id="SVGID_00000133496842419751218150000013141880467296144317_" gradientUnits="userSpaceOnUse" x1="5236.4971" y1="1971.3667" x2="5506.2529" y2="3621.0308" gradientTransform="matrix(-1 0 0 1 6610.9595 0)">
						<stop  offset="0" style="stop-color:#FF9085"/>
						<stop  offset="1" style="stop-color:#FB6FBB"/>
					</linearGradient>
					<path style="fill:url(#SVGID_00000133496842419751218150000013141880467296144317_);" d="M1498.325,2953.687
						c2.038-341.361,81.008-384.849,31.125-503.207c-21.577-51.206-196.066-224.13-495.335-265.256
						c-5.516,5.652-10.674,11.017-15.046,15.73c45.424,29.577,170.77,119.823,232.847,291.032
						c19.317,53.267,76.375,235.374-5.232,405.939c-47.017,98.288-130.196,172.073-193.367,228.123
						c-94.755,84.062-143.826,96.979-175.591,172.288c-5.213,12.358-8.828,23.747-11.39,34.396
						c102.097,30.913,184.624,31.577,245.801,24.297c172.398-20.515,249.082-112.578,372.099-144.674
						C1509.188,3154.875,1497.529,3087.479,1498.325,2953.687z"/>
				</g>
				
					<linearGradient id="SVGID_00000178899705375727157540000012670894956278672568_" gradientUnits="userSpaceOnUse" x1="737.5541" y1="2452.5044" x2="1443.0573" y2="2452.5044">
					<stop  offset="0" style="stop-color:#FF9085"/>
					<stop  offset="1" style="stop-color:#FB6FBB"/>
				</linearGradient>
				<path style="fill:url(#SVGID_00000178899705375727157540000012670894956278672568_);" d="M1438.67,2542.56
					c31.812,67.559-114.373,224.905-276.853,299.617c-33.103,15.229-270.836,124.536-376.79,19.427
					c-87.55-86.86-31.047-266.459-10.874-330.576c99.054-314.847,403.253-475.005,530.739-532.77
					c95.144,237.895,39.109,343.903,17.055,377.003c-23.041,34.575-87.34,107.208-155.628,171.194
					c-48.037,45.003-77.95,66.904-73.927,73.924c5.005,8.738,61.312-7.764,280.013-114.216
					C1397.757,2510.268,1427.798,2519.493,1438.67,2542.56z"/>
				
					<linearGradient id="SVGID_00000084527077061906120540000014439018695309655171_" gradientUnits="userSpaceOnUse" x1="5129.1758" y1="2209.6992" x2="5029.6812" y2="1967.1808" gradientTransform="matrix(-1 0 0 1 6610.9595 0)">
					<stop  offset="0" style="stop-color:#311944"/>
					<stop  offset="1" style="stop-color:#893976"/>
				</linearGradient>
				<path style="fill:url(#SVGID_00000084527077061906120540000014439018695309655171_);" d="M1555.693,1764.146
					c0,0-15.093,120.656-59.624,148.302c-44.536,27.628-116.527,63.74-124.459,73.544c-7.929,9.789,275.876,40.305,416.52-30.668
					c-46.351-9.667-58.951-13.223-58.951-13.223c-12.58-3.556-36.045-10.168-59.569-23.573c-16.01-9.117-41.82-26.932-65.491-60.566
					l0.517-66.808L1555.693,1764.146z"/>
				
					<linearGradient id="SVGID_00000168836771541372506400000014267789294659573411_" gradientUnits="userSpaceOnUse" x1="5331.541" y1="2194.5605" x2="5138.7705" y2="1933.3879" gradientTransform="matrix(-1 0 0 1 6610.9595 0)">
					<stop  offset="0" style="stop-color:#311944"/>
					<stop  offset="1" style="stop-color:#893976"/>
				</linearGradient>
				<path style="fill:url(#SVGID_00000168836771541372506400000014267789294659573411_);" d="M1548.92,1806.88
					c0,0,29.036,39.854,74.569,23.244c40.773-14.869,16.438-120.173-15.901-132.185c-10.787-4.007-30.596-2.234-43.837,6.026
					c-9.315,5.809-34.181,36.703-19.926,71.323c-10.301-2.984-19.367-0.276-21.635,4.827c-2.885,6.47,5.84,15.28,7.812,17.277
					C1536.85,1804.312,1545.112,1806.246,1548.92,1806.88z"/>
				
					<linearGradient id="SVGID_00000105427729351429054050000011408492843988999331_" gradientUnits="userSpaceOnUse" x1="5113.8413" y1="2415.5847" x2="5316.8384" y2="3656.9922" gradientTransform="matrix(-1 0 0 1 6610.9595 0)">
					<stop  offset="0" style="stop-color:#311944"/>
					<stop  offset="1" style="stop-color:#893976"/>
				</linearGradient>
				<path style="fill:url(#SVGID_00000105427729351429054050000011408492843988999331_);" d="M1383.433,2526.762
					c0,0,133.315-136.411,187.569-156.56c54.253-20.155,21.701,9.3,0,26.351c-21.703,17.05-36.163,22.656-25.058,48.531
					c11.107,25.879,31.276,48.845-0.511,69.138c-31.785,20.292-44.188,28.044-68.993,31.141c-24.8,3.104-24.8,3.104-24.8,3.104
					l-32.556,17.357C1419.085,2565.824,1377.234,2560.867,1383.433,2526.762z"/>
				
					<linearGradient id="SVGID_00000168110610481614381660000008788004626791545758_" gradientUnits="userSpaceOnUse" x1="5713.4902" y1="2824.459" x2="5832.9585" y2="3555.0557" gradientTransform="matrix(-0.9899 0.1417 0.1417 0.9899 7672.4907 -1113.4807)">
					<stop  offset="0" style="stop-color:#311944"/>
					<stop  offset="1" style="stop-color:#893976"/>
				</linearGradient>
				<path style="fill:url(#SVGID_00000168110610481614381660000008788004626791545758_);" d="M2320.984,2519.253
					c20.123-25.044,50.502-54.933,56.373-64.892c5.869-9.961,22.985,7.653,4.605,32.172c-18.374,24.521-18.374,24.521-18.374,24.521
					c1.054,4.615,2.94,7.829,4.604,9.975c7.803,10.056,23.524,13.311,40.088,9.157c66.169-8.717,90.474-16.536,98.909-22.587
					c1.251-0.897,6.003-4.518,9.102-2.93c4.967,2.548,2.694,16.944,1.401,22.165c-7.741,31.322-61.743,62.712-112.077,57.998
					c-18.383-1.715-31.5,2.283-43.787,0.472C2321.048,2579.294,2300.859,2544.303,2320.984,2519.253z"/>
			</g>
			<g>
				<g>
					<path style="opacity:0.75;fill:#F4F7FA;" d="M3186.806,1109.104c0-361.252-307.56-654.104-686.952-654.104
						c-379.395,0-686.954,292.852-686.954,654.104c0,219.234,113.281,413.27,287.146,531.951
						c73.761,50.349,118.495,133.338,118.495,222.643v50.056c0,108.76,88.168,196.928,196.925,196.928h168.772
						c108.76,0,196.925-88.168,196.925-196.928v-50.056c0-89.306,44.735-172.294,118.495-222.643
						C3073.526,1522.375,3186.806,1328.339,3186.806,1109.104z"/>
					
						<linearGradient id="SVGID_00000053519761461087814110000000098447473993133207_" gradientUnits="userSpaceOnUse" x1="2485.5437" y1="2516.7959" x2="2497.7441" y2="2419.1936">
						<stop  offset="0.0036" style="stop-color:#26264F"/>
						<stop  offset="1" style="stop-color:#444B8C"/>
					</linearGradient>
					<path style="fill:url(#SVGID_00000053519761461087814110000000098447473993133207_);" d="M2652.239,2402.323
						c0,44.557-68.224,80.677-152.385,80.677c-84.161,0-152.386-36.12-152.386-80.677c0-44.555,68.225-80.676,152.386-80.676
						C2584.014,2321.647,2652.239,2357.768,2652.239,2402.323z"/>
					
						<linearGradient id="SVGID_00000071517998300810243840000009896411051079346605_" gradientUnits="userSpaceOnUse" x1="2435.3674" y1="2427.8394" x2="2557.3721" y2="2208.231">
						<stop  offset="0.0036" style="stop-color:#26264F"/>
						<stop  offset="1" style="stop-color:#444B8C"/>
					</linearGradient>
					<path style="fill:url(#SVGID_00000071517998300810243840000009896411051079346605_);" d="M2297.389,2258.204v82.387
						c0,27.876,15.864,53.416,41.023,65.413c34.929,16.657,93.001,34.937,177.4,32.775c68.472-1.754,113.121-12.936,141.506-24.683
						c27.422-11.347,44.999-38.466,44.999-68.144v-45.585L2297.389,2258.204z"/>
					
						<linearGradient id="SVGID_00000094576962570176904880000016391462203083765918_" gradientUnits="userSpaceOnUse" x1="2297.3892" y1="2323.7678" x2="2702.3174" y2="2323.7678">
						<stop  offset="0.0036" style="stop-color:#26264F"/>
						<stop  offset="1" style="stop-color:#444B8C"/>
					</linearGradient>
					<path style="opacity:0.3;fill:url(#SVGID_00000094576962570176904880000016391462203083765918_);" d="M2297.389,2330.368
						c6.171,5.999,13.319,11.089,21.346,14.916c39.186,18.686,295.86,60.442,357.773,37.179c8.043-3.02,15.276-7.063,21.611-11.937
						c2.708-7.781,4.199-16.063,4.199-24.575v-45.585l-404.928-42.165V2330.368z"/>
					
						<linearGradient id="SVGID_00000144309307092867903020000018022485116383458468_" gradientUnits="userSpaceOnUse" x1="2446.9807" y1="2367.8291" x2="2567.46" y2="2136.0212">
						<stop  offset="0.0036" style="stop-color:#26264F"/>
						<stop  offset="1" style="stop-color:#444B8C"/>
					</linearGradient>
					<path style="fill:url(#SVGID_00000144309307092867903020000018022485116383458468_);" d="M2315.366,2202.146
						c-22.807-2.375-42.651,15.512-42.651,38.441v2.335c0,31.272,17.794,59.924,46.02,73.385
						c39.186,18.688,295.86,60.442,357.773,37.18c31.171-11.712,50.484-38.472,50.484-71.767v-1.879
						c0-19.796-14.957-36.39-34.646-38.44L2315.366,2202.146z"/>
					
						<linearGradient id="SVGID_00000085226222782675594980000016085087324291233162_" gradientUnits="userSpaceOnUse" x1="2279.2476" y1="2255.5217" x2="2720.2585" y2="2255.5217">
						<stop  offset="0.0036" style="stop-color:#26264F"/>
						<stop  offset="1" style="stop-color:#444B8C"/>
					</linearGradient>
					<path style="opacity:0.3;fill:url(#SVGID_00000085226222782675594980000016085087324291233162_);" d="M2692.346,2241.402
						l-376.98-39.255c-14.874-1.548-28.448,5.55-36.119,17.015c7.573,17.844,21.363,32.771,39.488,41.415
						c39.186,18.688,306.792,65.885,357.773,41.864c19.846-9.353,35.411-25.141,43.751-44.331
						C2714.045,2248.997,2704.046,2242.621,2692.346,2241.402z"/>
					
						<linearGradient id="SVGID_00000096057360108275773510000015069916291177479843_" gradientUnits="userSpaceOnUse" x1="2272.7148" y1="2175.8386" x2="2726.9922" y2="2175.8386">
						<stop  offset="0.0036" style="stop-color:#26264F"/>
						<stop  offset="1" style="stop-color:#444B8C"/>
					</linearGradient>
					<path style="fill:url(#SVGID_00000096057360108275773510000015069916291177479843_);" d="M2300.616,2068.666
						c-15.411,0-27.901,12.491-27.901,27.903v64.527c0,31.272,17.794,59.925,46.02,73.385
						c39.186,18.688,306.792,65.886,357.773,41.864c30.121-14.193,50.484-43.155,50.484-76.449v-103.327
						c0-15.412-12.493-27.903-27.903-27.903H2300.616z"/>
					
						<linearGradient id="SVGID_00000092448955749631003790000011425011260227701683_" gradientUnits="userSpaceOnUse" x1="2488.5708" y1="2141.5718" x2="2533.3057" y2="1932.1324">
						<stop  offset="0.0036" style="stop-color:#26264F"/>
						<stop  offset="1" style="stop-color:#444B8C"/>
					</linearGradient>
					<path style="fill:url(#SVGID_00000092448955749631003790000011425011260227701683_);" d="M2721.374,2088.754
						c0,28.923-99.179,52.371-221.521,52.371c-122.343,0-221.523-23.448-221.523-52.371c0-28.926,99.18-52.375,221.523-52.375
						C2622.195,2036.379,2721.374,2059.828,2721.374,2088.754z"/>
					
						<linearGradient id="SVGID_00000049200326615111153800000008929209212903223684_" gradientUnits="userSpaceOnUse" x1="2402.6621" y1="972.9208" x2="3290.1958" y2="2381.9951">
						<stop  offset="0" style="stop-color:#FCB148"/>
						<stop  offset="0.0521" style="stop-color:#FDBA46"/>
						<stop  offset="0.1424" style="stop-color:#FFC244"/>
						<stop  offset="0.3183" style="stop-color:#FFC444"/>
						<stop  offset="0.4849" style="stop-color:#FDB946"/>
						<stop  offset="0.7754" style="stop-color:#F99C4D"/>
						<stop  offset="0.8658" style="stop-color:#F8924F"/>
						<stop  offset="1" style="stop-color:#F8924F"/>
					</linearGradient>
					<path style="fill:url(#SVGID_00000049200326615111153800000008929209212903223684_);" d="M3186.806,1109.104
						c0-361.252-307.56-654.104-686.952-654.104c-379.395,0-686.954,292.852-686.954,654.104
						c0,219.234,113.281,413.27,287.146,531.951c73.761,50.349,118.495,133.338,118.495,222.643v50.056
						c0,108.76,88.168,196.928,196.925,196.928h168.772c108.76,0,196.925-88.168,196.925-196.928v-50.056
						c0-89.306,44.735-172.294,118.495-222.643C3073.526,1522.375,3186.806,1328.339,3186.806,1109.104z"/>
					<ellipse style="opacity:0.5;fill:#F4F7FA;" cx="2499.854" cy="2047.455" rx="162.092" ry="38.322"/>
					<g>
						
							<linearGradient id="SVGID_00000036215292979398223590000001577398905318810781_" gradientUnits="userSpaceOnUse" x1="2299.2395" y1="2055.3215" x2="2412.7346" y2="1723.7635">
							<stop  offset="0.494" style="stop-color:#EBEFF2"/>
							<stop  offset="1" style="stop-color:#FFFFFF"/>
						</linearGradient>
						<path style="fill:url(#SVGID_00000036215292979398223590000001577398905318810781_);" d="M2457.614,2070.875
							c-4.643,0-8.673-3.449-9.282-8.175l-119.246-589.399c-0.658-5.133,2.967-9.827,8.098-10.485
							c5.143-0.69,9.826,2.965,10.487,8.096l119.244,589.402c0.66,5.131-2.967,9.824-8.098,10.482
							C2458.414,2070.852,2458.011,2070.875,2457.614,2070.875z"/>
						
							<linearGradient id="SVGID_00000000184250735636898780000014525073392273875109_" gradientUnits="userSpaceOnUse" x1="2474.3384" y1="2108.4622" x2="2593.4084" y2="1760.6174">
							<stop  offset="0.494" style="stop-color:#EBEFF2"/>
							<stop  offset="1" style="stop-color:#FFFFFF"/>
						</linearGradient>
						<path style="fill:url(#SVGID_00000000184250735636898780000014525073392273875109_);" d="M2531.679,2070.875
							c-0.398,0-0.802-0.022-1.205-0.079c-5.134-0.658-8.758-5.351-8.096-10.482l119.245-589.402
							c0.659-5.131,5.35-8.791,10.487-8.096c5.13,0.658,8.756,5.352,8.098,10.485l-119.25,589.399
							C2540.351,2067.426,2536.321,2070.875,2531.679,2070.875z"/>
					</g>
					<ellipse style="opacity:0.44;fill:#F4F7FA;" cx="2510.841" cy="1134.607" rx="591.137" ry="570.088"/>
					
						<linearGradient id="SVGID_00000162329437895964036330000003910899138959147422_" gradientUnits="userSpaceOnUse" x1="2433.8074" y1="655.3038" x2="2256.9009" y2="2113.2549">
						<stop  offset="0" style="stop-color:#FCB148"/>
						<stop  offset="0.0521" style="stop-color:#FDBA46"/>
						<stop  offset="0.1424" style="stop-color:#FFC244"/>
						<stop  offset="0.3183" style="stop-color:#FFC444"/>
						<stop  offset="0.4849" style="stop-color:#FDB946"/>
						<stop  offset="0.7754" style="stop-color:#F99C4D"/>
						<stop  offset="0.8658" style="stop-color:#F8924F"/>
						<stop  offset="1" style="stop-color:#F8924F"/>
					</linearGradient>
					<path style="opacity:0.3;fill:url(#SVGID_00000162329437895964036330000003910899138959147422_);" d="M2512.318,1625.04
						c14.717-252.112,439.735-311.114,437.912-536.267c-1.12-138.669-170.011-241.653-206.074-262.279
						c-265.743-151.989-592.832,23.527-660.383-100.695c-16.82-30.929-8.934-64.595-4.442-83.769
						c6.789-28.979,22.156-55.968,44.953-80.654C1936.797,678.171,1812.9,879.844,1812.9,1109.104
						c0,219.234,113.281,413.27,287.146,531.951c73.761,50.349,118.495,133.338,118.495,222.646v50.053
						c0,108.76,88.168,196.928,196.925,196.928h168.772c108.76,0,196.925-88.168,196.925-196.928v-40.018
						c-23.228,17.801-49.906,30.215-79.158,29.977C2600.496,1902.876,2504.996,1750.5,2512.318,1625.04z"/>
				</g>
				<g>
					<path style="fill:#FFFFFF;" d="M2562.451,1214.224c0-21.49-5.422-38.243-16.292-50.275
						c-10.905-12.07-30.142-23.355-57.847-33.893c-27.941-10.617-53.936-21.489-77.954-32.61
						c-24.19-11.191-45.154-24.309-62.847-39.344c-17.778-15.111-31.478-32.692-41.031-52.74
						c-9.59-20.095-14.386-44.448-14.386-73.022c0-47.802,17.077-86.762,50.979-116.65c33.584-29.603,77.867-45.793,132.439-48.747
						v-87.211l67.295,3.373v87.997c50.756,9.203,90.099,30.889,118.415,64.939c28.074,33.772,42.03,75.862,42.03,126.484
						l-137.886-1.3c0-28.282-5.556-50.13-16.696-65.587c-11.176-15.503-27.166-23.508-48.031-23.975
						c-18.722-0.419-33.335,4.983-43.772,16.22c-10.479,11.277-15.722,27.037-15.722,47.248c0,20.496,6.039,36.807,18.085,48.916
						c12.004,12.065,31.209,23.559,57.496,34.444c26.081,10.808,50.513,21.94,73.325,33.404
						c22.659,11.393,42.107,24.273,58.397,38.657c16.212,14.314,28.852,31.016,37.975,50.118c9.087,19.05,13.63,42.019,13.63,68.942
						c0,45.585-14.506,83.352-43.692,113.499c-29.452,30.411-69.969,49.462-121.948,57.039v82.368l-67.461,4.312v-83.594
						c-62.849-3.151-111.838-21.606-146.368-55.596c-34.884-34.318-52.447-80.985-52.447-139.739l149.617-3.422
						c0,31.676,7.309,55.557,21.88,71.583c14.505,15.966,35.022,23.431,61.429,22.458c19.175-0.706,34.191-6.791,45.095-18.229
						C2557.029,1248.887,2562.451,1233.545,2562.451,1214.224z"/>
				</g>
			</g>
		</g>
	</g>
</g>
</svg>
