<?xml version="1.0" encoding="utf-8"?>
<!-- Generator: Adobe Illustrator 27.5.0, SVG Export Plug-In . SVG Version: 6.00 Build 0)  -->
<svg version="1.1" xmlns="http://www.w3.org/2000/svg" xmlns:xlink="http://www.w3.org/1999/xlink" x="0px" y="0px"
	 viewBox="0 0 3710 3710" style="enable-background:new 0 0 3710 3710;" xml:space="preserve">
<g id="Background">
	<g>
		<g>
			<rect style="fill:#FFFFFF;" width="3710" height="3710"/>
		</g>
	</g>
</g>
<g id="Illustration">
	<g>
		<path style="fill:#F4F7FA;" d="M3247.724,2126.559c-1.905,70.967-8.542,142.513-21.951,213.377
			c-34.412,181.724-113.379,358.751-271.002,508.683c-133.903,127.399-324.578,235.264-592.992,309.837
			c-5.14,1.431-10.313,2.86-15.521,4.255c-200.07,54.052-432.848,80.6-640.44,64.195c-10.585-0.851-21.205-1.634-31.79-2.383
			c-97.687-7.012-195.543-11.198-293.058-20.286c-293.397-27.298-629.648-112.935-767.465-403.611
			c-10.926-23.043-20.319-46.392-28.386-70.081c-58.749-171.445-48.298-357.832-40.096-537.511
			c0.409-9.123,0.818-18.21,1.227-27.298c7.351-168.687-19.47-338.6-59.191-502.76c-61.13-252.792-10.756-517.907,140.028-735.334
			c150.783-217.429,389.075-368.723,660.827-419.54c457.898-85.636,922.401-29.136,922.401-29.136
			c611.779,63.547,921.482,670.937,997.011,1165.323C3229.482,1789.287,3252.287,1956.169,3247.724,2126.559z"/>
		<g>
			<g>
				
					<linearGradient id="SVGID_1_" gradientUnits="userSpaceOnUse" x1="895.7289" y1="-816.0963" x2="1650.3854" y2="1166.8281" gradientTransform="matrix(0.4232 0.9061 -0.9061 0.4232 2008.7913 1094.6501)">
					<stop  offset="0" style="stop-color:#AA80F9"/>
					<stop  offset="0.9964" style="stop-color:#6165D7"/>
				</linearGradient>
				<path style="fill:url(#SVGID_1_);" d="M1889.139,2466.283c-81.026-8.027-135.763,48.883-168.921,96.27
					c2.896,7.267,2.71,12.187,4.001,20.14c11.658,71.783,31.927,99.923,54.589,168.862c4.878,14.839,32.441,54.039,44.732,69.333
					l23.368,28.147c0,0,187.348-4.507,196.551-110.76c9.202-106.253,186.592-133.106,278.815-158.913
					c56.631-15.848,77.454-41.237,97.328-50.401c210.378-97.003,299.586-57.061,348.62-130.63
					c54.13-81.214-39.09-153.136,15.127-244.594c61.223-103.274,221.192-80.903,257.288-191.58
					c6.189-18.975,12.032-38.64,9.688-65.16c-5.788-65.46-58.686-99.768-26.789-160.583
					c64.115-122.239,43.384-274.023-91.671-318.696c-133.292-44.089-292.745,129.47-353.388,435.593
					c-67.948,212.786-107.006,230.297-209.825,253.927c-72.017,16.555-278.243,13.725-309.406,138.928
					C2028.082,2371.371,1981.766,2475.462,1889.139,2466.283z"/>
				<g>
					<defs>
						<path id="SVGID_00000070810209551831866180000010904007030098718856_" d="M1682.304,2626.121l156.446,219.75
							c0,0,195.506-1.342,204.708-107.596c9.202-106.254,186.593-133.106,278.815-158.914
							c250.223-70.023,115.614-339.749,428.421-456.88c83.196-31.154,253.868-60.996,289.943-160.323
							c41.098-113.163-58.122-147.534-17.101-225.743c64.115-122.239,43.382-274.024-91.672-318.696
							c-133.292-44.09-292.745,129.47-353.388,435.591c-67.948,212.788-107.007,230.297-209.824,253.929
							c-72.018,16.552-278.244,13.726-309.406,138.928c-31.162,125.203-77.478,229.293-170.106,220.116
							C1748.196,2452.321,1682.304,2626.121,1682.304,2626.121z"/>
					</defs>
					<clipPath id="SVGID_00000006694140262469923640000007596663155666629308_">
						<use xlink:href="#SVGID_00000070810209551831866180000010904007030098718856_"  style="overflow:visible;"/>
					</clipPath>
					<g style="opacity:0.5;clip-path:url(#SVGID_00000006694140262469923640000007596663155666629308_);">
						<path style="fill:#FCFDFE;" d="M1762.079,2717.5l2.564,4.692c26.039-13.917,52.111-28.299,77.492-42.745
							c187.912-106.97,358.141-228.947,505.957-362.552c125.249-113.208,236.196-236.325,329.762-365.932
							c75.244-104.229,139.707-213.205,191.596-323.897c36.475-77.816,66.411-155.67,88.966-231.402
							c3.933-13.196,7.225-26.972,10.408-40.294c4.24-17.749,8.626-36.104,14.565-53.229l-4.784-2.063
							c-6.021,17.361-10.438,35.838-14.708,53.708c-3.167,13.256-6.443,26.963-10.335,40.026
							c-22.485,75.494-52.328,153.116-88.703,230.711c-51.759,110.419-116.071,219.133-191.141,323.123
							c-93.373,129.34-204.1,252.211-329.108,365.201c-147.566,133.379-317.524,255.161-505.146,361.964
							C1814.12,2689.24,1788.085,2703.601,1762.079,2717.5z"/>
						<path style="fill:#FCFDFE;" d="M2553.26,2099.981l3.791,3.742c144.3-157.685,510.48-203.222,514.162-203.662l-0.921-5.21
							C3066.593,1895.295,2698.716,1941.033,2553.26,2099.981z"/>
						<path style="fill:#FCFDFE;" d="M2109.694,2501.723l3.374,4.142c111.005-94.398,106.561-389.709,106.504-392.681l-5.068-0.256
							C2214.561,2115.876,2218.965,2408.801,2109.694,2501.723z"/>
						<path style="fill:#FCFDFE;" d="M2041.849,2549.319l2.655,4.644c82.761-46.608,222.799-62.595,394.316-45.012
							c8.625,0.884,8.625,0.884,9.451,0.434l-2.601-4.675l1.301,2.337l-0.389-2.601c-0.576,0.009-3.832-0.324-7.608-0.713
							C2266.478,2486.052,2125.445,2502.239,2041.849,2549.319z"/>
						<path style="fill:#FCFDFE;" d="M1809.205,2691.379l3.776,3.754c71.311-77.255,45.577-240.717,45.31-242.357l-4.995,0.522
							C1853.559,2454.916,1878.882,2615.893,1809.205,2691.379z"/>
						<path style="fill:#FCFDFE;" d="M1764.747,2725.113c84.83-10.208,176.952,4.71,281.632,45.611l1.499-4.892
							c-105.485-41.212-198.4-56.234-284.055-45.927L1764.747,2725.113z"/>
						<path style="fill:#FCFDFE;" d="M2833.23,1689.122l3.972,3.528c75.186-92.645,176.182-170.419,209.37-195.976
							c8.034-6.188,10.854-8.375,11.697-9.323l-3.838-3.688c-0.653,0.714-5.245,4.251-11.061,8.728
							C3010.076,1518.031,2908.76,1596.054,2833.23,1689.122z"/>
						<path style="fill:#FCFDFE;" d="M2733.816,1860.045l4.723,2.23c41.16-106.323-51.007-327.145-54.95-336.494l-4.623,1.814
							C2679.923,1529.863,2774.208,1755.708,2733.816,1860.045z"/>
					</g>
				</g>
			</g>
			<g>
				
					<linearGradient id="SVGID_00000072977660238338682510000010493824856361493169_" gradientUnits="userSpaceOnUse" x1="1222.1012" y1="1946.5428" x2="1027.1716" y2="70.3365" gradientTransform="matrix(0.9832 -0.1828 0.1828 0.9832 776.7138 310.6736)">
					<stop  offset="0.0036" style="stop-color:#E38DDD"/>
					<stop  offset="1" style="stop-color:#9571F6"/>
				</linearGradient>
				<path style="fill:url(#SVGID_00000072977660238338682510000010493824856361493169_);" d="M1821.463,2407.06
					c13.086,13.067-71.344,172.498,57.125,140.349c32.096-8.032,124.147-60.262,211.291,44.157
					c16.916,20.269,33.835,40.538,50.75,60.807c60.742-18.403,114.581-47.001,83.433-124.165
					c-48.375-119.832,115.481-247.141,195.093-264.305c98.533-21.247,326.675-75.499,254.739-261.765
					c-59.885-155.067-129.537-244.703,18.989-370.683c148.527-125.982,176.558-287.815,52.81-428.309
					c-130.225-147.849-31.629-423.911-196.379-501.27c-287.071-134.789-473.672,324.045-363.677,668.238
					c109.994,344.19-102.786,259.589-235.595,348.183c-11.863,8.923-29.566,23.671-47.157,45.044
					c-108.296,131.592-24.526,286.242-55.958,467.741C1804.06,2478.612,1799.417,2385.046,1821.463,2407.06z"/>
				<g>
					<defs>
						<path id="SVGID_00000055683100945944655100000016664506121771679118_" d="M1829.295,2332.763l265.099,336.21
							c60.894-15.273,164.46-54.571,129.666-140.763c-48.373-119.833,115.482-247.141,195.093-264.307
							c98.533-21.246,326.676-75.498,254.74-261.766c-59.885-155.066-129.537-244.7,18.989-370.682
							c148.526-125.982,176.556-287.816,52.809-428.31c-130.225-147.848-31.627-423.911-196.38-501.268
							c-287.071-134.791-473.67,324.044-363.677,668.236c109.994,344.191-102.784,259.59-235.595,348.184
							c-181.315,120.95,46.484,338.578,28.653,454.862C1964.715,2264.321,1883.608,2310.503,1829.295,2332.763z"/>
					</defs>
					<clipPath id="SVGID_00000114752494762646884390000010170900559934868381_">
						<use xlink:href="#SVGID_00000055683100945944655100000016664506121771679118_"  style="overflow:visible;"/>
					</clipPath>
					<g style="opacity:0.5;clip-path:url(#SVGID_00000114752494762646884390000010170900559934868381_);">
						<path style="fill:#FCFDFE;" d="M2004.623,2452.336l6.98,6.12c417.961-485.652,586.202-1185.99,439.064-1827.71l-8.788,1.53
							C2588.397,1271.293,2420.849,1968.701,2004.623,2452.336z"/>
						<path style="fill:#FCFDFE;" d="M2208.664,2166.668l5.712,7.311c200.628-152.392,497.559-91.403,500.536-90.768l1.383-8.829
							C2713.282,2073.737,2412.456,2011.876,2208.664,2166.668z"/>
						<path style="fill:#FCFDFE;" d="M2078.951,2360.753l8.344,3.914c99.981-237.062-177.098-643.141-179.91-647.214l-7.329,4.833
							C1902.837,1726.316,2177.032,2128.199,2078.951,2360.753z"/>
						<path style="fill:#FCFDFE;" d="M2440.324,1576.981l8.022,4.599c95.485-179.653,402.329-251.542,405.417-252.249l-2.481-8.81
							C2848.156,1321.234,2537.573,1394.008,2440.324,1576.981z"/>
						<path style="fill:#FCFDFE;" d="M2493.663,1164.888l8.944-0.69c-31.901-237.081-283.608-450.623-286.154-452.752l-5.556,6.782
							C2213.411,720.328,2462.261,931.5,2493.663,1164.888z"/>
					</g>
				</g>
			</g>
		</g>
		<g>
			<g>
				<path style="fill:#97A6B7;" d="M2206.964,841.605L670.165,752.701c-35.395-1.728-67.257,36.898-67.257,69.33v1978.911
					c0,44.979,45.945,54.031,81.339,50.416l1522.716-155.511c27.815-2.841,50.271-28.294,50.271-56.863V895.787
					C2257.235,867.219,2234.779,842.963,2206.964,841.605z"/>
				<path style="fill:#D8DEE8;" d="M2232.24,825.886l-1539.834-75.75c-35.395-1.741-64.221,23.338-64.221,56.023v1994.373
					c0,32.685,28.826,56.215,64.221,52.572l1539.834-158.488c27.815-2.863,50.271-28.515,50.271-57.307V880.492
					C2282.51,851.7,2260.055,827.254,2232.24,825.886z"/>
				<path style="opacity:0.1;fill:#97A6B7;" d="M692.406,2826.058c-19.092,1.928-34.663-10.83-34.663-28.443V807.487
					c0-17.613,15.571-31.208,34.663-30.306l1539.834,72.738c15.036,0.71,27.242,13.961,27.242,29.538v1760.124
					c0,15.578-12.206,29.484-27.242,31.002L692.406,2826.058z"/>
				<polygon style="fill:#FFFFFF;" points="2132.995,2623.382 815.968,2750.276 815.968,914.211 2132.995,963.813 				"/>
				<path style="opacity:0.3;fill:#97A6B7;" d="M1606.224,972.799l-526.356,6.585l11.806-118.704
					c0.891-15.423,12.042-28.085,26.721-30.341l89.141-13.698c10.495-1.613,19.534-8.549,24.12-18.51l9.666-20.992l233.159,14.397
					L1606.224,972.799z"/>
				
					<linearGradient id="SVGID_00000054979610545606095320000008523732278071457423_" gradientUnits="userSpaceOnUse" x1="1079.8685" y1="789.0685" x2="1907.3409" y2="789.0685">
					<stop  offset="0" style="stop-color:#444B8C"/>
					<stop  offset="0.9964" style="stop-color:#26264F"/>
				</linearGradient>
				<path style="fill:url(#SVGID_00000054979610545606095320000008523732278071457423_);" d="M1887.302,895.789
					c-2.496-13.43-13.257-22.856-26.814-23.464l-84.106-3.769c-38.175-1.711-66.16-32.725-64.759-72.005l3.246-91.028
					c0.6-16.834-11.422-30.324-27.945-31.311l-27.633-1.651c-21.071-1.259-35.101-19.834-32.146-41.313
					c5.165-37.537-20.553-69.931-57.828-72.471c-37.567-2.56-72.628,26.141-78.221,64.158c-0.831,5.649-2.739,11.231-5.845,16.213
					c-8.68,13.925-23.891,21.591-38.787,20.701l-28.505-1.702c-17.271-1.032-33.684,11.091-38.059,28.148l-23.701,92.399
					c-10.25,39.961-48.916,68.837-89.972,66.997l-92.261-4.135c-15.11-0.677-29.939,8.129-36.898,21.938l-55.596,110.319
					c-4.553,9.035,1.053,18.795,10.976,19.125l800.096,26.575c8.757,0.291,16.187-8.44,14.575-17.118L1887.302,895.789z
					 M1557.976,637.562c-11.021-0.683-18.669-10.264-17.066-21.398c1.603-11.135,11.845-19.578,22.861-18.861
					c10.997,0.716,18.602,10.294,17.004,21.394C1579.178,629.797,1568.978,638.243,1557.976,637.562z"/>
				<path style="fill:#97A6B7;" d="M1892.042,898.257c-2.497-13.43-13.257-22.856-26.815-23.464l-84.106-3.77
					c-38.174-1.711-66.159-32.724-64.759-72.005l3.246-91.028c0.6-16.835-11.422-30.324-27.945-31.311l-27.633-1.651
					c-21.072-1.259-35.101-19.834-32.146-41.313c5.165-37.537-20.554-69.931-57.828-72.471c-37.567-2.56-72.628,26.14-78.221,64.158
					c-0.831,5.649-2.739,11.232-5.844,16.213c-8.68,13.925-23.891,21.591-38.787,20.701l-28.505-1.703
					c-17.272-1.032-33.684,11.091-38.06,28.148l-23.701,92.399c-10.25,39.961-48.916,68.838-89.973,66.998l-92.261-4.135
					c-15.11-0.677-29.939,8.129-36.898,21.938l-55.596,110.319c-4.553,9.035,1.054,18.795,10.977,19.125l800.096,26.575
					c8.757,0.291,16.188-8.441,14.575-17.118L1892.042,898.257z M1562.715,640.029c-11.021-0.683-18.669-10.264-17.066-21.398
					c1.603-11.135,11.846-19.578,22.861-18.861c10.997,0.716,18.602,10.294,17.004,21.395
					C1583.917,632.264,1573.717,640.711,1562.715,640.029z"/>
				<g>
					<path style="opacity:0.5;fill:#FFFFFF;" d="M1755.115,948.952c-71.37-44.058-126.132-12.819-170.612-62.511
						c-47.617-53.196-15.501-123.227-64.769-156.274c-31.542-21.157-59.679-2.496-96.365-8.224
						c-13.432-2.096-27.768-7.436-42.663-17.843l-19.766,77.061c-10.25,39.961-48.916,68.836-89.972,66.998l-92.261-4.135
						c-15.11-0.677-29.939,8.13-36.898,21.938l-55.596,110.319c-4.553,9.034,1.054,18.795,10.977,19.123l727.122,24.152
						C1805.996,990.468,1783.245,966.316,1755.115,948.952z"/>
				</g>
			</g>
			<g>
				<polygon style="fill:#D8DEE8;" points="2062.899,1193.791 1440.023,1185.998 1440.023,1131.438 2062.899,1141.387 				"/>
				<polygon style="fill:#D8DEE8;" points="2062.899,1302.092 1440.023,1298.754 1440.023,1244.194 2062.899,1249.688 				"/>
				<polygon style="fill:#D8DEE8;" points="2062.899,1690.96 888.625,1718.067 888.625,1661.595 2062.899,1638.556 				"/>
				<polygon style="fill:#D8DEE8;" points="2062.899,1799.262 888.625,1834.775 888.625,1778.304 2062.899,1746.858 				"/>
				<polygon style="fill:#D8DEE8;" points="2062.899,1907.563 888.625,1951.483 888.625,1895.012 2062.899,1855.159 				"/>
				<polygon style="fill:#D8DEE8;" points="2062.899,2015.865 888.625,2068.191 888.625,2011.72 2062.899,1963.461 				"/>
				<polygon style="fill:#D8DEE8;" points="2062.899,2187.051 888.625,2252.665 888.625,2196.194 2062.899,2134.647 				"/>
				<polygon style="fill:#D8DEE8;" points="2062.899,2295.353 888.625,2369.373 888.625,2312.902 2062.899,2242.949 				"/>
				<polygon style="fill:#D8DEE8;" points="2062.899,2403.654 888.625,2486.081 888.625,2429.61 2062.899,2351.25 				"/>
				<polygon style="fill:#D8DEE8;" points="2062.899,2511.956 888.625,2602.789 888.625,2546.318 2062.899,2459.552 				"/>
				<g>
					<polygon style="fill:#D8DEE8;" points="1371.949,1524.217 888.625,1529.828 888.625,1081.82 1371.949,1089.514 					"/>
					<path style="fill:#FFFFFF;" d="M1228.816,1237.154c0,51.573-41.552,93.351-93.107,93.315
						c-51.889-0.037-94.2-42.365-94.2-94.542s42.311-93.951,94.2-93.308C1187.264,1143.259,1228.816,1185.582,1228.816,1237.154z"/>
					<path style="fill:#FFFFFF;" d="M1306.98,1488.314c-19.334-76.535-88.334-133.198-171.271-133.128
						c-83.799,0.07-154.868,57.945-175.005,136.324L1306.98,1488.314z"/>
				</g>
			</g>
		</g>
		<g>
			<path style="fill:#D8DEE8;" d="M2475.418,2811.77c-4.583-0.028-8.967-0.144-13.152-0.348
				c-165.834-8.088-585.616,3.567-691.636-361.537c-97.424-335.323,350.452-820.36,424.11-897.183
				c6.543-6.835,10.134-10.431,10.134-10.431s-17.765-14.459,355.966-10.639c412.38,349.447,467.398,612.853,467.398,612.853
				C3138.529,2684.059,2653.482,2813.137,2475.418,2811.77z"/>
			<path style="opacity:0.5;fill:#D8DEE8;" d="M2475.418,2811.77c-4.583-0.028-8.967-0.144-13.152-0.348
				c-165.834-8.088-585.616,3.567-691.636-361.537c-97.424-335.323,350.452-820.36,424.11-897.183
				c17.912-1.891,34.998-0.211,51.036,5.642C2251.91,1560.594,1322.643,2637.156,2475.418,2811.77z"/>
			<path style="fill:#97A6B7;" d="M2147.688,1257.048c0,0,75.34-114.918,171.43-66.54s173.615,84.928,226.969,56.322
				s81.677-51.957,92.747,17.124c11.07,69.081-193.562,227.628-193.562,227.628S2145.167,1476.946,2147.688,1257.048z"/>
			<path style="opacity:0.5;fill:#D8DEE8;" d="M2145.156,1308.952c0,0,75.34-114.918,171.43-66.54
				c96.09,48.378,173.615,84.928,226.969,56.322c53.355-28.607,81.677-51.957,92.747,17.124
				c11.07,69.081-193.562,227.628-193.562,227.628S2142.636,1528.85,2145.156,1308.952z"/>
			<path style="fill:#D8DEE8;" d="M2644.575,1449.545c-29.851,40.004-64.054,73.878-93.344,87.082
				c-36.74,16.549-101.124,24.529-164.931,26.068c-63.841,1.504-127.139-3.438-161.544-12.724l-0.063-0.035
				c-8.538-2.303-15.273-4.876-19.819-7.665c0,0-103.7-183.968-101.261-267.32c0.738-26.467,12.199-42.784,41.029-39.883
				c119.76,12.052,119.219,79.142,201.976,64.447c82.759-14.693,148.847-136.305,199.462-52.673
				c50.616,83.6,114.886-28.736,162.179,11.031C2738.778,1283.522,2698.919,1376.691,2644.575,1449.545z"/>
			<path style="fill:#97A6B7;" d="M2198.809,1531.226c0,0,217.855,74.104,366.397-2.215c11.679,16.328,17.899,21.702,17.899,21.702
				s-110.869,91.74-394.589,8.537C2188.516,1559.25,2196.496,1539.072,2198.809,1531.226z"/>
			<path style="opacity:0.5;fill:#D8DEE8;" d="M2644.575,1449.545c-29.851,40.004-64.054,73.878-93.344,87.082
				c-36.74,16.549-101.124,24.529-164.931,26.068l-161.544-12.724l-0.063-0.035c-8.538-2.303-15.273-4.876-19.819-7.665
				c0,0-103.7-183.968-101.261-267.32c1.433-1.394,47.894-45.921,95.987,56.741c48.894,104.261,64.038,193.805,129.896,154.257
				c65.892-39.58,172.456-202.368,185.929-122.596c13.442,79.77-54.072,152.601-6.94,142.315
				C2545.23,1497.639,2617.749,1446.871,2644.575,1449.545z"/>
			<g style="opacity:0.9;">
				
					<linearGradient id="SVGID_00000031165874604522026400000016816873756709596555_" gradientUnits="userSpaceOnUse" x1="2321.4702" y1="1866.2892" x2="2517.2178" y2="2599.9167" gradientTransform="matrix(0.9988 0.0487 -0.0487 0.9988 144.4006 -146.0333)">
					<stop  offset="0.0036" style="stop-color:#EBEFF2"/>
					<stop  offset="1" style="stop-color:#FFFFFF"/>
				</linearGradient>
				<path style="fill:url(#SVGID_00000031165874604522026400000016816873756709596555_);" d="M2470.069,1823.76L2470.069,1823.76
					c13.64,0.18,24.61,10.121,24.534,22.221l-0.261,41.42c27.318,0.705,54.627,2.894,81.936,6.556
					c20.113,2.697,40.073,6.192,59.885,10.481c11.864,2.569,19.968,12.527,18.789,23.508l-5.654,52.635
					c-1.506,14.02-17.038,23.381-31.696,18.715c-13.129-4.18-26.595-7.594-40.404-10.24c-24.114-4.62-49.578-6.903-76.425-6.832
					l-7.027,0.019l-0.761,120.977c72.018,12.161,124.78,32,158.888,59.559c33.979,27.454,51.041,63.841,51.282,109.408
					c0.263,49.534-18.347,91.063-56.144,124.667c-38.225,33.983-92.13,56.138-162.161,66.289l-0.324,48.967
					c-0.086,13.049-11.647,24.306-25.86,25.13l-0.456,0.027c-14.253,0.826-25.738-9.15-25.614-22.268l0.456-48.393l-11.43,0.581
					c-33.063,1.68-64.775,1.537-95.099-0.443c-22.488-1.469-44.453-4.013-65.885-7.637c-12.97-2.193-21.702-12.508-20.268-24.553
					l8.567-71.957c1.842-15.478,19.286-25.89,35.515-21.565c18.907,5.039,38.057,8.999,57.444,11.884
					c30.179,4.492,60.76,6.383,91.72,5.694l1.759-138.556c-70.004-9.618-122.373-28.151-156.533-55.579
					c-34.286-27.531-50.984-64.853-50.001-111.706c1.012-48.232,20.593-86.678,58.449-115.304
					c37.461-28.329,90.067-44.811,157.401-49.617l0.385-42.409C2445.186,1833.278,2456.391,1823.579,2470.069,1823.76z
					 M2443.812,1984.751c-21.386,2.973-38.133,9.391-50.199,19.27c-12.108,9.914-18.276,22.492-18.471,37.727
					c-0.186,14.457,5.236,26.126,16.257,34.98c11.007,8.843,28.163,15.248,51.405,19.208L2443.812,1984.751z M2486.412,2226.806
					l-0.838,126.846c23.61-2.031,41.71-8.676,54.351-19.909c12.594-11.192,18.898-25.973,18.946-44.348
					c0.044-16.722-5.724-30.074-17.313-40.09C2529.955,2239.278,2511.598,2231.781,2486.412,2226.806z"/>
			</g>
		</g>
		<g>
			<g>
				
					<linearGradient id="SVGID_00000111191105788215464290000013783025831468983457_" gradientUnits="userSpaceOnUse" x1="2456.0942" y1="1386.8428" x2="2222.1423" y2="1461.9249">
					<stop  offset="0" style="stop-color:#FCB148"/>
					<stop  offset="0.0521" style="stop-color:#FDBA46"/>
					<stop  offset="0.1424" style="stop-color:#FFC244"/>
					<stop  offset="0.3183" style="stop-color:#FFC444"/>
					<stop  offset="0.4849" style="stop-color:#FDB946"/>
					<stop  offset="0.7754" style="stop-color:#F99C4D"/>
					<stop  offset="0.8658" style="stop-color:#F8924F"/>
					<stop  offset="1" style="stop-color:#F8924F"/>
				</linearGradient>
				<path style="fill:url(#SVGID_00000111191105788215464290000013783025831468983457_);" d="M2725.423,1378.354
					c0,108.533-84.866,193.911-193.335,190.58c-112.884-3.467-207.823-100.959-207.823-217.625
					c0-116.666,94.939-201.357,207.823-189.603C2640.556,1173,2725.423,1269.82,2725.423,1378.354z"/>
				
					<linearGradient id="SVGID_00000147178624412412131820000007067897876808587967_" gradientUnits="userSpaceOnUse" x1="2645.3479" y1="1153.9669" x2="2436.4897" y2="1614.7466">
					<stop  offset="0" style="stop-color:#FFDB44"/>
					<stop  offset="1" style="stop-color:#FEEF06"/>
				</linearGradient>
				<path style="fill:url(#SVGID_00000147178624412412131820000007067897876808587967_);" d="M2754.733,1368.995
					c0,108.533-84.867,193.911-193.335,190.58c-112.884-3.467-207.823-100.958-207.823-217.625s94.939-201.357,207.823-189.603
					C2669.867,1163.642,2754.733,1260.462,2754.733,1368.995z"/>
				
					<linearGradient id="SVGID_00000068642960351914690800000016310827274692438457_" gradientUnits="userSpaceOnUse" x1="2606.9285" y1="1640.4999" x2="2566.6287" y2="1420.3446">
					<stop  offset="0" style="stop-color:#FCB148"/>
					<stop  offset="0.0521" style="stop-color:#FDBA46"/>
					<stop  offset="0.1424" style="stop-color:#FFC244"/>
					<stop  offset="0.3183" style="stop-color:#FFC444"/>
					<stop  offset="0.4849" style="stop-color:#FDB946"/>
					<stop  offset="0.7754" style="stop-color:#F99C4D"/>
					<stop  offset="0.8658" style="stop-color:#F8924F"/>
					<stop  offset="1" style="stop-color:#F8924F"/>
				</linearGradient>
				<path style="fill:url(#SVGID_00000068642960351914690800000016310827274692438457_);" d="M2746.219,1368.421
					c0,103.754-81.201,185.234-184.822,181.879c-107.642-3.485-198.018-96.526-198.018-207.689s90.376-192.017,198.018-180.989
					C2665.018,1172.239,2746.219,1264.667,2746.219,1368.421z"/>
				
					<linearGradient id="SVGID_00000059269350186295225220000007755083487809184935_" gradientUnits="userSpaceOnUse" x1="2521.4856" y1="1284.1543" x2="2687.5654" y2="1636.7103">
					<stop  offset="0" style="stop-color:#FCB148"/>
					<stop  offset="0.0521" style="stop-color:#FDBA46"/>
					<stop  offset="0.1424" style="stop-color:#FFC244"/>
					<stop  offset="0.3183" style="stop-color:#FFC444"/>
					<stop  offset="0.4849" style="stop-color:#FDB946"/>
					<stop  offset="0.7754" style="stop-color:#F99C4D"/>
					<stop  offset="0.8658" style="stop-color:#F8924F"/>
					<stop  offset="1" style="stop-color:#F8924F"/>
				</linearGradient>
				<path style="fill:url(#SVGID_00000059269350186295225220000007755083487809184935_);" d="M2740.122,1368.01
					c0,100.331-78.573,179.027-178.724,175.665c-103.904-3.489-191.035-93.351-191.035-200.593
					c0-107.242,87.132-185.356,191.035-174.835C2661.549,1178.389,2740.122,1267.68,2740.122,1368.01z"/>
				<g>
					
						<linearGradient id="SVGID_00000146495882165595348090000002766362345779178377_" gradientUnits="userSpaceOnUse" x1="2514.8689" y1="1208.2888" x2="2598.3794" y2="1521.2722">
						<stop  offset="0" style="stop-color:#FFDB44"/>
						<stop  offset="1" style="stop-color:#FEEF06"/>
					</linearGradient>
					<path style="fill:url(#SVGID_00000146495882165595348090000002766362345779178377_);" d="M2560.372,1202.381L2560.372,1202.381
						c5.33,0.507,9.643,5.304,9.643,10.717v18.472c10.656,1.19,21.328,3.043,32.015,5.554c7.88,1.852,15.707,4.056,23.481,6.612
						c4.658,1.531,7.832,6.234,7.357,11.085l-2.269,23.164c-0.602,6.146-6.677,9.755-12.396,7.204
						c-5.121-2.284-10.371-4.24-15.752-5.868c-9.39-2.841-19.292-4.693-29.712-5.552l-2.725-0.224v52.903
						c27.802,7.778,48.219,18.242,61.414,31.404c13.132,13.099,19.674,29.423,19.674,49.021c0,21.193-7.233,38.164-21.757,50.963
						c-14.602,12.867-35.073,20.104-61.547,21.67v20.389c0,5.415-4.317,9.632-9.651,9.421l-0.171-0.007
						c-5.345-0.213-9.685-4.79-9.685-10.223v-20.112l-4.296-0.194c-12.41-0.56-24.298-1.826-35.656-3.801
						c-8.411-1.463-16.625-3.352-24.64-5.667c-4.847-1.4-8.174-6.017-7.73-10.978l2.669-29.777
						c0.577-6.437,7.043-10.183,13.164-7.768c7.135,2.814,14.358,5.185,21.67,7.113c11.395,3.005,22.944,4.932,34.646,5.788
						l0.172-58.848c-26.687-6.603-46.666-16.384-59.793-29.339c-13.188-13.016-19.806-29.674-19.806-49.927
						c0-20.959,7.175-37.138,21.472-48.493c14.224-11.297,34.444-16.917,60.53-16.903v-18.885
						C2550.696,1205.863,2555.032,1201.873,2560.372,1202.381z M2550.696,1272.998c-8.248,0.6-14.679,2.865-19.282,6.798
						c-4.611,3.94-6.919,9.235-6.919,15.88c0,6.295,2.135,11.558,6.401,15.782c4.259,4.218,10.865,7.585,19.801,10.101V1272.998z
						 M2567.8,1379.558v53.965c8.966,0.018,15.841-2.123,20.64-6.416c4.791-4.286,7.184-10.339,7.184-18.166
						c0-7.136-2.224-13.055-6.676-17.761C2584.488,1386.467,2577.446,1382.593,2567.8,1379.558z"/>
				</g>
				
					<linearGradient id="SVGID_00000155849635130569229970000014415459735011338421_" gradientUnits="userSpaceOnUse" x1="2472.6252" y1="1306.97" x2="2638.3701" y2="1658.8147">
					<stop  offset="0" style="stop-color:#FCB148"/>
					<stop  offset="0.0521" style="stop-color:#FDBA46"/>
					<stop  offset="0.1424" style="stop-color:#FFC244"/>
					<stop  offset="0.3183" style="stop-color:#FFC444"/>
					<stop  offset="0.4849" style="stop-color:#FDB946"/>
					<stop  offset="0.7754" style="stop-color:#F99C4D"/>
					<stop  offset="0.8658" style="stop-color:#F8924F"/>
					<stop  offset="1" style="stop-color:#F8924F"/>
				</linearGradient>
				<path style="opacity:0.3;fill:url(#SVGID_00000155849635130569229970000014415459735011338421_);" d="M2529.056,1392.58
					c6.038-59.64,60.85-84.887,53.697-139.746c-4.409-33.812-30.036-62.307-58.625-84.556
					c-86.713,9.094-153.765,80.895-153.765,174.805c0,107.242,87.132,197.104,191.035,200.592
					c10.088,0.339,19.941-0.186,29.522-1.442C2549.655,1501.172,2523.868,1443.818,2529.056,1392.58z"/>
			</g>
		</g>
		<g>
			<g>
				
					<linearGradient id="SVGID_00000149356024870890060930000012077162645237756571_" gradientUnits="userSpaceOnUse" x1="2691.7153" y1="852.5392" x2="2324.0012" y2="970.5497">
					<stop  offset="0" style="stop-color:#FCB148"/>
					<stop  offset="0.0521" style="stop-color:#FDBA46"/>
					<stop  offset="0.1424" style="stop-color:#FFC244"/>
					<stop  offset="0.3183" style="stop-color:#FFC444"/>
					<stop  offset="0.4849" style="stop-color:#FDB946"/>
					<stop  offset="0.7754" style="stop-color:#F99C4D"/>
					<stop  offset="0.8658" style="stop-color:#F8924F"/>
					<stop  offset="1" style="stop-color:#F8924F"/>
				</linearGradient>
				<path style="fill:url(#SVGID_00000149356024870890060930000012077162645237756571_);" d="M3115.032,839.196
					c0,170.587-133.389,304.779-303.875,299.544c-177.425-5.448-326.646-158.682-326.646-342.052
					c0-183.37,149.221-316.483,326.646-298.008C2981.644,516.432,3115.032,668.609,3115.032,839.196z"/>
				
					<linearGradient id="SVGID_00000074430337831807574660000015769094918205990304_" gradientUnits="userSpaceOnUse" x1="2989.1746" y1="486.5166" x2="2660.9021" y2="1210.7471">
					<stop  offset="0" style="stop-color:#FFDB44"/>
					<stop  offset="1" style="stop-color:#FEEF06"/>
				</linearGradient>
				<path style="fill:url(#SVGID_00000074430337831807574660000015769094918205990304_);" d="M3161.101,824.488
					c0,170.587-133.389,304.779-303.875,299.544c-177.426-5.448-326.646-158.682-326.646-342.052
					c0-183.37,149.221-316.483,326.646-298.009C3027.712,501.723,3161.101,653.901,3161.101,824.488z"/>
				
					<linearGradient id="SVGID_00000095333603323654893710000005066781251928654014_" gradientUnits="userSpaceOnUse" x1="2928.7888" y1="1251.2247" x2="2865.4478" y2="905.1958">
					<stop  offset="0" style="stop-color:#FCB148"/>
					<stop  offset="0.0521" style="stop-color:#FDBA46"/>
					<stop  offset="0.1424" style="stop-color:#FFC244"/>
					<stop  offset="0.3183" style="stop-color:#FFC444"/>
					<stop  offset="0.4849" style="stop-color:#FDB946"/>
					<stop  offset="0.7754" style="stop-color:#F99C4D"/>
					<stop  offset="0.8658" style="stop-color:#F8924F"/>
					<stop  offset="1" style="stop-color:#F8924F"/>
				</linearGradient>
				<path style="fill:url(#SVGID_00000095333603323654893710000005066781251928654014_);" d="M3147.719,823.585
					c0,163.075-127.628,291.141-290.493,285.868c-169.186-5.478-311.235-151.715-311.235-326.434s142.049-301.803,311.235-284.469
					C3020.091,515.236,3147.719,660.51,3147.719,823.585z"/>
				
					<linearGradient id="SVGID_00000133488722913820619200000013431473330052595892_" gradientUnits="userSpaceOnUse" x1="2794.4941" y1="691.1387" x2="3055.5303" y2="1245.2686">
					<stop  offset="0" style="stop-color:#FCB148"/>
					<stop  offset="0.0521" style="stop-color:#FDBA46"/>
					<stop  offset="0.1424" style="stop-color:#FFC244"/>
					<stop  offset="0.3183" style="stop-color:#FFC444"/>
					<stop  offset="0.4849" style="stop-color:#FDB946"/>
					<stop  offset="0.7754" style="stop-color:#F99C4D"/>
					<stop  offset="0.8658" style="stop-color:#F8924F"/>
					<stop  offset="1" style="stop-color:#F8924F"/>
				</linearGradient>
				<path style="fill:url(#SVGID_00000133488722913820619200000013431473330052595892_);" d="M3138.135,822.94
					c0,157.695-123.496,281.385-280.909,276.101c-163.31-5.483-300.259-146.724-300.259-315.281s136.949-291.333,300.259-274.796
					C3014.639,524.903,3138.135,665.245,3138.135,822.94z"/>
				<g>
					
						<linearGradient id="SVGID_00000082368254560062241890000005916777749806180750_" gradientUnits="userSpaceOnUse" x1="2784.094" y1="571.8971" x2="2915.3521" y2="1063.8287">
						<stop  offset="0" style="stop-color:#FFDB44"/>
						<stop  offset="1" style="stop-color:#FEEF06"/>
					</linearGradient>
					<path style="fill:url(#SVGID_00000082368254560062241890000005916777749806180750_);" d="M2855.614,562.611L2855.614,562.611
						c8.377,0.797,15.157,8.337,15.157,16.844v29.034c16.749,1.87,33.523,4.782,50.32,8.73c12.385,2.911,24.687,6.376,36.906,10.393
						c7.322,2.407,12.31,9.799,11.564,17.423l-3.566,36.408c-0.946,9.66-10.495,15.332-19.484,11.324
						c-8.049-3.589-16.301-6.664-24.758-9.223c-14.759-4.465-30.322-7.377-46.7-8.727l-4.282-0.353v83.15
						c43.697,12.225,75.789,28.672,96.528,49.359c20.639,20.587,30.922,46.246,30.922,77.049c0,33.31-11.369,59.984-34.197,80.1
						c-22.95,20.223-55.127,31.598-96.736,34.06v32.046c0,8.511-6.785,15.14-15.169,14.807l-0.269-0.011
						c-8.401-0.334-15.223-7.528-15.223-16.069v-31.612l-6.753-0.305c-19.506-0.88-38.19-2.87-56.042-5.975
						c-13.22-2.3-26.131-5.268-38.728-8.907c-7.618-2.201-12.848-9.458-12.149-17.255l4.196-46.801
						c0.907-10.118,11.07-16.005,20.69-12.21c11.214,4.423,22.568,8.149,34.06,11.18c17.909,4.723,36.062,7.752,54.455,9.097
						l0.27-92.493c-41.945-10.379-73.348-25.752-93.98-46.114c-20.729-20.458-31.129-46.64-31.129-78.473
						c0-32.943,11.278-58.372,33.748-76.218c22.356-17.756,54.137-26.59,95.138-26.568v-29.683
						C2840.405,568.085,2847.221,561.813,2855.614,562.611z M2840.405,673.604c-12.963,0.943-23.072,4.503-30.307,10.685
						c-7.247,6.193-10.875,14.515-10.875,24.96c0,9.895,3.356,18.166,10.06,24.806c6.694,6.629,17.077,11.922,31.122,15.877V673.604
						z M2867.288,841.09v84.82c14.092,0.028,24.898-3.337,32.442-10.084c7.531-6.736,11.291-16.25,11.291-28.552
						c0-11.217-3.495-20.519-10.493-27.916C2893.519,851.948,2882.449,845.86,2867.288,841.09z"/>
				</g>
				
					<linearGradient id="SVGID_00000119796537200775558970000005483787675581657786_" gradientUnits="userSpaceOnUse" x1="2717.698" y1="726.9992" x2="2978.2075" y2="1280.0112">
					<stop  offset="0" style="stop-color:#FCB148"/>
					<stop  offset="0.0521" style="stop-color:#FDBA46"/>
					<stop  offset="0.1424" style="stop-color:#FFC244"/>
					<stop  offset="0.3183" style="stop-color:#FFC444"/>
					<stop  offset="0.4849" style="stop-color:#FDB946"/>
					<stop  offset="0.7754" style="stop-color:#F99C4D"/>
					<stop  offset="0.8658" style="stop-color:#F8924F"/>
					<stop  offset="1" style="stop-color:#F8924F"/>
				</linearGradient>
				<path style="opacity:0.3;fill:url(#SVGID_00000119796537200775558970000005483787675581657786_);" d="M2806.392,861.556
					c9.491-93.739,95.64-133.421,84.398-219.646c-6.929-53.144-47.209-97.931-92.143-132.9
					c-136.291,14.293-241.68,127.146-241.68,274.749c0,168.558,136.949,309.798,300.259,315.281
					c15.856,0.532,31.342-0.292,46.401-2.266C2838.77,1032.236,2798.239,942.089,2806.392,861.556z"/>
			</g>
		</g>
		<g>
			
				<linearGradient id="SVGID_00000124872547858094607760000003772453372782859668_" gradientUnits="userSpaceOnUse" x1="2590.6267" y1="2662.9824" x2="2607.9651" y2="2404.8364" gradientTransform="matrix(-1 0 0 1 4310.5811 0)">
				<stop  offset="0" style="stop-color:#FFC444"/>
				<stop  offset="0.9964" style="stop-color:#F36F56"/>
			</linearGradient>
			<path style="fill:url(#SVGID_00000124872547858094607760000003772453372782859668_);" d="M1731.381,2426.123
				c0,0-46.293,13.517-51.213,83.38c7.57-0.546,25.219,0,25.219,0s-3.268-50.807,29.661-60.677
				C1732.399,2442.904,1731.381,2426.123,1731.381,2426.123z"/>
			
				<linearGradient id="SVGID_00000168087823360890321850000013364748362337599376_" gradientUnits="userSpaceOnUse" x1="2489.4097" y1="2575.0474" x2="2501.7368" y2="2391.5139" gradientTransform="matrix(-1 0 0 1 4310.5811 0)">
				<stop  offset="0.1" style="stop-color:#311944"/>
				<stop  offset="0.267" style="stop-color:#371B47"/>
				<stop  offset="0.4803" style="stop-color:#462150"/>
				<stop  offset="0.7186" style="stop-color:#612A5F"/>
				<stop  offset="0.9736" style="stop-color:#853774"/>
				<stop  offset="1" style="stop-color:#893976"/>
			</linearGradient>
			<path style="fill:url(#SVGID_00000168087823360890321850000013364748362337599376_);" d="M1901.235,2421.929
				c-1.155,12.72-2.308,25.44-3.462,38.159c-22.877-5.711-47.896-12.339-74.792-13.557c-34.97-1.584-67.021,1.943-95.567,8.072
				c-1.27-1.606-3.959-5.467-5.2-11.757c-1.998-10.134,1.349-18.544,1.969-20.042c14.541-4.67,30.309-8.586,47.206-11.252
				C1819.838,2403.906,1863.619,2411.49,1901.235,2421.929z"/>
			
				<linearGradient id="SVGID_00000031920348499502802240000008513467967991744644_" gradientUnits="userSpaceOnUse" x1="2415.4456" y1="2443.2" x2="2553.4514" y2="2517.189" gradientTransform="matrix(-1 0 0 1 4310.5811 0)">
				<stop  offset="0.1" style="stop-color:#311944"/>
				<stop  offset="0.267" style="stop-color:#371B47"/>
				<stop  offset="0.4803" style="stop-color:#462150"/>
				<stop  offset="0.7186" style="stop-color:#612A5F"/>
				<stop  offset="0.9736" style="stop-color:#853774"/>
				<stop  offset="1" style="stop-color:#893976"/>
			</linearGradient>
			<path style="fill:url(#SVGID_00000031920348499502802240000008513467967991744644_);" d="M1903.391,2432.95
				c-0.068-4.601-0.451-10.346-2.156-11.021c-1.606-0.636-3.766,3.524-4.695,5.835c-0.387,0.963-1.238,3.294-1.771,10.718
				c-0.687,9.571,0.114,14.262,0.848,17.159c0.44,1.742,1.13,4.381,2.156,4.447c0.823,0.054,1.539-1.613,2.607-4.839
				C1901.815,2450.903,1903.548,2443.654,1903.391,2432.95z"/>
			
				<linearGradient id="SVGID_00000086675642742138046000000012407150860429971110_" gradientUnits="userSpaceOnUse" x1="2374.3396" y1="2694.1226" x2="2394.0752" y2="2400.2837" gradientTransform="matrix(-1 0 0 1 4310.5811 0)">
				<stop  offset="0" style="stop-color:#FFC444"/>
				<stop  offset="0.9964" style="stop-color:#F36F56"/>
			</linearGradient>
			<path style="fill:url(#SVGID_00000086675642742138046000000012407150860429971110_);" d="M1945.555,2513.326
				c-9.591,1.645-32.912,6.567-32.912,6.567s15.206-44.685-13.464-65.31c-0.743-3.376-1.497-8.735-0.591-15.177
				c0.701-4.983,2.164-8.963,3.426-11.721C1914.184,2433.984,1940.68,2455.169,1945.555,2513.326z"/>
			
				<linearGradient id="SVGID_00000109750483420640381240000010649616605052352951_" gradientUnits="userSpaceOnUse" x1="2206.6211" y1="2670.8633" x2="2129.8755" y2="1969.3354" gradientTransform="matrix(-1 0 0 1 4310.5811 0)">
				<stop  offset="0.1" style="stop-color:#311944"/>
				<stop  offset="0.6853" style="stop-color:#6D2F66"/>
				<stop  offset="1" style="stop-color:#893976"/>
			</linearGradient>
			<path style="fill:url(#SVGID_00000109750483420640381240000010649616605052352951_);" d="M2143.928,2525.099
				c0,0-1.173-23.466-41.172-23.466c-6.3,4.277-6.614,23.466-6.614,23.466H2143.928z"/>
			
				<linearGradient id="SVGID_00000020388681454768733420000017897009461770301077_" gradientUnits="userSpaceOnUse" x1="2547.2537" y1="2965.147" x2="2030.7596" y2="2677.5532" gradientTransform="matrix(-1 0 0 1 4310.5811 0)">
				<stop  offset="0" style="stop-color:#311944"/>
				<stop  offset="1" style="stop-color:#893976"/>
			</linearGradient>
			<path style="fill:url(#SVGID_00000020388681454768733420000017897009461770301077_);" d="M2179.445,2986.407l-109.465,61.847
				l-66.324-227.131l109.284-304.503l30.989,8.479l47.019,437.32C2192.012,2972.318,2187.416,2981.903,2179.445,2986.407z"/>
			
				<linearGradient id="SVGID_00000160157654015720773490000001314471184481072042_" gradientUnits="userSpaceOnUse" x1="2081.6794" y1="2567.5662" x2="2236.0635" y2="2826.4563" gradientTransform="matrix(-1 0 0 1 4310.5811 0)">
				<stop  offset="0" style="stop-color:#311944"/>
				<stop  offset="1" style="stop-color:#893976"/>
			</linearGradient>
			<path style="opacity:0.3;fill:url(#SVGID_00000160157654015720773490000001314471184481072042_);" d="M2003.655,2821.122
				l109.285-304.502l30.988,8.479c-7.63,26.874-11.289,70.639-13.01,95c-7.326,103.673-31.657,132.524-19.87,204.848
				c9.8,60.137,31.202,68.299,29.332,108.759c-2.038,44.066-29.578,80.966-62.323,109.984l-8.077,4.563L2003.655,2821.122z"/>
			
				<linearGradient id="SVGID_00000007417868046401426960000012451043944477066629_" gradientUnits="userSpaceOnUse" x1="2508.2524" y1="2258.3098" x2="2564.3064" y2="3010.6143" gradientTransform="matrix(-1 0 0 1 4310.5811 0)">
				<stop  offset="0.1" style="stop-color:#311944"/>
				<stop  offset="0.6853" style="stop-color:#6D2F66"/>
				<stop  offset="1" style="stop-color:#893976"/>
			</linearGradient>
			<polygon style="fill:url(#SVGID_00000007417868046401426960000012451043944477066629_);" points="2112.94,2516.619 
				1511.887,2516.619 1417.261,2999.287 2069.98,3048.253 			"/>
			<g style="opacity:0.2;">
				
					<linearGradient id="SVGID_00000104690907591957659270000007793536918586600846_" gradientUnits="userSpaceOnUse" x1="2393.125" y1="2674.4207" x2="2846.9285" y2="3024.073" gradientTransform="matrix(-1 0 0 1 4310.5811 0)">
					<stop  offset="0" style="stop-color:#311944"/>
					<stop  offset="1" style="stop-color:#893976"/>
				</linearGradient>
				<path style="fill:url(#SVGID_00000104690907591957659270000007793536918586600846_);" d="M1511.887,2516.619h202.482
					c3.728,9.89,9.429,23.573,17.75,39.055c90.552,168.479,297.848,189.709,294.103,217.398
					c-5.598,41.386-467.211-17.358-478.997,39.51c-5.689,27.453,91.789,89.855,193.65,113.483
					c121.961,28.291,211.586-7.365,271.194,56.201c20.183,21.522,29.093,46.735,33.432,63.786l-628.24-46.765L1511.887,2516.619z"/>
			</g>
			
				<linearGradient id="SVGID_00000145043723176246883110000001369682749162372746_" gradientUnits="userSpaceOnUse" x1="2275.666" y1="2643.2695" x2="2468.5154" y2="2635.7803" gradientTransform="matrix(-1 0 0 1 4310.5811 0)">
				<stop  offset="0.1" style="stop-color:#311944"/>
				<stop  offset="0.6853" style="stop-color:#6D2F66"/>
				<stop  offset="1" style="stop-color:#893976"/>
			</linearGradient>
			<path style="fill:url(#SVGID_00000145043723176246883110000001369682749162372746_);" d="M2102.756,2501.633
				c6.771,0,16.238-0.787,26.534,4.853c2.198,1.204,4.139,2.529,5.843,3.876l-4.74-1.572c-7.625-2.087-18.14,0.69-22.066,7.83
				c-4.826,8.775-6.563,29.079-7.618,39.137c-3.001,28.611-21.448,206.623-21.448,206.623
				c-1.382,15.009-13.593,26.376-28.024,26.087l-559.099-27.14c-4.246-0.085-8.442-1.321-11.946-3.827
				c-7.309-5.23-10.611-14.302-8.916-22.921l28.324-212.012c2.395-12.186,12.663-20.932,24.571-20.932H2102.756z"/>
			
				<linearGradient id="SVGID_00000183966440829054667140000018302052469504420258_" gradientUnits="userSpaceOnUse" x1="2571.4038" y1="3240.7625" x2="2509.6882" y2="2547.2007" gradientTransform="matrix(-1 0 0 1 4310.5811 0)">
				<stop  offset="0.1" style="stop-color:#311944"/>
				<stop  offset="0.267" style="stop-color:#371B47"/>
				<stop  offset="0.4803" style="stop-color:#462150"/>
				<stop  offset="0.7186" style="stop-color:#612A5F"/>
				<stop  offset="0.9736" style="stop-color:#853774"/>
				<stop  offset="1" style="stop-color:#893976"/>
			</linearGradient>
			<path style="fill:url(#SVGID_00000183966440829054667140000018302052469504420258_);" d="M2096.772,2501.633
				c6.771,0,14.802-0.863,23.754,1.379c2.414,0.605,6.276,1.713,7.978,3.059c0,0-18.977-4.232-26.162,10.548
				c-4.386,9.023-6.563,29.079-7.618,39.137c-3.001,28.611-21.448,206.623-21.448,206.623
				c-1.382,15.009-13.593,26.376-28.024,26.087l-565.399-11.348c-4.246-0.085-8.442-1.321-11.945-3.827
				c-7.31-5.23-10.612-14.302-8.917-22.921l34.624-227.805c2.395-12.186,12.663-20.932,24.57-20.932H2096.772z"/>
			
				<linearGradient id="SVGID_00000158731067807852749720000001014021737665985432_" gradientUnits="userSpaceOnUse" x1="2601.7297" y1="3403.875" x2="2496.7485" y2="2444.2446" gradientTransform="matrix(-1 0 0 1 4310.5811 0)">
				<stop  offset="0" style="stop-color:#311944"/>
				<stop  offset="1" style="stop-color:#893976"/>
			</linearGradient>
			<path style="opacity:0.1;fill:url(#SVGID_00000158731067807852749720000001014021737665985432_);" d="M1458.992,2750.369
				l34.624-227.804c2.395-12.186,12.662-20.932,24.57-20.932h578.586c6.771,0,14.802-0.863,23.754,1.379
				c2.414,0.604,6.276,1.713,7.979,3.059c0,0-18.978-4.232-26.163,10.548c-0.691,1.422-1.321,3.14-1.906,5.029
				c-54.948,2.029-109.894,0.568-164.841,3.88c-108.619,6.375-218.459,6.375-320.976,47.173
				c-32.792,13.05-55.273,59.936-46.377,81.596c6.414,15.617,28.305,14.38,35.944,34.875c8.033,21.555-11.229,36.2-3.15,51.327
				c8.469,15.854,34.189,8.301,75.825,19.618c22.941,6.235,40.536,15.433,51.525,21.989l-248.532-4.988
				c-4.246-0.085-8.442-1.321-11.945-3.827C1460.599,2768.061,1457.297,2758.989,1458.992,2750.369z"/>
			<g>
				
					<linearGradient id="SVGID_00000015313401757440875230000016965827009713808266_" gradientUnits="userSpaceOnUse" x1="2758.5742" y1="2900.6812" x2="2423.8101" y2="2725.6909" gradientTransform="matrix(-1 0 0 1 4310.5811 0)">
					<stop  offset="0" style="stop-color:#FFC444"/>
					<stop  offset="0.9964" style="stop-color:#F36F56"/>
				</linearGradient>
				<path style="fill:url(#SVGID_00000015313401757440875230000016965827009713808266_);" d="M1729.573,2819.529l70.8,15.84
					l7.477,0.569c7.534,0.574,14.018-5.478,14.346-13.453l3.107-75.391c0.329-7.975-5.633-14.586-13.186-14.692l-7.515-0.105
					l-71.171,8.416c-6.799-0.094-12.526-3.459-12.834,4.02l-2.914,70.704C1717.374,2822.915,1722.791,2819.013,1729.573,2819.529z"
					/>
				
					<linearGradient id="SVGID_00000177450553313836330490000011370463189480329901_" gradientUnits="userSpaceOnUse" x1="2457.8088" y1="2752.5833" x2="2801.6838" y2="2875.6365" gradientTransform="matrix(-1 0 0 1 4310.5811 0)">
					<stop  offset="0" style="stop-color:#FFC444"/>
					<stop  offset="0.9964" style="stop-color:#F36F56"/>
				</linearGradient>
				<path style="fill:url(#SVGID_00000177450553313836330490000011370463189480329901_);" d="M1724.189,2829.97l78.44,5.968
					c7.534,0.574,14.018-5.478,14.346-13.453l3.107-75.391c0.329-7.975-5.633-14.586-13.186-14.692l-78.641-1.097
					c-6.799-0.095-12.571,5.948-12.88,13.427l-2.914,70.704C1712.154,2822.915,1717.408,2829.453,1724.189,2829.97z"/>
			</g>
		</g>
		<g>
			
				<linearGradient id="SVGID_00000091727490603316220560000017991650257961317052_" gradientUnits="userSpaceOnUse" x1="3275.4995" y1="2736.4844" x2="3401.8152" y2="3192.3193" gradientTransform="matrix(-1 0 0 1 4310.5811 0)">
				<stop  offset="0" style="stop-color:#311944"/>
				<stop  offset="1" style="stop-color:#893976"/>
			</linearGradient>
			<path style="fill:url(#SVGID_00000091727490603316220560000017991650257961317052_);" d="M912.542,2995.424
				c0,0-5.754,24.365-5.936,33.192c-0.184,8.828,92.806,21.133,94.254,14.629c1.448-6.503-14.12-18.34-25.358-22.998
				c-11.239-4.659-44.206-17.341-44.206-17.341L912.542,2995.424z"/>
			
				<linearGradient id="SVGID_00000047032145043067092540000005917330167178421385_" gradientUnits="userSpaceOnUse" x1="3386.4834" y1="3059.1602" x2="3388.3101" y2="2905.7249" gradientTransform="matrix(-1 0 0 1 4310.5811 0)">
				<stop  offset="0" style="stop-color:#FFC444"/>
				<stop  offset="0.9964" style="stop-color:#F36F56"/>
			</linearGradient>
			<path style="fill:url(#SVGID_00000047032145043067092540000005917330167178421385_);" d="M937.085,2972.707l-5.331,30.449
				c0,0-11.416,6.577-20.525,0l-2.217-33.814L937.085,2972.707z"/>
			
				<linearGradient id="SVGID_00000116222632335867380940000011046648326121716667_" gradientUnits="userSpaceOnUse" x1="3425.7073" y1="2692.603" x2="3552.0247" y2="3148.4446" gradientTransform="matrix(-1 0 0 1 4310.5811 0)">
				<stop  offset="0" style="stop-color:#311944"/>
				<stop  offset="1" style="stop-color:#893976"/>
			</linearGradient>
			<path style="fill:url(#SVGID_00000116222632335867380940000011046648326121716667_);" d="M742.948,3021.505
				c0,0-5.755,24.364-5.938,33.192c-0.183,8.827,92.808,21.132,94.255,14.629c1.448-6.503-14.12-18.34-25.358-22.999
				c-11.238-4.658-44.205-17.341-44.205-17.341L742.948,3021.505z"/>
			
				<linearGradient id="SVGID_00000065792264523698844520000002059750939376429715_" gradientUnits="userSpaceOnUse" x1="3556.3633" y1="3061.2778" x2="3558.1899" y2="2907.8406" gradientTransform="matrix(-1 0 0 1 4310.5811 0)">
				<stop  offset="0" style="stop-color:#FFC444"/>
				<stop  offset="0.9964" style="stop-color:#F36F56"/>
			</linearGradient>
			<path style="fill:url(#SVGID_00000065792264523698844520000002059750939376429715_);" d="M767.491,2998.789l-5.332,30.449
				c0,0-11.416,6.578-20.525,0l-2.216-33.814L767.491,2998.789z"/>
			
				<linearGradient id="SVGID_00000063615813241337235200000009269314120333937565_" gradientUnits="userSpaceOnUse" x1="3301.8506" y1="2565.6174" x2="3458.2593" y2="2565.6174" gradientTransform="matrix(-1 0 0 1 4310.5811 0)">
				<stop  offset="0" style="stop-color:#444B8C"/>
				<stop  offset="0.9964" style="stop-color:#26264F"/>
			</linearGradient>
			<path style="fill:url(#SVGID_00000063615813241337235200000009269314120333937565_);" d="M981.622,2169.883
				c9.036,23.752,18.072,47.504,27.108,71.255c-1.326,131.121-7.89,273.269-22.291,424.671
				c-10.714,112.642-24.684,219.029-40.669,318.651c-14.574-1.924-29.147-3.854-43.722-5.777
				c-17.788-45.625-37.66-114.155-33.667-196.361c4.165-85.749,29.864-95.029,34.572-177.072
				c6.102-106.336-34.341-138.228-47.249-267.83c-4.937-49.564-5.889-113.84,6.995-190.646
				C902.342,2154.476,941.981,2162.183,981.622,2169.883z"/>
			
				<linearGradient id="SVGID_00000060000617050898906470000000996468690405304760_" gradientUnits="userSpaceOnUse" x1="3301.8518" y1="2565.6174" x2="3458.2595" y2="2565.6174" gradientTransform="matrix(-1 0 0 1 4310.5811 0)">
				<stop  offset="0" style="stop-color:#444B8C"/>
				<stop  offset="0.9964" style="stop-color:#26264F"/>
			</linearGradient>
			<path style="opacity:0.3;fill:url(#SVGID_00000060000617050898906470000000996468690405304760_);" d="M862.701,2146.775
				c21.408,4.158,42.816,8.318,64.225,12.482c33.442,73.9,38.652,148.341,29.337,180.295
				c-13.177,45.211-39.83,57.816-41.972,104.135c-2.119,45.833,22.755,59.845,34.978,115.097
				c8.46,38.254,2.841,72.305-8.746,138.846c-23.337,134.035-57.74,172.742-34.976,219.233
				c6.469,13.209,18.713,29.322,44.078,42.964c-1.278,8.232-2.548,16.491-3.855,24.632c-14.574-1.921-29.147-3.854-43.722-5.775
				c-17.788-45.63-37.66-114.156-33.667-196.363c4.165-85.75,29.864-95.032,34.572-177.073
				c6.102-106.335-34.341-138.225-47.249-267.827C850.769,2287.858,849.816,2223.582,862.701,2146.775z"/>
			
				<linearGradient id="SVGID_00000077302449115019672080000014318186266651463079_" gradientUnits="userSpaceOnUse" x1="3431.6824" y1="3151.1682" x2="3496.9756" y2="2615.2205" gradientTransform="matrix(-1 0 0 1 4310.5811 0)">
				<stop  offset="0" style="stop-color:#444B8C"/>
				<stop  offset="0.9964" style="stop-color:#26264F"/>
			</linearGradient>
			<path style="fill:url(#SVGID_00000077302449115019672080000014318186266651463079_);" d="M920.426,2206.159
				c-29.101,113.668-56.459,235.639-80.461,365.412c-28.979,156.691-49.406,304.989-63.557,443.081
				c-16.091-0.866-32.183-1.74-48.275-2.607c-53.237-136.041-50.302-225.008-36.753-281.958
				c5.221-21.945,18.113-64.753,25.292-129.742c5.003-45.302,4.881-80.108,4.604-121.959c-0.607-91.761-8.302-112.426-4.28-182.238
				c3.772-65.518,6.055-98.639,25.411-116.462C793.404,2132.731,911.478,2200.876,920.426,2206.159z"/>
			
				<linearGradient id="SVGID_00000162336591304959217180000010911092552727284901_" gradientUnits="userSpaceOnUse" x1="2835.8" y1="1903.6576" x2="2983.9531" y2="2054.4561" gradientTransform="matrix(-1 0 0 1 4310.5811 0)">
				<stop  offset="0" style="stop-color:#FFC444"/>
				<stop  offset="0.9964" style="stop-color:#F36F56"/>
			</linearGradient>
			<path style="fill:url(#SVGID_00000162336591304959217180000010911092552727284901_);" d="M1387.62,1942.088
				c0,0,35.353-3.166,40.467-9.154c5.114-5.987,12.883-15.576,13.65-21.065c0.766-5.49,7.596,2.71,1.405,14.614
				c-6.192,11.904,11.375,9.383,14.117,9.095c6.304-0.661,30.35-1.397,29.657,0.157c-0.694,1.556,2.855,8.428-14.222,16.512
				c-14.95,7.076-32.747,2.47-42.466,2.957c-9.718,0.486-9.718,0.486-9.718,0.486l-25.775,2.053L1387.62,1942.088z"/>
			
				<linearGradient id="SVGID_00000008126182957736751210000011723831666511956409_" gradientUnits="userSpaceOnUse" x1="3548.9451" y1="1453.9438" x2="2833.5142" y2="2185.3906" gradientTransform="matrix(-1 0 0 1 4310.5811 0)">
				<stop  offset="0" style="stop-color:#FF9085"/>
				<stop  offset="1" style="stop-color:#FB6FBB"/>
			</linearGradient>
			<path style="fill:url(#SVGID_00000008126182957736751210000011723831666511956409_);" d="M1408.343,1924.833
				c1.557,12.311,3.114,24.621,4.671,36.931c-23.415,20.403-75.182,59.514-147.203,65.379
				c-126.967,10.347-252.877-87.816-276.319-198.224c-11.608-54.68-2.125-131.397,30.404-143.734
				c9.029-3.426,22.595-2.939,50.561,16.688c74.635,52.374,80.982,121.157,122.214,167.685
				C1222.345,1903.044,1280.689,1936.967,1408.343,1924.833z"/>
			
				<linearGradient id="SVGID_00000096026313289200205310000015788945124252026510_" gradientUnits="userSpaceOnUse" x1="1293.6975" y1="2576.6821" x2="779.2484" y2="1838.1162">
				<stop  offset="0" style="stop-color:#FF9085"/>
				<stop  offset="1" style="stop-color:#FB6FBB"/>
			</linearGradient>
			<path style="fill:url(#SVGID_00000096026313289200205310000015788945124252026510_);" d="M1068.173,2003.379
				c-11.285,37.352-19.575,60.945-29.786,79.586v0.036c-10.211,18.675-14.428,32.33-17.471,49.767
				c-1.52,8.489-2.26,17.862-2.155,29.181c0.212,20.268,3.079,36.786,5.378,50.971c3.466,21.399,5.589,37.387-4.917,52.632
				c-13.016,18.959-36.114,23.309-89.276,26.741c-135.544,8.772-203.315,13.159-222.522-23.734
				c-7.958-15.316-3.007-27.308,6.473-74.881c9.903-49.556,25.149-125.958,23.769-176.575
				c-1.026-37.776-11.423-64.976-24.335-87.579c-25.573-44.886-61.05-71.698-52.632-127.09
				c12.451-81.848,105.264-124.931,109.722-126.947c30.454-13.618,69.822-12.487,148.523-10.223
				c63.669,1.874,95.964,3.112,118.425,19.454c43.541,31.658,52.029,90.409,57.052,125.002
				C1104.891,1881.985,1086.92,1941.445,1068.173,2003.379z"/>
			
				<linearGradient id="SVGID_00000139292442414757072060000006060581011330007471_" gradientUnits="userSpaceOnUse" x1="3883.739" y1="2615.7747" x2="3329.9802" y2="1820.7739" gradientTransform="matrix(-1 0 0 1 4310.5811 0)">
				<stop  offset="0" style="stop-color:#FF9085"/>
				<stop  offset="1" style="stop-color:#FB6FBB"/>
			</linearGradient>
			<path style="fill:url(#SVGID_00000139292442414757072060000006060581011330007471_);" d="M833.845,2007.045
				c-7.338,21.315-28.966,35.883-47.218,87.694c-3.941,11.188-32.006,90.846-5.247,113.274c15.457,12.951,31.813-7.767,71.702-7.313
				c69.122,0.787,97.239,63.881,143.406,51.159c8.01-2.211,18.763-7.446,30.107-20.596c1.076,12.796-0.116,23.731-7.371,34.298
				c-13.005,18.937-36.11,23.293-89.279,26.735c-135.545,8.772-203.317,13.162-222.513-23.748
				c-7.964-15.313-3.023-27.287,6.472-74.87c9.888-49.557,25.137-125.963,23.754-176.586
				c-3.081-112.768-89.61-131.353-76.949-214.661c3.384-22.272,12.807-41.567,24.692-58.052
				C792.67,1800.524,856.908,1940.067,833.845,2007.045z"/>
			
				<linearGradient id="SVGID_00000139255040148801649870000010800141076600616114_" gradientUnits="userSpaceOnUse" x1="997.8171" y1="1784.389" x2="884.6714" y2="1621.952">
				<stop  offset="0" style="stop-color:#FFC444"/>
				<stop  offset="0.9964" style="stop-color:#F36F56"/>
			</linearGradient>
			<path style="fill:url(#SVGID_00000139255040148801649870000010800141076600616114_);" d="M999.06,1683.487
				c0.055-5.007-17.494-7.157-31.307-13.808c-17.465-8.406-25.05-46.043-20.594-62.465c4.456-16.423-25.972-24.867-25.972-24.867
				s-3.66,30.408-14.482,52.501c-9.779,19.969-53.876,30.165-62.966,34.044c-1.499,0.639-2.021,3.614-1.862,3.614
				c-0.059,0-0.1,0-0.1,0s0.043-0.751,0.112-0.646c0.268,1.357,1.487,2.566,3.471,4.319c9.193,11.58,37.157,41.026,95.479,61.507
				c34.96-22.991,58.922-40.743,58.238-54.02C999.075,1683.64,999.062,1683.513,999.06,1683.487z"/>
			
				<linearGradient id="SVGID_00000020374535677402764680000016772147604393393825_" gradientUnits="userSpaceOnUse" x1="3422.6177" y1="1681.5714" x2="3356.835" y2="1514.4955" gradientTransform="matrix(-1 0 0 1 4310.5811 0)">
				<stop  offset="0" style="stop-color:#444B8C"/>
				<stop  offset="0.9964" style="stop-color:#3E4177"/>
			</linearGradient>
			<path style="fill:url(#SVGID_00000020374535677402764680000016772147604393393825_);" d="M961.91,1574.622
				c14.112-12.332,16.058-13.747,17.84-18.269c7.146-18.15-4.727-44.818-22.387-52.617c-0.919-0.404-12.772-5.492-17.839-0.366
				c-4.303,4.352,1.003,11.305-2.448,20.098c-3.232,8.232-10.291,8.278-24.134,18.27c-11.404,8.227-18.491,13.343-20.637,21.193
				c-4.426,16.185,12.807,41.621,29.731,42.385C928.122,1605.589,930.021,1602.489,961.91,1574.622z"/>
			<g>
				
					<linearGradient id="SVGID_00000099656121528666902520000015443116480015863482_" gradientUnits="userSpaceOnUse" x1="780.6771" y1="1356.4623" x2="840.8087" y2="1787.9927" gradientTransform="matrix(-0.827 0.5622 0.5622 0.827 952.6273 289.0357)">
					<stop  offset="0" style="stop-color:#FFC444"/>
					<stop  offset="0.9964" style="stop-color:#F36F56"/>
				</linearGradient>
				<path style="fill:url(#SVGID_00000099656121528666902520000015443116480015863482_);" d="M923.492,1607.994
					c0,0,12.644,17.613,34.245,13.948c19.34-3.28,17.989-49.16,4.666-57.587c-4.444-2.81-12.873-3.314-19.445-0.659
					c-3.883,1.569-5.071,3.437-11.462,5.872c-5.894,2.245-7.667,1.717-9.343,3.505c-2.098,2.235-3.316,7.323,1.724,20.27
					c-4.075-3.556-8.671-4.613-11.685-2.74c-0.481,0.3-1.731,1.385-2.349,2.899C907.603,1598.985,912.768,1605.178,923.492,1607.994
					z"/>
			</g>
			<g>
				<g>
					
						<linearGradient id="SVGID_00000140003782709975960640000009670219661182005428_" gradientUnits="userSpaceOnUse" x1="4304.5869" y1="-132.1023" x2="4837.0645" y2="1636.3118" gradientTransform="matrix(0.9769 0.2136 -0.2136 0.9769 -2468.593 465.3314)">
						<stop  offset="0" style="stop-color:#444B8C"/>
						<stop  offset="0.9964" style="stop-color:#26264F"/>
					</linearGradient>
					<path style="fill:url(#SVGID_00000140003782709975960640000009670219661182005428_);" d="M2520.36,1832.141
						c-46.713,213.681-93.426,427.363-140.139,641.044c-372.974-296.474-880.481,22.455-1253.456-274.018
						c46.713-213.681,93.426-427.363,140.139-641.044C1639.878,1854.596,2147.385,1535.667,2520.36,1832.141z"/>
					
						<linearGradient id="SVGID_00000003790843627712911370000000507102631281162882_" gradientUnits="userSpaceOnUse" x1="1592.7666" y1="2309.3647" x2="2890.6902" y2="2309.3647" gradientTransform="matrix(0.8911 -0.4538 0.4538 0.8911 -1222.0315 975.075)">
						<stop  offset="0" style="stop-color:#444B8C"/>
						<stop  offset="0.9964" style="stop-color:#26264F"/>
					</linearGradient>
					<path style="fill:url(#SVGID_00000003790843627712911370000000507102631281162882_);" d="M2347.484,2394.211
						c-353.679-232.257-813.44,20.745-1167.118-211.512c39.758-181.868,79.516-363.735,119.275-545.603
						c353.679,232.257,813.44-20.745,1167.118,211.512C2427,2030.476,2387.242,2212.344,2347.484,2394.211z"/>
					<g>
						<g>
							
								<linearGradient id="SVGID_00000151542658655993970840000018092936745515966848_" gradientUnits="userSpaceOnUse" x1="3829.0608" y1="-42.6483" x2="4465.6689" y2="2071.5923" gradientTransform="matrix(0.9769 0.2136 -0.2136 0.9769 -2468.593 465.3314)">
								<stop  offset="0" style="stop-color:#444B8C"/>
								<stop  offset="0.9964" style="stop-color:#26264F"/>
							</linearGradient>
							<path style="fill:url(#SVGID_00000151542658655993970840000018092936745515966848_);" d="M1389.138,1676.911
								c-0.525,2.402-1.083,4.563-1.763,6.846c-0.063,0.2-0.115,0.385-0.178,0.585c-7.766,26.078-24.744,45.196-46.063,53.65
								c-18.619,7.414-40.521,6.555-62.414-5.201c-3.192-1.714-6.375-3.702-9.549-5.877c-12.006-8.221-22.827-19.181-32.197-31.882
								c9.977-45.637,19.953-91.273,29.93-136.91c39.645,31.513,80.81,56.074,123.172,75.159
								C1392.683,1646.684,1392.287,1662.511,1389.138,1676.911z"/>
							
								<linearGradient id="SVGID_00000034077127246612014920000003603479060841495473_" gradientUnits="userSpaceOnUse" x1="3637.4482" y1="-135.3018" x2="4307.5049" y2="2090.0244" gradientTransform="matrix(0.9769 0.2136 -0.2136 0.9769 -2468.593 465.3314)">
								<stop  offset="0" style="stop-color:#444B8C"/>
								<stop  offset="0.9964" style="stop-color:#26264F"/>
							</linearGradient>
							<path style="fill:url(#SVGID_00000034077127246612014920000003603479060841495473_);" d="M1267.081,2235.24
								c-3.277,14.996-9.223,26.932-17.811,38.785c-42.127-19.042-83.068-43.51-122.505-74.858
								c10.208-46.697,20.417-93.394,30.625-140.091c11.326,3.76,23.23,9.776,35.233,17.996c3.174,2.174,6.292,4.466,9.337,6.847
								c45.442,35.569,74.935,92.717,66.232,145.482c-0.026,0.199-0.068,0.404-0.102,0.618
								C1267.813,2231.744,1267.447,2233.57,1267.081,2235.24z"/>
						</g>
						<g>
							
								<linearGradient id="SVGID_00000147216059273210414050000010112001705530974134_" gradientUnits="userSpaceOnUse" x1="4859.6094" y1="-502.788" x2="5526.4175" y2="1711.7498" gradientTransform="matrix(0.9769 0.2136 -0.2136 0.9769 -2468.593 465.3314)">
								<stop  offset="0" style="stop-color:#444B8C"/>
								<stop  offset="0.9964" style="stop-color:#26264F"/>
							</linearGradient>
							<path style="fill:url(#SVGID_00000147216059273210414050000010112001705530974134_);" d="M2520.36,1832.141
								c-9.977,45.637-19.953,91.273-29.93,136.91c-11.326-3.761-23.23-9.775-35.233-17.996c-3.175-2.175-6.292-4.465-9.337-6.847
								c-44.97-35.21-74.37-91.339-66.53-143.661c0.352-2.442,0.708-4.465,1.235-6.866c3.145-14.392,9.151-27.83,16.623-36.699
								C2439.55,1776.067,2480.715,1800.627,2520.36,1832.141z"/>
							
								<linearGradient id="SVGID_00000170980658813510522870000008471096288761718975_" gradientUnits="userSpaceOnUse" x1="4692.6841" y1="-515.0224" x2="5332.7124" y2="1610.5778" gradientTransform="matrix(0.9769 0.2136 -0.2136 0.9769 -2468.593 465.3314)">
								<stop  offset="0" style="stop-color:#444B8C"/>
								<stop  offset="0.9964" style="stop-color:#26264F"/>
							</linearGradient>
							<path style="fill:url(#SVGID_00000170980658813510522870000008471096288761718975_);" d="M2410.846,2333.094
								c-10.208,46.697-20.417,93.394-30.625,140.091c-39.437-31.348-80.378-55.815-122.505-74.858
								c-2.328-16.779-2.49-31.312,0.793-46.317c0.366-1.67,0.794-3.471,1.252-5.117c0.061-0.201,0.104-0.408,0.162-0.591
								c6.898-25.066,22.189-44.013,41.738-53.689c19.639-9.705,43.531-9.904,67.398,2.913c3.192,1.714,6.394,3.607,9.57,5.781
								C2390.631,2309.528,2401.474,2320.393,2410.846,2333.094z"/>
						</g>
					</g>
					
						<linearGradient id="SVGID_00000008847033083996501480000013259752521003437959_" gradientUnits="userSpaceOnUse" x1="4471.6865" y1="422.0381" x2="4576.9995" y2="771.7939" gradientTransform="matrix(0.9769 0.2136 -0.2136 0.9769 -2468.593 465.3314)">
						<stop  offset="0" style="stop-color:#444B8C"/>
						<stop  offset="0.9964" style="stop-color:#26264F"/>
					</linearGradient>
					<path style="fill:url(#SVGID_00000008847033083996501480000013259752521003437959_);" d="M2018.953,2013.886
						c-22.369,102.328-127.393,183.371-235.902,187.082c-108.509,3.712-177.1-81.894-154.531-185.137
						c22.372-102.327,127.394-183.37,235.902-187.082C1972.932,1825.037,2041.524,1910.643,2018.953,2013.886z"/>
					<g>
						
							<linearGradient id="SVGID_00000147922364285884036130000017802607375911048860_" gradientUnits="userSpaceOnUse" x1="1838.1725" y1="1882.5837" x2="2040.7333" y2="1882.5837" gradientTransform="matrix(0.9924 -0.1234 0.1234 0.9924 -338.4043 386.4205)">
							<stop  offset="0" style="stop-color:#444B8C"/>
							<stop  offset="0.9964" style="stop-color:#26264F"/>
						</linearGradient>
						<path style="fill:url(#SVGID_00000147922364285884036130000017802607375911048860_);" d="M1887.779,2015.092
							c-9.475-11.086-24.783-19.712-50.137-25.723c3.316-15.17,6.633-30.339,9.949-45.509c0.944,0.039,1.888,0.079,2.832,0.118
							c9.276,0.493,18.105,1.855,26.065,4.11c4.569,1.287,9.053,2.865,13.265,4.724c4.71,2.085,10.925-1.123,12.635-6.414
							c2.147-6.657,4.293-13.314,6.44-19.97c1.329-4.176-0.633-8.179-4.566-9.4c-6.563-2.072-13.624-3.801-20.411-5.225
							c-9.208-1.938-18.532-3.287-28.367-4.051c1.159-5.302,2.318-10.605,3.477-15.907c1.017-4.644-1.609-8.691-6.341-8.997
							c-4.745-0.321-9.061,3.204-10.082,7.881c-1.184,5.414-2.367,10.827-3.55,16.241c-23.465,0.601-42.998,5.859-57.989,15.803
							c-15.091,10.028-24.615,24.027-28.552,42.053c-3.814,17.431-0.954,31.67,8.531,42.648
							c9.443,10.931,25.712,18.946,48.655,24.006c-3.74,16.878-7.479,33.757-11.219,50.635c-10.447-0.463-20.557-1.874-30.311-4.217
							c-6.253-1.504-12.352-3.417-18.286-5.709c-5.089-1.96-11.645,1.354-13.374,6.897c-2.671,8.556-5.341,17.111-8.011,25.666
							c-1.332,4.27,0.808,8.199,4.928,9.329c6.81,1.859,13.902,3.33,21.251,4.419c9.912,1.476,20.685,2.291,31.82,2.5
							c1.363,0.018,2.726,0.036,4.089,0.055c-1.261,5.769-2.522,11.538-3.783,17.307c-1.02,4.678,1.548,8.692,6.394,8.569
							c0.051-0.001,0.101-0.003,0.151-0.004c4.842-0.124,9.045-3.631,10.063-8.292c1.278-5.848,2.557-11.697,3.835-17.545
							c16.964-1.366,31.974-5.022,44.689-10.963c5.522-2.541,10.759-5.546,15.493-8.979c15.56-11.258,25.147-25.94,29.133-44.172
							C1900.181,2040.115,1897.197,2026.146,1887.779,2015.092z M1825.979,2035.096c7.81,2.395,14.059,5.562,17.211,9.52
							c3.154,3.942,4.161,8.998,2.823,15.122c-1.472,6.745-4.94,12.001-10.089,15.798c-5.163,3.797-11.718,5.795-20.096,5.993
							C1819.212,2066.051,1822.595,2050.573,1825.979,2035.096z M1805.77,1977.343c-3.062-3.533-4.003-8.02-2.823-13.429
							c1.251-5.727,4.33-10.325,9.241-13.815c4.915-3.49,11.926-5.595,18.746-6.29c-3.045,13.929-6.09,27.858-9.135,41.787
							C1813.895,1983.63,1808.849,1980.875,1805.77,1977.343z"/>
					</g>
					
						<linearGradient id="SVGID_00000041265751486496506420000016019248848088186507_" gradientUnits="userSpaceOnUse" x1="3882.7886" y1="634.9946" x2="5165.8975" y2="634.9946" gradientTransform="matrix(0.9769 0.2136 -0.2136 0.9769 -2468.593 465.3314)">
						<stop  offset="0" style="stop-color:#444B8C"/>
						<stop  offset="0.9964" style="stop-color:#26264F"/>
					</linearGradient>
					<path style="opacity:0.2;fill:url(#SVGID_00000041265751486496506420000016019248848088186507_);" d="M2380.676,2471.101
						c-0.152,0.695-0.303,1.389-0.456,2.084c-372.974-296.474-880.481,22.455-1253.456-274.018
						c45.725-209.164,91.451-418.328,137.176-627.491c13.263,20.147,26.484,42.462,38.879,67.494
						c14.299,28.911,27.506,61.431,38.315,98.823c12.006,41.526,21.067,89.055,25.335,144.701
						c20.75,275.092,134.854,298.313,291.212,267.122c41.645-7.895,86.169-19.135,132.37-28.75
						c20.323-4.215,41.084-7.927,62.044-10.945c41.051-5.874,82.897-9.047,123.856-7.941
						c138.712,1.175,264.588,63.958,325.709,190.433c11.485,23.023,20.832,47.729,27.821,73.708
						c1.825,6.768,4.124,13.678,6.878,20.766C2346.271,2412.731,2361.876,2440.438,2380.676,2471.101z"/>
				</g>
				<g>
					
						<linearGradient id="SVGID_00000165957022169467908810000001989702303906899584_" gradientUnits="userSpaceOnUse" x1="4274.9814" y1="-167.4333" x2="4807.4595" y2="1600.9807" gradientTransform="matrix(0.9769 0.2136 -0.2136 0.9769 -2468.593 465.3314)">
						<stop  offset="0" style="stop-color:#AA80F9"/>
						<stop  offset="0.9964" style="stop-color:#6165D7"/>
					</linearGradient>
					<path style="fill:url(#SVGID_00000165957022169467908810000001989702303906899584_);" d="M2498.985,1791.302
						c-46.713,213.681-93.426,427.363-140.139,641.044c-372.974-296.474-880.481,22.455-1253.456-274.019
						c46.713-213.681,93.426-427.363,140.139-641.044C1618.504,1813.758,2126.011,1494.829,2498.985,1791.302z"/>
					<path style="fill:#FFFFFF;" d="M2326.11,2353.373c-353.679-232.257-813.44,20.745-1167.118-211.512
						c39.758-181.868,79.516-363.735,119.275-545.603c353.679,232.257,813.44-20.745,1167.118,211.512
						C2405.626,1989.637,2365.868,2171.505,2326.11,2353.373z"/>
					<g>
						<g>
							
								<linearGradient id="SVGID_00000173146869188896975870000018129559697771277737_" gradientUnits="userSpaceOnUse" x1="3799.4556" y1="-77.9793" x2="4436.0635" y2="2036.2614" gradientTransform="matrix(0.9769 0.2136 -0.2136 0.9769 -2468.593 465.3314)">
								<stop  offset="0" style="stop-color:#AA80F9"/>
								<stop  offset="0.9964" style="stop-color:#6165D7"/>
							</linearGradient>
							<path style="fill:url(#SVGID_00000173146869188896975870000018129559697771277737_);" d="M1367.763,1636.073
								c-0.525,2.402-1.083,4.563-1.763,6.846c-0.063,0.2-0.115,0.385-0.178,0.585c-7.766,26.078-24.744,45.196-46.063,53.65
								c-18.619,7.414-40.521,6.555-62.414-5.201c-3.192-1.714-6.375-3.702-9.549-5.877c-12.006-8.221-22.827-19.181-32.197-31.882
								c9.977-45.637,19.953-91.273,29.93-136.91c39.645,31.513,80.81,56.074,123.172,75.159
								C1371.309,1605.845,1370.912,1621.673,1367.763,1636.073z"/>
							
								<linearGradient id="SVGID_00000108300034747768702590000004045929858784819345_" gradientUnits="userSpaceOnUse" x1="3607.843" y1="-170.6329" x2="4277.8994" y2="2054.6934" gradientTransform="matrix(0.9769 0.2136 -0.2136 0.9769 -2468.593 465.3314)">
								<stop  offset="0" style="stop-color:#AA80F9"/>
								<stop  offset="0.9964" style="stop-color:#6165D7"/>
							</linearGradient>
							<path style="fill:url(#SVGID_00000108300034747768702590000004045929858784819345_);" d="M1245.707,2194.402
								c-3.276,14.996-9.223,26.932-17.811,38.784c-42.127-19.042-83.068-43.51-122.505-74.858
								c10.208-46.697,20.417-93.394,30.625-140.091c11.326,3.761,23.23,9.776,35.233,17.996c3.174,2.174,6.292,4.466,9.337,6.847
								c45.441,35.569,74.935,92.716,66.231,145.482c-0.026,0.198-0.068,0.404-0.102,0.618
								C1246.438,2190.906,1246.073,2192.731,1245.707,2194.402z"/>
						</g>
						<g>
							
								<linearGradient id="SVGID_00000108289153797312625620000008710596724274012556_" gradientUnits="userSpaceOnUse" x1="4830.0044" y1="-538.119" x2="5496.812" y2="1676.4187" gradientTransform="matrix(0.9769 0.2136 -0.2136 0.9769 -2468.593 465.3314)">
								<stop  offset="0" style="stop-color:#AA80F9"/>
								<stop  offset="0.9964" style="stop-color:#6165D7"/>
							</linearGradient>
							<path style="fill:url(#SVGID_00000108289153797312625620000008710596724274012556_);" d="M2498.985,1791.302
								c-9.977,45.637-19.953,91.273-29.93,136.91c-11.326-3.761-23.23-9.775-35.233-17.996c-3.175-2.175-6.292-4.465-9.337-6.847
								c-44.97-35.21-74.37-91.339-66.529-143.661c0.351-2.442,0.708-4.465,1.235-6.866c3.145-14.392,9.151-27.83,16.623-36.699
								C2418.175,1735.229,2459.34,1759.789,2498.985,1791.302z"/>
							
								<linearGradient id="SVGID_00000068652554298155803210000001550894675956687032_" gradientUnits="userSpaceOnUse" x1="4663.0786" y1="-550.3534" x2="5303.1074" y2="1575.2467" gradientTransform="matrix(0.9769 0.2136 -0.2136 0.9769 -2468.593 465.3314)">
								<stop  offset="0" style="stop-color:#AA80F9"/>
								<stop  offset="0.9964" style="stop-color:#6165D7"/>
							</linearGradient>
							<path style="fill:url(#SVGID_00000068652554298155803210000001550894675956687032_);" d="M2389.472,2292.255
								c-10.208,46.697-20.417,93.394-30.625,140.091c-39.437-31.348-80.378-55.816-122.505-74.858
								c-2.328-16.779-2.49-31.312,0.793-46.317c0.366-1.67,0.794-3.47,1.252-5.117c0.061-0.2,0.104-0.408,0.162-0.591
								c6.898-25.066,22.189-44.013,41.738-53.689c19.639-9.705,43.531-9.904,67.398,2.913c3.192,1.714,6.394,3.607,9.57,5.781
								C2369.256,2268.689,2380.1,2279.555,2389.472,2292.255z"/>
						</g>
					</g>
					
						<linearGradient id="SVGID_00000047020183863117932750000015010793236316091287_" gradientUnits="userSpaceOnUse" x1="4442.0815" y1="386.7071" x2="4547.3945" y2="736.463" gradientTransform="matrix(0.9769 0.2136 -0.2136 0.9769 -2468.593 465.3314)">
						<stop  offset="0" style="stop-color:#AA80F9"/>
						<stop  offset="0.9964" style="stop-color:#6165D7"/>
					</linearGradient>
					<path style="fill:url(#SVGID_00000047020183863117932750000015010793236316091287_);" d="M1997.578,1973.047
						c-22.369,102.328-127.393,183.371-235.902,187.082c-108.508,3.712-177.1-81.894-154.531-185.137
						c22.372-102.327,127.394-183.37,235.902-187.082C1951.558,1784.199,2020.15,1869.804,1997.578,1973.047z"/>
					<g>
						<path style="fill:#FFFFFF;" d="M1866.404,1974.253c-9.475-11.086-24.783-19.712-50.137-25.723
							c3.316-15.17,6.633-30.339,9.949-45.509c0.944,0.039,1.888,0.079,2.832,0.118c9.276,0.493,18.105,1.855,26.065,4.11
							c4.569,1.287,9.053,2.865,13.265,4.724c4.71,2.085,10.925-1.123,12.635-6.414c2.147-6.657,4.293-13.314,6.44-19.97
							c1.329-4.176-0.633-8.179-4.566-9.401c-6.563-2.071-13.624-3.801-20.41-5.225c-9.208-1.938-18.532-3.287-28.367-4.051
							c1.159-5.302,2.318-10.605,3.477-15.907c1.017-4.644-1.609-8.691-6.341-8.997c-4.745-0.321-9.061,3.204-10.082,7.881
							c-1.183,5.414-2.367,10.827-3.551,16.241c-23.465,0.601-42.997,5.859-57.989,15.803
							c-15.091,10.028-24.615,24.027-28.552,42.053c-3.814,17.431-0.954,31.671,8.531,42.648
							c9.443,10.931,25.712,18.946,48.655,24.006c-3.74,16.878-7.479,33.757-11.219,50.635c-10.447-0.463-20.558-1.874-30.311-4.217
							c-6.253-1.504-12.352-3.417-18.286-5.709c-5.089-1.96-11.645,1.353-13.374,6.897c-2.671,8.555-5.341,17.111-8.011,25.666
							c-1.332,4.27,0.808,8.199,4.928,9.329c6.81,1.858,13.902,3.33,21.251,4.419c9.912,1.476,20.685,2.291,31.82,2.5
							c1.363,0.019,2.726,0.037,4.089,0.055c-1.261,5.769-2.522,11.538-3.783,17.306c-1.02,4.678,1.548,8.692,6.393,8.569
							c0.051-0.001,0.101-0.003,0.151-0.004c4.842-0.124,9.045-3.631,10.063-8.292c1.279-5.848,2.557-11.697,3.836-17.545
							c16.964-1.366,31.974-5.022,44.689-10.963c5.521-2.541,10.759-5.546,15.493-8.979c15.56-11.258,25.147-25.94,29.133-44.172
							C1878.807,1999.276,1875.823,1985.308,1866.404,1974.253z M1804.604,1994.257c7.809,2.395,14.059,5.562,17.211,9.52
							c3.154,3.942,4.161,8.998,2.823,15.122c-1.472,6.745-4.94,12.001-10.089,15.798c-5.163,3.797-11.718,5.795-20.096,5.993
							C1797.837,2025.212,1801.221,2009.735,1804.604,1994.257z M1784.396,1936.505c-3.062-3.533-4.003-8.02-2.823-13.429
							c1.251-5.727,4.33-10.325,9.241-13.815c4.915-3.49,11.927-5.595,18.746-6.29c-3.045,13.929-6.09,27.858-9.135,41.787
							C1792.521,1942.791,1787.474,1940.037,1784.396,1936.505z"/>
					</g>
					
						<linearGradient id="SVGID_00000179635767977635752840000001155857421193613742_" gradientUnits="userSpaceOnUse" x1="3853.1833" y1="599.6636" x2="5136.2925" y2="599.6636" gradientTransform="matrix(0.9769 0.2136 -0.2136 0.9769 -2468.593 465.3314)">
						<stop  offset="0" style="stop-color:#AA80F9"/>
						<stop  offset="0.9964" style="stop-color:#6165D7"/>
					</linearGradient>
					<path style="opacity:0.2;fill:url(#SVGID_00000179635767977635752840000001155857421193613742_);" d="M2359.302,2430.263
						c-0.152,0.695-0.304,1.389-0.456,2.084c-372.974-296.474-880.481,22.455-1253.456-274.019
						c45.725-209.164,91.451-418.328,137.176-627.491c13.263,20.147,26.485,42.462,38.879,67.494
						c14.299,28.911,27.506,61.431,38.315,98.823c12.006,41.526,21.067,89.055,25.335,144.701
						c20.75,275.092,134.854,298.313,291.212,267.122c41.645-7.895,86.169-19.135,132.371-28.749
						c20.323-4.215,41.084-7.927,62.044-10.945c41.051-5.874,82.897-9.047,123.856-7.941
						c138.711,1.175,264.588,63.959,325.709,190.434c11.485,23.023,20.832,47.729,27.821,73.708
						c1.825,6.768,4.125,13.678,6.878,20.766C2324.896,2371.892,2340.502,2399.599,2359.302,2430.263z"/>
				</g>
			</g>
			<g>
				
					<linearGradient id="SVGID_00000034083968944275781170000000404719844066527910_" gradientUnits="userSpaceOnUse" x1="5050.7495" y1="3673.6704" x2="5095.4204" y2="3713.4055" gradientTransform="matrix(0.9902 -0.14 0.14 0.9902 -2711.9221 206.9384)">
					<stop  offset="0" style="stop-color:#444B8C"/>
					<stop  offset="0.9964" style="stop-color:#26264F"/>
				</linearGradient>
				<path style="fill:url(#SVGID_00000034083968944275781170000000404719844066527910_);" d="M2816.205,3157.713
					c1.271-7.003,23.886-13.342,35.084-3.961c5.561,4.657,9.389,14.098,6.173,18.363c-1.171,1.551,3.623,4.279-0.97,4.333
					C2841.257,3176.624,2814.94,3164.672,2816.205,3157.713z"/>
				
					<linearGradient id="SVGID_00000165232330928632102270000007180767432698341545_" gradientUnits="userSpaceOnUse" x1="4864.3027" y1="3461.1543" x2="4864.3027" y2="3383.3333" gradientTransform="matrix(0.9988 0.0498 -0.0498 0.9988 -1835.4758 -528.7908)">
					<stop  offset="0" style="stop-color:#FFC444"/>
					<stop  offset="0.9964" style="stop-color:#F36F56"/>
				</linearGradient>
				<path style="fill:url(#SVGID_00000165232330928632102270000007180767432698341545_);" d="M2840.935,3157.75l23.461,1.17
					c-8.128-14.777,1.644-54.969,1.644-54.969l-25.333,0.744c0,0,0.624,11.669,2.167,29.001
					C2843.403,3139.63,2842.429,3148.568,2840.935,3157.75z"/>
				
					<linearGradient id="SVGID_00000176746753141865464640000010632872897696976801_" gradientUnits="userSpaceOnUse" x1="5055.2407" y1="3668.623" x2="5099.9111" y2="3708.3577" gradientTransform="matrix(0.9902 -0.14 0.14 0.9902 -2711.9221 206.9384)">
					<stop  offset="0" style="stop-color:#444B8C"/>
					<stop  offset="0.9964" style="stop-color:#26264F"/>
				</linearGradient>
				<path style="fill:url(#SVGID_00000176746753141865464640000010632872897696976801_);" d="M2837.846,3157.397
					c0,0,28.002-6.452,31.031-0.898c3.03,5.555,5.381,20.427-12.385,19.947C2838.725,3175.967,2836.268,3162.107,2837.846,3157.397z
					"/>
				
					<linearGradient id="SVGID_00000005988046276574306960000007821038887127879596_" gradientUnits="userSpaceOnUse" x1="5118.7041" y1="3186.7366" x2="5163.377" y2="3226.4729" gradientTransform="matrix(1 0 0 1 -2609.0793 0)">
					<stop  offset="0" style="stop-color:#444B8C"/>
					<stop  offset="0.9964" style="stop-color:#26264F"/>
				</linearGradient>
				<path style="fill:url(#SVGID_00000005988046276574306960000007821038887127879596_);" d="M2519.231,3208.507
					c2.239-6.755,25.519-9.867,35.295,0.988c4.852,5.389,7.323,15.273,3.541,19.044c-1.376,1.373,2.988,4.746-1.567,4.156
					C2541.391,3230.739,2517.006,3215.22,2519.231,3208.507z"/>
				
					<linearGradient id="SVGID_00000013156986545175587090000017654022605437396398_" gradientUnits="userSpaceOnUse" x1="4917.4175" y1="2918.468" x2="4917.4175" y2="2840.6445" gradientTransform="matrix(0.9813 0.1926 -0.1926 0.9813 -1708.8574 -582.0115)">
					<stop  offset="0" style="stop-color:#FFC444"/>
					<stop  offset="0.9964" style="stop-color:#F36F56"/>
				</linearGradient>
				<path style="fill:url(#SVGID_00000013156986545175587090000017654022605437396398_);" d="M2546.742,3215.015l23.049,4.523
					c-5.924-15.79,9.514-54.164,9.514-54.164l-25.178-2.899c0,0-1.057,11.638-2.015,29.012
					C2551.784,3197.435,2549.538,3206.142,2546.742,3215.015z"/>
				
					<linearGradient id="SVGID_00000152224597457484070310000011628388596978051479_" gradientUnits="userSpaceOnUse" x1="5123.1948" y1="3181.6887" x2="5167.8672" y2="3221.4248" gradientTransform="matrix(1 0 0 1 -2609.0793 0)">
					<stop  offset="0" style="stop-color:#444B8C"/>
					<stop  offset="0.9964" style="stop-color:#26264F"/>
				</linearGradient>
				<path style="fill:url(#SVGID_00000152224597457484070310000011628388596978051479_);" d="M2540.704,3211.223
					c0,0,28.63-2.469,30.851,3.456c2.221,5.922,2.469,20.977-15.055,18.016C2538.976,3229.734,2538.482,3215.665,2540.704,3211.223z
					"/>
				
					<linearGradient id="SVGID_00000030473486052621290930000001718423353509405336_" gradientUnits="userSpaceOnUse" x1="2510.1545" y1="2328.7507" x2="3029.2214" y2="2938.8809">
					<stop  offset="0" style="stop-color:#444B8C"/>
					<stop  offset="0.9964" style="stop-color:#26264F"/>
				</linearGradient>
				<path style="fill:url(#SVGID_00000030473486052621290930000001718423353509405336_);" d="M2752.469,2403.697
					c6.279,107.34,15.069,218.961,26.909,334.476c13.718,133.824,30.383,261.692,49.069,383.219c23.035,7.899,44.322,0,44.322,0
					s26.932-44.113,47.487-161.355c13.187-75.227,14.097-74.279,14.246-87.401c0.745-66.206-22.481-85.373-26.909-144.548
					c-4.097-54.749,13.331-71.146,23.743-132.782c8.007-47.395,11.009-116.465-14.246-206.736
					C2862.217,2393.612,2807.343,2398.655,2752.469,2403.697z"/>
				
					<linearGradient id="SVGID_00000128454158849505772290000002094484501751505329_" gradientUnits="userSpaceOnUse" x1="2752.469" y1="2756.7361" x2="2922.0237" y2="2756.7361">
					<stop  offset="0" style="stop-color:#311944"/>
					<stop  offset="1" style="stop-color:#6B3976"/>
				</linearGradient>
				<path style="opacity:0.3;fill:url(#SVGID_00000128454158849505772290000002094484501751505329_);" d="M2752.469,2403.698
					c6.278,107.339,15.069,218.96,26.909,334.475c13.718,133.824,30.383,261.692,49.07,383.219c23.034,7.899,44.321,0,44.321,0
					c-0.292-11.249-1.077-28.199-3.427-48.674c-6.231-54.31-16.162-69.762-17.181-103.089
					c-1.303-42.622,14.128-43.934,17.181-85.906c4.733-65.058-30.99-80.486-34.363-137.451
					c-3.563-60.19,34.124-79.997,62.998-154.633c17.044-44.058,32.173-110.207,19.112-203.069
					C2862.217,2393.612,2807.343,2398.655,2752.469,2403.698z"/>
				
					<linearGradient id="SVGID_00000142879823509570114770000008968725496919418766_" gradientUnits="userSpaceOnUse" x1="2374.7949" y1="2443.9077" x2="2893.8586" y2="3054.0342">
					<stop  offset="0" style="stop-color:#444B8C"/>
					<stop  offset="0.9964" style="stop-color:#26264F"/>
				</linearGradient>
				<path style="fill:url(#SVGID_00000142879823509570114770000008968725496919418766_);" d="M2636.918,2400.336
					c-31.539,106.243-62.106,238.209-79.144,391.622c-16.536,148.889-16.236,281.113-9.498,389.941
					c10.026,2.801,20.05,5.603,30.075,8.404c58.294-60.991,79.107-117.05,87.06-157.993c11.764-60.566-5.962-81.102,9.497-149.59
					c3.556-15.755,8.56-32.677,66.481-146.227c55.282-108.376,66.616-124.116,75.979-163.036
					c13.365-55.555,9.839-104.822,4.749-137.825C2760.384,2423.867,2698.652,2412.101,2636.918,2400.336z"/>
				
					<linearGradient id="SVGID_00000099645693120492618670000011809168117518049979_" gradientUnits="userSpaceOnUse" x1="715.6484" y1="1505.813" x2="686.1484" y2="1640.4861" gradientTransform="matrix(0.66 -0.7513 0.7513 0.66 497.7215 1549.7289)">
					<stop  offset="0" style="stop-color:#FFC444"/>
					<stop  offset="0.9964" style="stop-color:#F36F56"/>
				</linearGradient>
				<path style="fill:url(#SVGID_00000099645693120492618670000011809168117518049979_);" d="M2163.555,2070.252l-22.472-15.791
					l-32.914-7.974c-4.484-1.085-8.634-3.243-12.1-6.287c0,0-12.299-31.988-10.948-37.122c1.35-5.135,43.308,11.823,43.634,16.85
					c0.325,5.026,25.703,20.209,25.582,24.843l14.162,10.861L2163.555,2070.252z"/>
				
					<linearGradient id="SVGID_00000123409737345743126720000012579280942348593337_" gradientUnits="userSpaceOnUse" x1="3124.8877" y1="2865.4995" x2="2642.2471" y2="1922.9865">
					<stop  offset="0" style="stop-color:#311944"/>
					<stop  offset="1" style="stop-color:#893976"/>
				</linearGradient>
				<path style="fill:url(#SVGID_00000123409737345743126720000012579280942348593337_);" d="M2486.544,1922.014
					c14.771-36.121,46.478-56.896,62.92-67.669c38.902-25.489,63.808-20.835,153.145-34.427
					c119.06-18.116,133.312-35.281,173.326-21.369c52.563,18.273,80.018,65.986,92.599,87.851
					c63.428,110.229-10.729,166.255,8.31,385.829c7.775,89.675,27.712,167.602-20.182,213.689
					c-10.084,9.704-21.365,14.779-43.925,24.931c-89.473,40.258-169.692,33.318-218.439,28.492
					c-53.639-5.311-80.75-8.353-94.973-27.305c-22.719-30.273,0.668-68.748,4.749-135.336c2.93-47.807-7.94-85.69-29.679-161.455
					C2523.856,2039.106,2458.243,1991.218,2486.544,1922.014z"/>
				<g>
					<g>
						
							<linearGradient id="SVGID_00000045620140420107378390000011643564064300936370_" gradientUnits="userSpaceOnUse" x1="5928.2065" y1="1160.0178" x2="6125.1938" y2="1407.8533" gradientTransform="matrix(0.9663 0.2576 -0.2576 0.9663 -2744.3408 -923.8408)">
							<stop  offset="0" style="stop-color:#FFC444"/>
							<stop  offset="0.9964" style="stop-color:#F36F56"/>
						</linearGradient>
						<path style="fill:url(#SVGID_00000045620140420107378390000011643564064300936370_);" d="M2685.832,1754.942
							c-5.42-19.311,4.056-37.195,6.145-41.048c8.745-16.132,10.985-18.337,15.157-21.131l5.8-3.578c0,0,0.336-0.135,0.689-0.261
							c3.722-1.325,16.408-1.71,18.978-1.161c8.209,1.753,16.95,35.198,14.457,82.483c0.34,1.802,0.668,3.62,0.986,5.451
							c1.293,7.468,2.32,14.787,3.114,21.943c0.76,6.845,10.466,6.688,17.339,6.25c27.898-1.781,41.551,0.594,42.738,4.748
							c2.224,7.786-30.867,33.241-71.727,38.967c-54.838,0.408-99.446-5.431-94.652-14.066c2.129-3.834,44.617-14.936,56.567-25.94
							c10.941-10.077,10.05-20.479,10.949-27.927C2709.056,1777.953,2689.821,1769.169,2685.832,1754.942z"/>
						<path style="fill:#26264F;" d="M2695.918,1675.754c0.049,14.649,6.951,30.294,10.468,32.808
							c0.453,0.325,3.01,2.344,5.305,5.796c0.313,0.47,0.589,1.02,0.834,1.732c3.209,9.23-11.469,20.094-8.635,24.228
							c2.055,2.998,12.031-1.011,13.217,1.578c1.117,2.436-7.173,7.483-5.903,10.4c0.958,2.203,6.06,0.188,9.277,3.563
							c1.604,1.681,1.134,3.013,2.833,8.153c0.961,2.907,2.304,6.086,3.346,7.856c5.063,8.601,19.401,11.743,22.161,8.302
							c0.768-0.96,0.108-1.766,0.893-4.985c0,0,0.727-2.983,2.803-6.432c2.966-4.929,10.126-8.453,17.351-13.655
							c13.378-9.634,17.015-17.847,18.106-20.621c0.388-0.988,0.629-1.734,0.803-2.272c3.479-10.798,3.495-26.657-1.36-36.411
							c-8.132-16.338-26.476-8.581-41.49-24.77c-17.325-18.678-7.006-44.208-16.407-47.028
							C2719.158,1620.885,2695.828,1648.667,2695.918,1675.754z"/>
						
							<linearGradient id="SVGID_00000041975148641575231230000013383067770587615156_" gradientUnits="userSpaceOnUse" x1="5903.7212" y1="1104.8759" x2="6123.6641" y2="1381.5925" gradientTransform="matrix(0.9663 0.2576 -0.2576 0.9663 -2744.3408 -923.8408)">
							<stop  offset="0" style="stop-color:#FFC444"/>
							<stop  offset="0.9964" style="stop-color:#F36F56"/>
						</linearGradient>
						<path style="fill:url(#SVGID_00000041975148641575231230000013383067770587615156_);" d="M2709.156,1736.874
							c3.591-4.933,9.899-0.297,9.936,6.085c0.038,6.382-6.147,13.019-12.148,11.759
							C2700.944,1753.457,2704.325,1743.515,2709.156,1736.874z"/>
					</g>
					<path style="fill:#26264F;" d="M2712.068,1726.196l-8.329,10.836c0,0-8.98,13.275-14.222,6.003
						c-4.282-5.943-5.393-5.81-5.655-5.561c-0.049,0.047-0.063,0.119-0.075,0.115c-0.075-0.02,0.628-2.958,1.26-5.54
						c-2.217,3.183-5.273,8.346-7.124,15.294c-1.797,6.747-3.724,13.973,0.083,20.913c0.219,0.4,4.414,7.788,12.245,9.575
						c0,0,3.08,0.703,16.092-1.584c0,0-14.222-10.321-14.44-12.772c-0.59-6.667,8.656-10.27,15.521-23.937
						C2710.071,1734.265,2711.376,1729.485,2712.068,1726.196z"/>
				</g>
				
					<linearGradient id="SVGID_00000079466411210219975250000001831258690759366579_" gradientUnits="userSpaceOnUse" x1="2468.7009" y1="2123.8696" x2="2784.4875" y2="2425.4097">
					<stop  offset="0" style="stop-color:#311944"/>
					<stop  offset="1" style="stop-color:#893976"/>
				</linearGradient>
				<path style="opacity:0.1;fill:url(#SVGID_00000079466411210219975250000001831258690759366579_);" d="M2740.598,2476.42
					c-15.781-31.422,22.888-73.189-2.375-121.091c-21.456-40.683-60.432-31.569-78.353-68.855
					c-21.645-45.036,25.429-78.695,23.743-147.208c-2.015-81.906-72.491-163.896-113.967-156.706
					c-26.835,4.651-30.283,44.686-49.164,88.515c16.707,36.635,36.227,82.533,53.912,144.169
					c21.74,75.765,32.609,113.648,29.679,161.455c-4.081,66.588-27.468,105.063-4.749,135.336
					c14.223,18.952,41.333,21.994,94.973,27.305c48.747,4.826,128.966,11.766,218.439-28.492
					c11.325-5.096,19.803-8.913,26.719-12.678C2799.672,2519.162,2753.114,2501.343,2740.598,2476.42z"/>
				
					<linearGradient id="SVGID_00000005964033821797819830000001491568051134607757_" gradientUnits="userSpaceOnUse" x1="2893.4175" y1="2995.8975" x2="2404.9055" y2="2041.9183">
					<stop  offset="0" style="stop-color:#311944"/>
					<stop  offset="1" style="stop-color:#893976"/>
				</linearGradient>
				<path style="fill:url(#SVGID_00000005964033821797819830000001491568051134607757_);" d="M2150.1,2070.343
					c5.733-7.42,11.468-14.841,17.201-22.261c144.223,43.124,208.196,22.363,239.51-7.371c14.868-14.117,28.668-36.235,45.304-62.9
					c37.1-59.461,46.929-98.673,87.851-116.342c10.363-4.474,17.517-7.445,26.117-5.343c39.571,9.673,52.653,112.79,41.552,189.947
					c-6.125,42.563-20.077,128.579-88.444,169.171c-95.124,56.479-221.118-19.932-257.128-41.772
					C2207.075,2140.123,2171.279,2099.136,2150.1,2070.343z"/>
			</g>
			
				<linearGradient id="SVGID_00000156582742625321455990000011732853569811554491_" gradientUnits="userSpaceOnUse" x1="1120.3092" y1="2032.9043" x2="1186.0743" y2="2092.4063">
				<stop  offset="0" style="stop-color:#FFC444"/>
				<stop  offset="0.9964" style="stop-color:#F36F56"/>
			</linearGradient>
			<path style="fill:url(#SVGID_00000156582742625321455990000011732853569811554491_);" d="M1105.391,2056.118
				c0,0,4.082,3.979,6.735-11.496c2.653-15.475,21.223-13.264,21.223-13.264l-2.679,11.338c0,0,48.963-20.399,49.697-11.447
				c0.734,8.952-10.003,31.879-25.415,38.986c-15.412,7.106-47.247,7.99-47.247,7.99L1105.391,2056.118z"/>
			
				<linearGradient id="SVGID_00000160190318259324629610000002503909680424171414_" gradientUnits="userSpaceOnUse" x1="1138.7538" y1="2548.4902" x2="764.6581" y2="2011.422">
				<stop  offset="0" style="stop-color:#FF9085"/>
				<stop  offset="1" style="stop-color:#FB6FBB"/>
			</linearGradient>
			<path style="opacity:0.4;fill:url(#SVGID_00000160190318259324629610000002503909680424171414_);" d="M891.604,2233.188
				c45.947,9.974,98.898-10.364,132.536-20.268c3.466,21.399,5.589,37.387-4.917,52.632c-13.016,18.959-36.114,23.309-89.277,26.741
				c-135.544,8.772-203.314,13.159-222.522-23.734c-7.959-15.316-3.007-27.308,6.473-74.881
				c9.903-49.556,25.149-125.958,23.769-176.575c-1.026-37.776-11.423-64.976-24.335-87.579
				c30.383-40.323,73.679-60.097,129.848,4.421c0,0,80.925,91.753,141.552,95.043c34.382,1.839,53.656,24.159,53.656,53.976v0.036
				c-3.404,15.209-5.834,32.365-17.471,49.767c-5.765,8.596-13.014,17.261-21.822,25.751
				C937.477,2217.942,820.471,2217.73,891.604,2233.188z"/>
			<g>
				
					<linearGradient id="SVGID_00000011006560794165274410000013410171490915096226_" gradientUnits="userSpaceOnUse" x1="3850.0835" y1="1619.9194" x2="3862.4143" y2="1800.5679" gradientTransform="matrix(1 0 0 1 -2920.5623 0)">
					<stop  offset="0" style="stop-color:#311944"/>
					<stop  offset="1" style="stop-color:#6B3976"/>
				</linearGradient>
				<path style="fill:url(#SVGID_00000011006560794165274410000013410171490915096226_);" d="M913.33,1726.293
					c0,0,10.266,33.317,18.879,33.892c8.613,0.574,14.927,1.722,14.927,1.722l12.981-37.331c-3.46,1.065-10.604,3.395-14.724,4.166
					C934.951,1730.698,920.865,1726.875,913.33,1726.293z"/>
				
					<linearGradient id="SVGID_00000061473433608953442490000013659458634461711549_" gradientUnits="userSpaceOnUse" x1="3820.1948" y1="1964.8417" x2="3820.1948" y2="1586.9526" gradientTransform="matrix(1 0 0 1 -2920.5623 0)">
					<stop  offset="0" style="stop-color:#311944"/>
					<stop  offset="1" style="stop-color:#6B3976"/>
				</linearGradient>
				<path style="fill:url(#SVGID_00000061473433608953442490000013659458634461711549_);" d="M928.121,1757.731
					c0,0-19.167,215.182-86.344,249.633c1.722,6.89,0,62.871,0,62.871s62.622-18.855,66.192-17.61s75.842-118.547,39.168-290.719
					L928.121,1757.731z"/>
			</g>
			
				<linearGradient id="SVGID_00000080912416728648783330000014532161671357869219_" gradientUnits="userSpaceOnUse" x1="636.0038" y1="1794.9565" x2="1316.0504" y2="2410.2368">
				<stop  offset="0" style="stop-color:#FF9085"/>
				<stop  offset="1" style="stop-color:#FB6FBB"/>
			</linearGradient>
			<path style="fill:url(#SVGID_00000080912416728648783330000014532161671357869219_);" d="M739.4,1693.856
				c0,0,69.564-25.939,90.787,112.009c21.223,137.948,20.145,234.63,90.248,238.167c70.103,3.537,184.957,0,184.957,0l5.409,48.341
				c0,0-321.88,134.411-364.325,20.044C704.028,1998.05,572.096,1752.865,739.4,1693.856z"/>
		</g>
	</g>
</g>
</svg>
