<?xml version="1.0" encoding="utf-8"?>
<!-- Generator: Adobe Illustrator 27.5.0, SVG Export Plug-In . SVG Version: 6.00 Build 0)  -->
<svg version="1.1" xmlns="http://www.w3.org/2000/svg" xmlns:xlink="http://www.w3.org/1999/xlink" x="0px" y="0px"
	 viewBox="0 0 750 500" style="enable-background:new 0 0 750 500;" xml:space="preserve">
<g id="BACKGROUND">
	<rect style="fill:#FFFFFF;" width="750" height="500"/>
</g>
<g id="OBJECTS">
	<path style="fill:#B4C8F2;" d="M161.429,410.558c20.344-11.798,36.921-19.861,46.402-50.014
		c9.481-30.153,31.377-47.58,55.499-58.368c24.121-10.788,28.193-29.067,32.091-54.683c3.898-25.616,21.982-44.814,41.196-48.495
		c19.214-3.681,31.285-41.771,68.482-41.771c37.196,0,49.268,38.09,68.482,41.771c19.214,3.681,37.298,22.88,41.196,48.495
		c3.898,25.616,7.969,43.894,32.091,54.683c24.121,10.788,46.017,28.215,55.498,58.368c9.481,30.153,26.058,38.217,46.403,50.014
		c20.344,11.798,18.649,19.436,18.649,19.436H405.098H142.78C142.78,429.995,141.084,422.356,161.429,410.558z"/>
	<g>
		<path style="fill:#182341;" d="M452.092,55.107l41.878,342.089l-261.843,26.848c0,0-31.684-207.126-34.505-276.806
			c-1.665-41.121,0.532-63.925,0.532-63.925s17.938-5.265,89.172-15.41C354.904,58.278,452.092,55.107,452.092,55.107z"/>
		<g>
			<path style="fill:#FFA8C7;" d="M255.56,103.752c-4.951,0-8.979-4.093-8.979-9.124V63.477c0-5.031,4.028-9.124,8.979-9.124
				c4.951,0,8.98,4.093,8.98,9.124v31.151C264.54,99.658,260.511,103.752,255.56,103.752z M255.56,57.279
				c-3.363,0-6.1,2.781-6.1,6.198v31.151c0,3.418,2.736,6.198,6.1,6.198s6.1-2.78,6.1-6.198V63.477
				C261.66,60.059,258.923,57.279,255.56,57.279z"/>
		</g>
		<path style="fill:#EEC12D;" d="M446.944,52.221l41.878,342.089l-261.843,26.848c0,0-31.684-207.126-34.505-276.806
			c-1.665-41.121,0.532-63.925,0.532-63.925s17.938-5.265,89.172-15.41C349.755,55.392,446.944,52.221,446.944,52.221z"/>
		<g>
			
				<rect x="199.708" y="74.404" transform="matrix(0.9958 -0.0915 0.0915 0.9958 -9.3553 21.9934)" style="fill:#7B85EF;" width="71.122" height="77.316"/>
			<path style="fill:#182341;" d="M226.292,84.459c-7.659,0.919-9.854,4.429-9.837,7.736c0.02,4.172,3.291,4.516,3.502,7.589
				c0.21,3.073-3.305,5.985-1.953,10.68c1.352,4.694,4.18,6.52,4.18,6.52l38.415,0.366c0,0,1.092-7.366-2.396-12.007
				c-3.489-4.642-10.73-3.893-13.639-11.702C241.222,84.67,234.727,78.938,226.292,84.459z"/>
			<path style="fill:#182341;" d="M232.058,111.474c0,0-14.313,1.339-17.966,5.102c-6.439,6.632-10.698,38.235-10.698,38.235
				l70.823-6.505l-13.809-36.416C260.408,111.89,257.78,107.817,232.058,111.474z"/>
			<path style="fill:#5F88F0;" d="M237.385,106.31c0,0,6.441,2.788,9.491,5.457c3.05,2.669-8.279,7.737-8.279,7.737
				s3.87,1.418,0.376,4.089c-3.494,2.67-9.375,2.851-10.74,5.997c0,0-2.104-3.161-3.404-4.697c-1.882-2.224-0.808-4.624,1.257-5.102
				c-2.81-2.403-4.094-5.473-2.756-7.035c1.338-1.561,8.398-4.487,8.398-4.487L237.385,106.31z"/>
			<path style="fill:#FFFFFF;" d="M228.475,90.308c0,0,1.796,4.07,5.489,5.649c0,0,0.629-2.024,2.332-1.748
				c1.703,0.275,2.691,4.368-0.741,5.114l4.893,11.381c0,0-8.275,8.048-11.247,13.786c0,0-1.262-9.042,0.532-12.994l-1.436-5.19
				c0,0-2.154,0.174-3.452-1.433c-1.298-1.607-0.79-4.554-1.474-6.265c-0.685-1.711-1.257-3.241-1.257-3.241
				S226.815,94.983,228.475,90.308z"/>
			<path style="fill:#182341;" d="M228.299,106.305c3.001-0.084,5.716-2.239,6.152-3.753c0.055,2.944-1.807,5.606-5.458,6.26
				L228.299,106.305z"/>
		</g>
		<g>
			
				<rect x="211.763" y="158.297" transform="matrix(0.9935 -0.1139 0.1139 0.9935 -16.5055 38.0986)" style="fill:#FFFFFF;" width="226.804" height="10.398"/>
			
				<rect x="214.535" y="185.023" transform="matrix(0.9935 -0.1139 0.1139 0.9935 -19.5314 38.5882)" style="fill:#FFFFFF;" width="226.804" height="10.398"/>
			
				<rect x="217.44" y="214.275" transform="matrix(0.9935 -0.1139 0.1139 0.9935 -22.8441 39.1093)" style="fill:#FFFFFF;" width="226.804" height="10.397"/>
			
				<rect x="220.506" y="241.026" transform="matrix(0.9935 -0.1139 0.1139 0.9935 -25.8709 39.6327)" style="fill:#FFFFFF;" width="226.804" height="10.398"/>
			
				<rect x="224.103" y="268.479" transform="matrix(0.9935 -0.1139 0.1139 0.9935 -28.9743 40.2209)" style="fill:#FFFFFF;" width="226.804" height="10.397"/>
		</g>
		<g>
			<path style="fill:#FFA8C7;" d="M254.203,97.532c-4.203,0-7.622-3.475-7.622-7.745V66.962h2.88v22.824
				c0,2.657,2.127,4.819,4.743,4.819c2.615,0,4.743-2.162,4.743-4.819V66.388h2.88v23.399
				C261.826,94.057,258.406,97.532,254.203,97.532z"/>
		</g>
	</g>
	<g>
		<path style="fill:#182341;" d="M542.012,154.565c-1.92,9.992-3.938,21.067-5.981,33.127c-9.254,54.367-35.12,241.93-35.12,241.93
			l-265.803-13.265c0,0,24.537-281.677,47.057-336.044c0,0,33.152-12.576,137.873-3.962c9.893,0.812,19.147,1.55,27.786,2.239
			C485.479,95.35,517.917,121.709,542.012,154.565z"/>
		<path style="fill:#F0E0C4;" d="M538.062,149.432c-1.92,9.992-3.938,21.067-5.981,33.127c-9.254,54.366-35.12,241.93-35.12,241.93
			l-265.803-13.266c0,0,24.537-281.677,47.057-336.044c0,0,33.151-12.576,137.873-3.962c9.894,0.812,19.147,1.55,27.786,2.24
			C481.529,90.217,513.967,116.576,538.062,149.432z"/>
		<path style="fill:#243971;" d="M537.499,152.382c0.188-0.99,0.376-1.98,0.563-2.949c-23.98-32.701-56.23-58.957-93.657-75.729
			c9.47,16.412,37.205,65.553,45.378,92.029C489.782,165.733,519.736,146.661,537.499,152.382z"/>
		<g>
			<g>
				<g>
					
						<ellipse transform="matrix(0.7435 -0.6687 0.6687 0.7435 -91.9522 262.2774)" style="fill:#EEC12D;" cx="295.951" cy="251.015" rx="17.39" ry="14.066"/>
				</g>
				<g>
					<g>
						<path style="fill:#FFFFFF;" d="M301.882,259.437H286.44c-0.543,0-0.889-0.44-0.773-0.982l3.282-15.442
							c0.115-0.543,0.648-0.982,1.191-0.982h15.442c0.543,0,0.889,0.44,0.773,0.982l-3.282,15.442
							C302.957,258.997,302.424,259.437,301.882,259.437z M287.84,257.472h13.477l2.865-13.477h-13.478L287.84,257.472z"/>
					</g>
					<g>
						<path style="fill:#182341;" d="M294.978,255.225c-0.271,0-0.509-0.113-0.653-0.314l-3.127-4.367
							c-0.285-0.397-0.13-1.019,0.346-1.388c0.476-0.369,1.092-0.346,1.377,0.052l2.408,3.362l8.007-10.647
							c0.359-0.477,0.992-0.656,1.416-0.398c0.423,0.258,0.474,0.853,0.115,1.331l-8.915,11.854
							c-0.21,0.279-0.526,0.468-0.848,0.508C295.061,255.222,295.019,255.225,294.978,255.225z"/>
					</g>
				</g>
			</g>
			<g>
				<g>
					
						<ellipse transform="matrix(0.7435 -0.6687 0.6687 0.7435 -118.9437 267.4815)" style="fill:#EEC12D;" cx="289.237" cy="288.805" rx="17.39" ry="14.066"/>
				</g>
				<g>
					<g>
						<path style="fill:#FFFFFF;" d="M295.168,297.226h-15.442c-0.543,0-0.889-0.44-0.773-0.982l3.282-15.442
							c0.115-0.543,0.648-0.982,1.191-0.982h15.442c0.543,0,0.889,0.44,0.773,0.982l-3.282,15.442
							C296.244,296.787,295.711,297.226,295.168,297.226z M281.126,295.262h13.477l2.865-13.477h-13.477L281.126,295.262z"/>
					</g>
					<g>
						<path style="fill:#182341;" d="M288.265,293.015c-0.271,0-0.509-0.113-0.653-0.314l-3.127-4.367
							c-0.285-0.397-0.13-1.019,0.346-1.388c0.476-0.369,1.092-0.346,1.377,0.052l2.408,3.362l8.007-10.647
							c0.359-0.477,0.992-0.656,1.416-0.398c0.423,0.258,0.474,0.853,0.115,1.331l-8.915,11.854
							c-0.21,0.279-0.526,0.468-0.848,0.508C288.348,293.012,288.306,293.015,288.265,293.015z"/>
					</g>
				</g>
			</g>
			<g>
				<g>
					
						<ellipse transform="matrix(0.7435 -0.6687 0.6687 0.7435 -173.0246 278.6293)" style="fill:#EEC12D;" cx="276.732" cy="364.884" rx="17.39" ry="14.066"/>
				</g>
				<g>
					<g>
						<path style="fill:#FFFFFF;" d="M282.663,373.305h-15.442c-0.543,0-0.889-0.44-0.773-0.982l3.282-15.442
							c0.115-0.543,0.648-0.982,1.191-0.982h15.442c0.543,0,0.889,0.44,0.773,0.982l-3.282,15.442
							C283.738,372.865,283.205,373.305,282.663,373.305z M268.621,371.341h13.478l2.865-13.477h-13.478L268.621,371.341z"/>
					</g>
					<g>
						<path style="fill:#182341;" d="M275.759,369.093c-0.271,0-0.509-0.112-0.653-0.314l-3.127-4.367
							c-0.285-0.397-0.13-1.019,0.347-1.388c0.476-0.369,1.092-0.346,1.377,0.052l2.408,3.362l8.007-10.647
							c0.359-0.477,0.992-0.656,1.416-0.398c0.423,0.258,0.474,0.853,0.115,1.331l-8.915,11.854
							c-0.21,0.279-0.526,0.468-0.848,0.508C275.842,369.091,275.8,369.093,275.759,369.093z"/>
					</g>
				</g>
			</g>
			<g>
				<g>
					
						<ellipse transform="matrix(0.7435 -0.6687 0.6687 0.7435 -145.763 273.1311)" style="fill:#EEC12D;" cx="283.195" cy="326.595" rx="17.39" ry="14.066"/>
				</g>
				<g>
					<g>
						<path style="fill:#FFFFFF;" d="M289.126,335.016h-15.442c-0.543,0-0.889-0.44-0.773-0.982l3.282-15.442
							c0.115-0.543,0.648-0.982,1.191-0.982h15.442c0.543,0,0.889,0.44,0.773,0.982l-3.282,15.442
							C290.202,334.576,289.669,335.016,289.126,335.016z M275.084,333.051h13.477l2.865-13.477h-13.478L275.084,333.051z"/>
					</g>
					<g>
						<path style="fill:#182341;" d="M282.222,330.804c-0.272,0-0.509-0.113-0.653-0.314l-3.127-4.367
							c-0.285-0.397-0.13-1.019,0.346-1.388c0.476-0.369,1.092-0.346,1.377,0.051l2.408,3.362l8.007-10.647
							c0.359-0.477,0.992-0.656,1.416-0.398c0.423,0.258,0.474,0.853,0.115,1.331l-8.915,11.854
							c-0.21,0.279-0.526,0.468-0.848,0.508C282.306,330.802,282.263,330.804,282.222,330.804z"/>
					</g>
				</g>
			</g>
		</g>
		<g>
			<path style="fill:#FFA8C7;" d="M285.213,218.196l40.173,2.17c5.36-19.875,20.06-36.958,38.194-46.893
				c-4.681-11.349-9.594-23.229-14.028-33.89C319.014,156.129,294.218,184.802,285.213,218.196z"/>
			<path style="fill:#7B85EF;" d="M412.033,124.626c-21.429-1.158-43.11,4.461-62.481,14.957
				c4.434,10.661,9.346,22.541,14.028,33.89c11.683-6.401,24.79-9.835,37.744-9.135c12.189,0.658,22.563,4.889,30.365,11.602
				l32.247-30.89C450.779,133.231,433.016,125.759,412.033,124.626z"/>
			<path style="fill:#243971;" d="M463.935,145.05l-32.247,30.89c13.358,11.494,19.172,30.273,13.608,50.903l40.173,2.17
				C494.593,195.179,485.395,164.328,463.935,145.05z"/>
			<polygon style="fill:#7B85EF;" points="493.401,230.271 275.818,218.519 276.434,216.234 494.017,227.987 			"/>
			<polygon style="fill:#EEC12D;stroke:#000000;stroke-width:0.5;stroke-miterlimit:10;" points="473.857,163.671 431.28,189.841 
				388.704,216.012 385.41,206.747 382.117,197.482 427.987,180.576 			"/>
		</g>
		<g>
			<polygon style="fill:#FFFFFF;" points="501.011,264.28 327.014,258.517 329.054,248.182 503.05,253.945 			"/>
			<polygon style="fill:#FFFFFF;" points="495.517,290.981 321.521,285.218 323.561,274.883 497.557,280.645 			"/>
			<polygon style="fill:#FFFFFF;" points="489.409,320.187 315.413,314.424 317.453,304.089 491.449,309.852 			"/>
			<polygon style="fill:#FFFFFF;" points="484.127,346.953 310.131,341.19 312.171,330.855 486.167,336.617 			"/>
			<polygon style="fill:#FFFFFF;" points="479.039,374.483 305.043,368.721 307.082,358.385 481.078,364.148 			"/>
		</g>
		<g>
			<g>
				<path style="fill:#EEC12D;stroke:#000000;stroke-width:0.5;stroke-miterlimit:10;" d="M494.654,280.875l-162.908,62.785
					c-4.576,1.763-8.942-0.83-9.733-5.78l-6.17-38.622c-0.791-4.951,2.289-10.414,6.864-12.177l162.908-62.785
					c4.576-1.764,8.942,0.83,9.733,5.78l6.17,38.622C502.309,273.648,499.229,279.111,494.654,280.875z M323.201,290.176
					c-2.998,1.155-5.016,4.734-4.497,7.978l6.17,38.622c0.518,3.244,3.379,4.943,6.377,3.787l162.908-62.785
					c2.998-1.155,5.016-4.734,4.497-7.978l-6.17-38.622c-0.518-3.244-3.379-4.943-6.377-3.787L323.201,290.176z"/>
			</g>
			<g>
				<path style="fill:#EEC12D;stroke:#000000;stroke-width:0.5;stroke-miterlimit:10;" d="M343.504,315.631l-8.039,3.098
					l-0.855,4.572l-5.486,2.115l5.106-23.804l5.296-2.041l11.706,17.324l-5.595,2.156L343.504,315.631z M341.243,311.948
					l-3.496-5.64l-1.393,7.524L341.243,311.948z"/>
				<path style="fill:#EEC12D;stroke:#000000;stroke-width:0.5;stroke-miterlimit:10;" d="M367.822,296.745
					c0.746,4.672-2.048,8.837-7.235,10.837l-3.314,1.277l0.859,5.377l-5.377,2.072l-3.286-20.569l8.691-3.35
					C363.347,290.39,367.071,292.043,367.822,296.745z M362.39,298.838c-0.305-1.91-1.597-2.598-3.824-1.739l-2.987,1.151
					l0.962,6.024l2.987-1.151C361.755,302.264,362.69,300.719,362.39,298.838z"/>
				<path style="fill:#EEC12D;stroke:#000000;stroke-width:0.5;stroke-miterlimit:10;" d="M387.57,289.134
					c0.746,4.672-2.048,8.838-7.235,10.837l-3.314,1.277l0.859,5.377l-5.377,2.073l-3.286-20.569l8.691-3.35
					C383.095,282.779,386.819,284.432,387.57,289.134z M382.138,291.227c-0.305-1.91-1.597-2.598-3.824-1.739l-2.987,1.151
					l0.962,6.024l2.987-1.151C381.503,294.653,382.439,293.108,382.138,291.227z"/>
				<path style="fill:#EEC12D;stroke:#000000;stroke-width:0.5;stroke-miterlimit:10;" d="M399.688,292.418l-2.933,1.13l0.873,5.466
					l-5.377,2.072l-3.286-20.569l8.691-3.35c5.187-1.999,8.911-0.346,9.662,4.355c0.484,3.027-0.517,5.783-2.683,7.928l5.134,4.884
					l-5.758,2.219L399.688,292.418z M398.062,281.877l-2.987,1.151l0.962,6.024l2.987-1.151c2.227-0.858,3.162-2.404,2.862-4.285
					C401.581,281.706,400.289,281.019,398.062,281.877z"/>
				<path style="fill:#EEC12D;stroke:#000000;stroke-width:0.5;stroke-miterlimit:10;" d="M409.73,283.432
					c-0.986-6.171,2.773-12.423,8.856-14.768c6.084-2.345,11.288,0.454,12.274,6.624c0.986,6.171-2.773,12.423-8.856,14.768
					S410.716,289.603,409.73,283.432z M425.429,277.382c-0.568-3.555-3.193-5.008-6.072-3.898s-4.762,4.3-4.194,7.855
					c0.568,3.556,3.193,5.008,6.072,3.899C424.113,284.127,425.997,280.937,425.429,277.382z"/>
				<path style="fill:#EEC12D;stroke:#000000;stroke-width:0.5;stroke-miterlimit:10;" d="M450.677,256.733l-4.862,23.71
					l-5.296,2.041l-11.407-17.44l5.812-2.24l7.301,11.41l3.128-15.43L450.677,256.733z"/>
				<path style="fill:#EEC12D;stroke:#000000;stroke-width:0.5;stroke-miterlimit:10;" d="M469.624,266.494l0.718,4.496
					l-15.263,5.883l-3.286-20.569l14.911-5.747l0.718,4.496l-9.588,3.695l0.554,3.468l8.447-3.256l0.695,4.349l-8.447,3.255
					l0.601,3.761L469.624,266.494z"/>
				<path style="fill:#EEC12D;stroke:#000000;stroke-width:0.5;stroke-miterlimit:10;" d="M470.047,249.268l8.99-3.465
					c6.301-2.429,11.253-0.126,12.263,6.192c1.009,6.318-2.675,11.949-8.976,14.378l-8.99,3.465L470.047,249.268z M481.363,261.814
					c3.232-1.246,5.072-4.169,4.504-7.725c-0.568-3.555-3.074-4.804-6.307-3.559l-3.395,1.308l1.803,11.284L481.363,261.814z"/>
			</g>
		</g>
	</g>
	<g>
		<g>
			<path style="fill:#5F88F0;" d="M619.415,401.352c0,0,15.633-9.365,27.098-22.152c11.464-12.786,34.133-33.855,46.379-38.983
				c4.169,11.457,10.162,24.915-3.127,38.983c-13.288,14.068-20.063,10.653-27.098,23.7c-7.035,13.046-14.656,21.228-25.86,26.977
				h-41.623L619.415,401.352z"/>
			<path style="fill:#243971;" d="M681.036,353.774c-2.345,5.232-3.481,14.218-7.817,18.003
				c-11.529,10.063-31.758,13.296-38.127,18.273v0c3.809-3.156,7.82-6.834,11.421-10.849c11.464-12.786,34.133-33.855,46.379-38.983
				C688.587,342.411,683.381,348.542,681.036,353.774z"/>
			<path style="fill:none;stroke:#182341;stroke-width:0.5;stroke-miterlimit:10;" d="M689.243,347.335
				c-4.885,5.203-9.185,22.041-17.783,31.865c-8.598,9.824-11.334,11.648-21.496,18.116c-10.162,6.468-27.944,21.339-32.634,32.561"
				/>
			<path style="fill:#5F88F0;" d="M613.422,289.683c0,0-4.885,10.448-6.644,25.748c-1.63,14.178,0.782,17.047-2.345,33.131
				c-3.127,16.083-5.993,20.681-9.25,39.444s-5.602,41.871-5.602,41.871h-30.765c0,0,2.365-6.191,2.691-21.449
				c0.326-15.258-2.105-35.001,3.214-53.987C570.04,335.456,583.719,299.965,613.422,289.683z"/>
			<path style="fill:none;stroke:#182341;stroke-width:0.5;stroke-miterlimit:10;" d="M603.651,299.634
				c0,0-16.415,15.783-19.932,39.236c-3.518,23.454-0.391,67.348-3.518,79.178"/>
			<g>
				<path style="fill:#243971;" d="M679.863,295.016c0,0-14.591,4.839-24.232,5.944c-9.64,1.106-21.365,2.211-27.358,7.961
					c-5.993,5.749-5.993,19.68-14.07,24.103c-8.077,4.423-22.147,18.424-26.837,29.667c-4.69,11.242-7.556,32.913-7.817,41.537
					c-0.26,8.624-5.211,21.67-7.556,25.651h30.224c0,0,21.887-18.575,27.619-33.169c5.732-14.594,4.169-30.294,10.162-38.918
					c5.993-8.624,16.628-20.187,25.013-30.529C676.476,313.122,679.863,295.016,679.863,295.016z"/>
				<path style="fill:#5F88F0;" d="M639.998,357.79c-1.423,2.048-2.412,4.505-3.182,7.242c-0.001,0-0.01,0.005-0.01,0.005
					c2.15-19.851,6.058-31.376,13.354-37.775c7.296-6.4,27.358-22.932,29.703-32.246c0,0-3.387,18.106-14.852,32.246
					C656.626,337.603,645.991,349.166,639.998,357.79z"/>
				<path style="fill:none;stroke:#182341;stroke-width:0.5;stroke-miterlimit:10;" d="M669.962,302.066
					c-9.901,7.74-21.887,12.78-30.224,21.648c-8.338,8.868-19.46,27.046-26.316,39.632c-12.452,22.861-21.626,55.918-29.703,66.532"
					/>
			</g>
		</g>
		<g>
			<g>
				<path style="fill:#1A263D;" d="M595.379,349.178c-0.017-0.232-0.043-0.456-0.069-0.688c-0.654,1.032-1.54,1.789-2.529,2.142
					c-1.041,0.387-2.28,0.336-3.415-0.103c1.333-1.927,1.574-4.585,0.542-6.702c-0.241-0.508-0.619-1.032-1.093-1.428
					c-0.473-0.396-1.041-0.671-1.686-0.671c-1.351,0-2.375,1.221-2.59,2.409c-0.189,1.041,0.077,2.211,0.783,3.467
					c0.783,1.385,1.824,2.478,3.028,3.149c-1.067,1.144-2.607,1.807-4.164,1.867c-0.68,0.043-1.368-0.043-2.013-0.249
					c-0.052-0.017-0.103-0.034-0.155-0.06c-2.125-0.749-3.734-2.805-3.94-5.059c-0.017-0.172-0.155-0.301-0.353-0.284
					c-0.172,0.009-0.301,0.172-0.284,0.344c0.224,2.555,2.091,4.887,4.534,5.678c0.009,0,0.009,0,0.017,0
					c0.619,0.198,1.273,0.292,1.919,0.292c0.12,0,0.232,0,0.353-0.009c1.772-0.094,3.519-0.877,4.689-2.219
					c1.325,0.568,2.805,0.645,4.052,0.189c0.903-0.327,1.721-0.946,2.4-1.772C595.397,349.376,595.388,349.273,595.379,349.178z
					 M588.764,350.254c-1.135-0.619-2.134-1.643-2.882-2.968c-0.628-1.118-0.869-2.142-0.706-3.028
					c0.163-0.929,0.938-1.884,1.953-1.884c0.998,0,1.789,0.895,2.202,1.738C590.278,346.055,590.037,348.507,588.764,350.254z"/>
			</g>
			<g>
				<polygon style="fill:#FFA8C7;" points="501.609,410.393 499.278,422.102 497.789,429.561 491.733,425.337 485.048,428.915 
					483.878,422.196 481.547,408.767 				"/>
			</g>
			<g>
				<path style="fill:#FFA8C7;" d="M468.074,346.683c0,0-4.832-22.99,2.636-26.651c7.468-3.661,22.258,10.836,22.258,10.836
					L468.074,346.683z"/>
			</g>
			<g>
				<path style="fill:#FFA8C7;" d="M582.585,381.095c-3.295,11.201-12.883,18.158-12.883,18.158l0.783,7.958l0.748,7.639
					l-8.345-2.418l-6.366,6.366l-2.658-6.254l-1.953-4.611c0,0-14.72,3.837-29.216,5.162l-1.514,7.786l-1.566,8.027l-7.244-3.519
					l-6.814,3.734c0,0-0.835-3.226-1.841-6.684c-1.144-3.863-2.512-8.018-3.209-8.25c-1.316-0.439-10.978-1.092-16.251-3.071
					c-5.274-1.979-9.67-5.712-14.72-5.936c0,0-1.11,0.327-2.787,0.456c-4.276,0.344-12.199-0.611-14.565-11.657
					c-3.295-15.374,0.224-29.207,9.007-27.676c0,0,0.026-0.017,0.077-0.052c0.422-0.31,2.478-2.151,3.656-9.61
					c1.316-8.345,4.172-17.791,14.72-23.288c10.539-5.489,26.79-7.906,45.243-9.222c18.453-1.316,35.367-4.173,48.985,6.813
					C587.493,341.922,585.88,369.894,582.585,381.095z"/>
			</g>
			<g>
				<path style="fill:#1A263D;" d="M541.023,326.035l-29.362,2.048c-0.482,0.034-0.904-0.333-0.938-0.815l0,0
					c-0.034-0.482,0.333-0.904,0.815-0.938l29.362-2.048c0.482-0.034,0.904,0.333,0.938,0.815l0,0
					C541.872,325.579,541.505,326.001,541.023,326.035z"/>
			</g>
			<g>
				<path style="fill:#1A263D;" d="M505.558,429.445c-0.043,0-0.086-0.008-0.126-0.026c-0.091-0.039-0.16-0.117-0.186-0.212
					c-0.008-0.032-0.884-3.248-1.752-6.139c-0.778-2.593-2.798-7.568-3.211-8.577c-0.99-0.09-5.591-0.527-10.877-1.301
					c-4.816-0.705-6.986-1.998-9.734-3.635c-0.728-0.433-1.501-0.894-2.383-1.381c-4.133-2.28-7.749-2.67-7.786-2.674
					c-0.177-0.018-0.306-0.176-0.288-0.353c0.018-0.176,0.147-0.311,0.354-0.289c0.152,0.015,3.776,0.403,8.032,2.751
					c0.888,0.49,1.668,0.954,2.401,1.391c2.792,1.663,4.808,2.865,9.498,3.551c5.926,0.867,10.985,1.309,11.035,1.314
					c0.12,0.01,0.224,0.087,0.27,0.198c0.024,0.059,2.433,5.908,3.307,8.818c0.69,2.303,1.387,4.81,1.648,5.761l6.455-3.537
					c0.092-0.05,0.203-0.053,0.297-0.007l6.89,3.348c0.475-1.827,2.513-9.889,3.19-16.049c0.507-4.606,0.513-5.171,0.512-5.22
					c-0.024-0.176,0.101-0.326,0.277-0.349c0.178-0.023,0.34,0.113,0.365,0.29c0.027,0.2-0.16,2.15-0.512,5.35
					c-0.77,7.004-3.282,16.429-3.308,16.524c-0.025,0.093-0.09,0.17-0.177,0.21c-0.088,0.04-0.189,0.038-0.276-0.003l-7.093-3.446
					l-6.667,3.654C505.665,429.431,505.612,429.445,505.558,429.445z"/>
			</g>
			<g>
				<path style="fill:#1A263D;" d="M498.093,369.16c0,2.952-2.393,5.345-5.345,5.345c-2.952,0-5.345-2.393-5.345-5.345
					c0-2.952,2.393-5.345,5.345-5.345C495.7,363.815,498.093,366.208,498.093,369.16z"/>
			</g>
			<g>
				<polygon style="fill:#1A263D;" points="499.278,422.102 497.789,429.561 491.733,425.337 485.048,428.915 483.878,422.196 				
					"/>
			</g>
			<g>
				<path style="fill:#1A263D;" d="M521.181,420.88l-1.566,8.027l-7.244-3.519l-6.814,3.734c0,0-0.835-3.226-1.841-6.684
					L521.181,420.88z"/>
			</g>
			<g>
				<polygon style="fill:#1A263D;" points="571.233,414.85 562.888,412.432 556.522,418.798 553.864,412.544 570.485,407.21 				"/>
			</g>
			<g>
				<path style="fill:#1A263D;" d="M461.269,366.574c-0.091,0-0.183-0.04-0.247-0.116c-0.114-0.136-0.097-0.339,0.039-0.453
					c0.044-0.039,2.494-2.262,3.765-10.876c1.29-8.743,6.022-16.155,13.324-20.871c6.992-4.515,12.63-6.03,12.686-6.045
					c0.175-0.045,0.349,0.058,0.394,0.23c0.045,0.172-0.057,0.349-0.229,0.394c-0.056,0.014-5.602,1.508-12.501,5.962
					c-7.143,4.614-11.772,11.867-13.035,20.423c-1.32,8.951-3.88,11.185-3.987,11.276
					C461.416,366.549,461.342,366.574,461.269,366.574z"/>
			</g>
			<g>
				<path style="fill:#1A263D;" d="M527.38,357.842c-0.045,0-0.091-0.01-0.135-0.029c-0.161-0.075-0.232-0.266-0.158-0.428
					c0.102-0.22,10.043-22.057,2.464-26.829c-7.608-4.795-24.631,9.924-24.802,10.074c-0.134,0.117-0.338,0.103-0.455-0.031
					c-0.118-0.134-0.103-0.338,0.03-0.455c0.713-0.622,17.547-15.185,25.571-10.134c8.054,5.071-1.799,26.726-2.222,27.645
					C527.618,357.772,527.501,357.842,527.38,357.842z"/>
			</g>
			<g>
				<path style="fill:#1A263D;" d="M509.89,343.676c-0.042,0-0.084-0.008-0.124-0.025c-0.165-0.069-0.242-0.258-0.173-0.422
					c1.072-2.564,3.162-4.871,6.386-7.053c3.196-2.163,6.039-3.158,8.7-3.042c1.724,0.074,3.13,0.675,3.96,1.692
					c0.113,0.138,0.092,0.341-0.046,0.454c-0.139,0.112-0.342,0.093-0.455-0.046c-0.959-1.177-2.597-1.417-3.487-1.455
					c-2.521-0.107-5.233,0.85-8.311,2.932c-3.117,2.109-5.13,4.322-6.152,6.767C510.137,343.601,510.016,343.676,509.89,343.676z"/>
			</g>
			<g>
				<path style="fill:#1A263D;" d="M475.758,336.61c-0.151,0-0.286-0.106-0.317-0.26c-0.578-2.911-1.537-5.739-2.85-8.405
					c-0.358-0.727-0.796-1.551-1.458-2.116c-1.342-1.143-3.609-0.965-4.756,0.377c-0.116,0.136-0.32,0.151-0.454,0.036
					c-0.136-0.116-0.152-0.319-0.036-0.455c1.365-1.598,4.065-1.813,5.665-0.449c0.756,0.644,1.232,1.536,1.619,2.322
					c1.337,2.717,2.315,5.598,2.904,8.564c0.034,0.175-0.079,0.345-0.254,0.379C475.8,336.608,475.778,336.61,475.758,336.61z"/>
			</g>
			<g>
				<g>
					<path style="fill:#F0E0C4;" d="M575.725,356.506c0.388,0.694,0.837,1.376,1.465,1.863c0.629,0.488,1.468,0.76,2.235,0.55
						c1.253-0.342,1.855-1.752,2.146-3.018c0.717-3.13,0.607-6.517-0.409-9.571c-0.609-1.832-2.382-5.635-4.893-5.229
						c-2.665,0.431-2.766,5.116-2.741,7.116C573.565,351.104,574.314,353.985,575.725,356.506z"/>
				</g>
				<g>
					<path style="fill:#F0E0C4;" d="M576.532,364.972c-0.117,1.069,0.128,2.304,1.04,2.874c0.268,0.167,0.575,0.263,0.885,0.321
						c1.225,0.227,2.548-0.162,3.455-1.017c1.622-1.53,1.831-4.956-0.586-5.849C578.948,360.422,576.77,362.807,576.532,364.972z"/>
				</g>
			</g>
			<g>
				<g>
					<g>
						<path style="fill:#FFA8C7;" d="M474.058,399.024c-0.65,2.161-1.735,4.117-3.573,5.392c-3.278,2.274-8.258,1.768-11.509-0.255
							c-2.993-1.863-5.096-4.944-6.269-8.268c-2.469-7-2.721-16.598-0.053-23.542c0.71-1.848,1.724-3.66,3.334-4.813
							c7.237-5.184,14.179,4.473,16.572,10.295c1.828,4.446,2.675,9.292,2.483,14.094
							C474.954,394.135,474.758,396.699,474.058,399.024z"/>
					</g>
					<g style="opacity:0.33;">
						<path style="fill:#F0E0C4;" d="M474.058,399.024c-0.65,2.161-1.735,4.117-3.573,5.392c-3.278,2.274-8.258,1.768-11.509-0.255
							c-2.993-1.863-5.096-4.944-6.269-8.268c-2.469-7-2.721-16.598-0.053-23.542c0.71-1.848,1.724-3.66,3.334-4.813
							c7.237-5.184,14.179,4.473,16.572,10.295c1.828,4.446,2.675,9.292,2.483,14.094
							C474.954,394.135,474.758,396.699,474.058,399.024z"/>
					</g>
				</g>
				<g>
					<g>
						<path style="fill:#1A263D;" d="M458.348,386.342c0.139,3.232-0.356,5.878-1.106,5.91c-0.75,0.032-1.471-2.561-1.61-5.793
							c-0.139-3.232,0.356-5.878,1.106-5.91C457.488,380.516,458.209,383.11,458.348,386.342z"/>
					</g>
					<g>
						<path style="fill:#1A263D;" d="M465.462,386.036c0.139,3.232-0.356,5.878-1.106,5.91s-1.471-2.561-1.61-5.793
							c-0.139-3.232,0.356-5.878,1.106-5.91C464.602,380.21,465.323,382.804,465.462,386.036z"/>
					</g>
				</g>
			</g>
		</g>
		<g>
			<g>
				<path style="fill:#7B85EF;" d="M588.202,264.647c0.182,0.154,0.373,0.319,0.544,0.502c0.199,0.214,0.369,0.437,0.527,0.689
					l0.541,0.581l-0.124,0.173c0.75,1.604,0.853,3.677,0.383,6.074c-0.035,0.166-0.071,0.333-0.116,0.488
					c-0.317,1.417-0.825,2.936-1.513,4.547c-0.064,0.136-0.119,0.281-0.183,0.417c-0.568,1.27-1.256,2.596-2.044,3.957
					c-0.064,0.136-0.137,0.261-0.221,0.396c-0.703,1.187-1.485,2.41-2.338,3.641c-0.083,0.115-0.166,0.23-0.25,0.365
					c-0.799,1.124-1.648,2.257-2.565,3.396c-0.093,0.125-0.176,0.24-0.269,0.345c-0.866,1.073-1.772,2.144-2.736,3.213
					c-0.093,0.105-0.185,0.21-0.288,0.325c-0.923,1.011-1.886,2.021-2.898,3.039c-0.092,0.105-0.194,0.2-0.306,0.304
					c-0.716,0.723-1.461,1.436-2.225,2.147c-0.265,0.247-0.54,0.503-0.815,0.74l-0.316,0.294c-1.059,0.947-2.116,1.855-3.182,2.734
					c-0.102,0.095-0.213,0.18-0.325,0.264c-1.117,0.906-2.232,1.772-3.344,2.58c-0.112,0.085-0.223,0.169-0.334,0.254
					c-1.183,0.854-2.355,1.659-3.515,2.396c-0.111,0.085-0.232,0.159-0.353,0.234c-1.26,0.792-2.498,1.526-3.714,2.182
					c-0.121,0.074-0.251,0.139-0.372,0.213c-1.366,0.719-2.689,1.362-3.97,1.907c-0.14,0.054-0.28,0.108-0.41,0.172
					c-1.53,0.625-2.987,1.125-4.369,1.479c-0.149,0.044-0.308,0.078-0.467,0.111c-1.471,0.361-2.838,0.549-4.089,0.553
					c-0.187,0.003-0.384-0.004-0.581-0.011c-2.136-0.067-3.857-0.71-5.033-1.974c-0.228-0.244-0.963-0.911-1.139-1.204l-3.299-4.464
					l3.448-3.266c1.958-7.074,8.338-16.531,17.604-25.155c9.44-8.786,19.509-14.524,26.739-15.832l3.72-3.443L588.202,264.647z"/>
				<g>
					<g>
						<path style="fill:#F0E0C4;" d="M535.399,307.685l7.144,7.676c-0.187,0.003-0.384-0.004-0.581-0.011l-6.869-7.38
							L535.399,307.685z"/>
					</g>
					<g>
						<path style="fill:#F0E0C4;" d="M538.172,305.105l8.928,9.592c-0.149,0.044-0.308,0.078-0.467,0.111l-8.767-9.419
							L538.172,305.105z"/>
					</g>
					<g>
						<path style="fill:#F0E0C4;" d="M541.557,301.955l10.323,11.091c-0.14,0.054-0.28,0.108-0.41,0.172l-10.219-10.979
							L541.557,301.955z"/>
					</g>
					<g>
						<path style="fill:#F0E0C4;" d="M544.941,298.805l11.281,12.121c-0.121,0.074-0.251,0.139-0.372,0.213l-11.215-12.049
							L544.941,298.805z"/>
					</g>
					<g>
						<path style="fill:#F0E0C4;" d="M548.325,295.655l11.964,12.855c-0.111,0.085-0.232,0.159-0.353,0.234l-11.917-12.804
							L548.325,295.655z"/>
					</g>
					<g>
						<path style="fill:#F0E0C4;" d="M551.71,292.505l12.429,13.354c-0.112,0.085-0.223,0.169-0.334,0.254l-12.401-13.324
							L551.71,292.505z"/>
					</g>
					<g>
						<path style="fill:#F0E0C4;" d="M555.094,289.355l12.714,13.66c-0.102,0.095-0.213,0.18-0.325,0.264l-12.695-13.64
							L555.094,289.355z"/>
					</g>
					<g>
						
							<rect x="564.519" y="283.829" transform="matrix(0.732 -0.6813 0.6813 0.732 -48.4402 463.3409)" style="fill:#F0E0C4;" width="0.432" height="18.828"/>
					</g>
					<g>
						<path style="fill:#F0E0C4;" d="M561.863,283.055l12.79,13.741c-0.092,0.105-0.194,0.2-0.306,0.304l-12.799-13.752
							L561.863,283.055z"/>
					</g>
					<g>
						<path style="fill:#F0E0C4;" d="M565.247,279.905l12.591,13.528c-0.093,0.105-0.185,0.21-0.288,0.325l-12.619-13.558
							L565.247,279.905z"/>
					</g>
					<g>
						<path style="fill:#F0E0C4;" d="M568.632,276.755l12.211,13.12c-0.093,0.125-0.176,0.24-0.269,0.345l-12.259-13.171
							L568.632,276.755z"/>
					</g>
					<g>
						<path style="fill:#F0E0C4;" d="M572.016,273.605l11.642,12.508c-0.083,0.115-0.166,0.23-0.25,0.365L571.7,273.899
							L572.016,273.605z"/>
					</g>
					<g>
						<path style="fill:#F0E0C4;" d="M575.401,270.454l10.816,11.621c-0.064,0.136-0.137,0.261-0.221,0.396l-10.911-11.723
							L575.401,270.454z"/>
					</g>
					<g>
						<path style="fill:#F0E0C4;" d="M578.775,267.314l9.668,10.388c-0.064,0.136-0.119,0.281-0.183,0.417l-9.791-10.52
							L578.775,267.314z"/>
					</g>
					<g>
						<path style="fill:#F0E0C4;" d="M582.159,264.164l7.913,8.502c-0.035,0.166-0.071,0.333-0.116,0.488l-8.103-8.706
							L582.159,264.164z"/>
					</g>
				</g>
				<path style="fill:#F8C05A;" d="M585.308,261.066c5.128,5.51-2.313,20.773-16.621,34.09
					c-14.308,13.318-30.065,19.646-35.194,14.136c-5.128-5.51,2.313-20.773,16.622-34.09
					C564.422,261.885,580.179,255.556,585.308,261.066z"/>
				<path style="fill:none;stroke:#F0E0C4;stroke-width:0.5;stroke-miterlimit:10;" d="M583.312,262.923
					c4.571,4.911-2.882,19.279-15.635,31.149c-12.753,11.87-27.863,18.665-32.434,13.753c-4.571-4.911,3.128-19.669,15.881-31.539
					C563.876,264.417,578.741,258.012,583.312,262.923z"/>
			</g>
			<g>
				<path style="fill:#F0E0C4;" d="M569.329,274.156c-0.186-0.162-0.367-0.264-0.55-0.281c-0.185-0.029-0.395,0.042-0.621,0.198
					c-0.227,0.145-0.428,0.299-0.582,0.449c-0.154,0.149-0.384,0.379-0.689,0.702l-1.308,1.372
					c-0.784-0.317-1.708-0.244-2.771,0.231c-1.063,0.475-2.041,1.195-2.957,2.151c-0.949,0.983-1.602,1.911-1.959,2.772
					c-0.369,0.862-0.512,1.579-0.414,2.161c0.086,0.584,0.238,1.113,0.421,1.589c0.132,0.337,0.238,0.653,0.307,0.96l0.011,0.108
					c0.022,0.095,0.044,0.189,0.053,0.273c0.045,0.431-0.096,0.809-0.434,1.171c-0.948,0.995-1.727,1.186-2.359,0.587
					c-0.324-0.317-0.324-0.898-0.004-1.767l0.053-0.187c0.249-0.849,0.267-1.371,0.065-1.568c-0.187-0.162-0.503-0.177-0.972-0.031
					c-0.795,0.265-1.39,0.594-1.771,0.997c-0.227,0.254-0.473,0.679-0.712,1.285l-0.219,0.568c-0.143,0.366-0.238,0.848-0.282,1.458
					c-0.045,0.61,0.036,1.146,0.256,1.631l-1.439,1.507c-0.317,0.324-0.534,0.565-0.674,0.724c-0.139,0.172-0.288,0.369-0.432,0.614
					c-0.156,0.246-0.218,0.459-0.187,0.637c0.031,0.178,0.135,0.361,0.309,0.524c0.176,0.175,0.355,0.265,0.538,0.282
					c0.183,0.017,0.395-0.042,0.62-0.198c0.239-0.146,0.44-0.301,0.594-0.45c0.164-0.163,0.394-0.393,0.688-0.702l0.284-0.296
					l0.284-0.296l0.916-0.956c0.779,0.269,1.716,0.207,2.823-0.2c0.221-0.084,0.442-0.167,0.66-0.287
					c0.127-0.062,0.252-0.135,0.389-0.21c0.787-0.458,1.588-1.123,2.416-1.997c0.262-0.27,0.5-0.537,0.704-0.788
					c0.096-0.119,0.194-0.226,0.279-0.344c0.34-0.447,0.611-0.863,0.81-1.271c0.382-0.742,0.548-1.353,0.511-1.821
					c-0.037-0.468-0.134-0.93-0.267-1.388c-0.146-0.469-0.307-0.851-0.498-1.17c-0.178-0.308-0.263-0.662-0.219-1.042
					c0.032-0.391,0.233-0.775,0.604-1.165c0.305-0.323,0.634-0.527,0.967-0.586c0.344-0.072,0.59-0.026,0.752,0.127
					c0.149,0.154,0.25,0.3,0.315,0.463c0.054,0.164,0.079,0.294,0.068,0.417c-0.013,0.11-0.035,0.246-0.067,0.394
					c-0.032,0.16-0.057,0.26-0.076,0.31c-0.05,0.441,0.005,0.738,0.153,0.88c0.242,0.229,0.776,0.124,1.626-0.304
					c0.436-0.227,0.776-0.445,1.034-0.641c0.114-0.072,0.214-0.156,0.29-0.236c0.011-0.013,0.032-0.04,0.031-0.052
					c0.217-0.241,0.37-0.62,0.508-1.155l0.011-0.122l0.078-0.298c0.029-0.185,0.036-0.464,0.01-0.824
					c-0.027-0.372-0.111-0.715-0.254-1.038l1.297-1.359c0.381-0.403,0.674-0.724,0.856-0.949c0.182-0.225,0.311-0.493,0.365-0.789
					C569.633,274.632,569.557,274.374,569.329,274.156z"/>
			</g>
		</g>
		<g>
			<g>
				<path style="fill:#7B85EF;" d="M545.756,422.176v5.335c0,0.406,0.885,0.802,2.501,1.167c0.077,0.01,0.164,0.031,0.241,0.052
					c0.875,0.188,1.943,0.365,3.194,0.531c0.077,0.01,0.154,0.021,0.24,0.031c0.76,0.094,1.578,0.188,2.463,0.281
					c0.077,0.01,0.164,0.021,0.24,0.021c0.856,0.083,1.76,0.167,2.703,0.25c0.077,0,0.154,0.01,0.24,0.021
					c0.866,0.063,1.77,0.135,2.713,0.198c0.077,0,0.154,0,0.24,0.01c0.866,0.052,1.77,0.104,2.703,0.156
					c0.077,0.01,0.154,0.01,0.24,0.01c0.875,0.052,1.789,0.094,2.713,0.135c0.077,0,0.164,0,0.24,0.01
					c0.885,0.031,1.78,0.062,2.703,0.094c0.077,0.01,0.163,0.01,0.24,0.01c0.885,0.031,1.789,0.052,2.703,0.073
					c0.077,0.01,0.164,0.01,0.241,0.01c0.895,0.021,1.799,0.042,2.713,0.052c0.077,0,0.154,0.01,0.24,0.01
					c0.885,0.01,1.789,0.021,2.703,0.032h0.241c0.895,0.01,1.799,0.021,2.713,0.01c0.077,0.01,0.154,0.01,0.231,0.01h0.866
					c0.616,0,1.231,0,1.847-0.01c0.077,0.01,0.163,0.01,0.24,0c0.798,0,1.597,0,2.376-0.021c0.077,0.01,0.164,0.01,0.24,0
					c0.914-0.011,1.818-0.021,2.713-0.031c0.077,0,0.164-0.01,0.24-0.01c0.914-0.01,1.818-0.031,2.703-0.063
					c0.077,0,0.164,0,0.241-0.01c0.923-0.021,1.818-0.042,2.703-0.073c0.077,0,0.163-0.011,0.24-0.011
					c0.924-0.031,1.828-0.063,2.713-0.104c0.086-0.01,0.164-0.01,0.24-0.01c0.923-0.042,1.828-0.083,2.703-0.135
					c0.077,0,0.164-0.01,0.241-0.01c0.933-0.052,1.837-0.115,2.703-0.167c0.077-0.01,0.163-0.01,0.24-0.01
					c0.943-0.073,1.847-0.146,2.713-0.219c0.077,0,0.164-0.01,0.241-0.021c0.952-0.073,1.857-0.167,2.703-0.26
					c0.087,0,0.164-0.01,0.24-0.021c0.991-0.104,1.895-0.219,2.713-0.344c0.087,0,0.164-0.021,0.24-0.031
					c1.058-0.156,1.962-0.323,2.703-0.49c0.087-0.021,0.164-0.042,0.24-0.063c1.357-0.333,2.088-0.688,2.088-1.063v-5.335H545.756z"
					/>
				<g>
					<g>
						<g>
							<path style="fill:#F0E0C4;" d="M615.962,422.176v6.461c0.087-0.021,0.164-0.042,0.24-0.063v-6.398H615.962z"/>
						</g>
						<g>
							<path style="fill:#F0E0C4;" d="M613.019,422.176v6.982c0.087,0,0.164-0.021,0.24-0.031v-6.95H613.019z"/>
						</g>
						<g>
							<path style="fill:#F0E0C4;" d="M610.065,422.176v7.346c0.087,0,0.164-0.01,0.24-0.021v-7.325H610.065z"/>
						</g>
						<g>
							<path style="fill:#F0E0C4;" d="M607.122,422.176v7.628c0.077,0,0.164-0.01,0.241-0.021v-7.607H607.122z"/>
						</g>
						<g>
							<path style="fill:#F0E0C4;" d="M604.168,421.384v8.649c0.077-0.01,0.163-0.01,0.24-0.01v-8.638H604.168z"/>
						</g>
						<g>
							<path style="fill:#F0E0C4;" d="M601.225,421.384v8.826c0.077,0,0.164-0.01,0.241-0.01v-8.815H601.225z"/>
						</g>
						<g>
							<path style="fill:#F0E0C4;" d="M598.281,421.384v8.972c0.086-0.01,0.164-0.01,0.24-0.01v-8.961H598.281z"/>
						</g>
						<g>
							<path style="fill:#F0E0C4;" d="M595.328,421.384v9.086c0.077,0,0.163-0.011,0.24-0.011v-9.076H595.328z"/>
						</g>
						<g>
							<path style="fill:#F0E0C4;" d="M592.384,421.384v9.17c0.077,0,0.164,0,0.241-0.01v-9.159H592.384z"/>
						</g>
						<g>
							<path style="fill:#F0E0C4;" d="M589.44,421.384v9.243c0.077,0,0.164-0.01,0.24-0.01v-9.232H589.44z"/>
						</g>
						<g>
							<path style="fill:#F0E0C4;" d="M586.487,421.384v9.274c0.077,0.01,0.164,0.01,0.24,0v-9.274H586.487z"/>
						</g>
					</g>
					<g>
						<g>
							<path style="fill:#F0E0C4;" d="M583.87,421.384v9.295c0.077,0.01,0.163,0.01,0.24,0v-9.295H583.87z"/>
						</g>
						<g>
							<path style="fill:#F0E0C4;" d="M580.927,421.384v9.295c0.077,0.01,0.154,0.01,0.231,0.01v-9.305H580.927z"/>
						</g>
						<g>
							<rect x="577.973" y="421.384" style="fill:#F0E0C4;" width="0.241" height="9.284"/>
						</g>
						<g>
							<path style="fill:#F0E0C4;" d="M575.03,421.384v9.243c0.077,0,0.154,0.01,0.24,0.01v-9.253H575.03z"/>
						</g>
						<g>
							<path style="fill:#F0E0C4;" d="M572.076,421.384v9.18c0.077,0.01,0.164,0.01,0.241,0.01v-9.191H572.076z"/>
						</g>
						<g>
							<path style="fill:#F0E0C4;" d="M569.133,421.384v9.097c0.077,0.01,0.163,0.01,0.24,0.01v-9.107H569.133z"/>
						</g>
						<g>
							<path style="fill:#F0E0C4;" d="M566.189,421.384v8.993c0.077,0,0.164,0,0.24,0.01v-9.003H566.189z"/>
						</g>
						<g>
							<path style="fill:#F0E0C4;" d="M563.236,421.384v8.847c0.077,0.01,0.154,0.01,0.24,0.01v-8.857H563.236z"/>
						</g>
						<g>
							<path style="fill:#F0E0C4;" d="M560.292,421.384v8.68c0.077,0,0.154,0,0.24,0.01v-8.69H560.292z"/>
						</g>
						<g>
							<path style="fill:#F0E0C4;" d="M557.339,421.384v8.461c0.077,0,0.154,0.01,0.24,0.021v-8.482H557.339z"/>
						</g>
						<g>
							<path style="fill:#F0E0C4;" d="M554.395,421.384v8.19c0.077,0.01,0.164,0.021,0.24,0.021v-8.211H554.395z"/>
						</g>
						<g>
							<path style="fill:#F0E0C4;" d="M551.692,421.384v7.878c0.077,0.01,0.154,0.021,0.24,0.031v-7.909H551.692z"/>
						</g>
						<g>
							<path style="fill:#F0E0C4;" d="M548.258,421.384v7.294c0.077,0.01,0.164,0.031,0.241,0.052v-7.346H548.258z"/>
						</g>
					</g>
				</g>
				<ellipse style="fill:#F8C05A;" cx="582.025" cy="422.181" rx="36.269" ry="3.725"/>
				<path style="fill:none;stroke:#F0E0C4;stroke-width:0.5;stroke-miterlimit:10;" d="M549.21,422.269
					c0,1.567,14.692,2.838,32.815,2.838s32.815-1.271,32.815-2.838c0-1.567-14.692-2.838-32.815-2.838
					S549.21,420.702,549.21,422.269z"/>
			</g>
			<g>
				<path style="fill:#7B85EF;" d="M545.756,415.613v5.335c0,0.406,0.885,0.802,2.501,1.167c0.077,0.01,0.164,0.031,0.241,0.052
					c0.875,0.188,1.943,0.365,3.194,0.532c0.077,0.01,0.154,0.021,0.24,0.031c0.76,0.094,1.578,0.188,2.463,0.281
					c0.077,0.01,0.164,0.021,0.24,0.021c0.856,0.083,1.76,0.167,2.703,0.25c0.077,0,0.154,0.01,0.24,0.021
					c0.866,0.062,1.77,0.135,2.713,0.198c0.077,0,0.154,0,0.24,0.01c0.866,0.052,1.77,0.104,2.703,0.156
					c0.077,0.011,0.154,0.011,0.24,0.011c0.875,0.052,1.789,0.094,2.713,0.135c0.077,0,0.164,0,0.24,0.01
					c0.885,0.031,1.78,0.063,2.703,0.094c0.077,0.01,0.163,0.01,0.24,0.01c0.885,0.031,1.789,0.052,2.703,0.073
					c0.077,0.01,0.164,0.01,0.241,0.01c0.895,0.021,1.799,0.042,2.713,0.052c0.077,0,0.154,0.01,0.24,0.01
					c0.885,0.01,1.789,0.021,2.703,0.031h0.241c0.895,0.01,1.799,0.021,2.713,0.01c0.077,0.01,0.154,0.01,0.231,0.01h0.866
					c0.616,0,1.231,0,1.847-0.01c0.077,0.01,0.163,0.01,0.24,0c0.798,0,1.597,0,2.376-0.021c0.077,0.01,0.164,0.01,0.24,0
					c0.914-0.01,1.818-0.021,2.713-0.031c0.077,0,0.164-0.01,0.24-0.01c0.914-0.01,1.818-0.031,2.703-0.062
					c0.077,0,0.164,0,0.241-0.01c0.923-0.021,1.818-0.042,2.703-0.073c0.077,0,0.163-0.01,0.24-0.01
					c0.924-0.031,1.828-0.063,2.713-0.104c0.086-0.01,0.164-0.01,0.24-0.01c0.923-0.042,1.828-0.083,2.703-0.135
					c0.077,0,0.164-0.01,0.241-0.01c0.933-0.052,1.837-0.115,2.703-0.167c0.077-0.01,0.163-0.01,0.24-0.01
					c0.943-0.073,1.847-0.146,2.713-0.219c0.077,0,0.164-0.011,0.241-0.021c0.952-0.073,1.857-0.167,2.703-0.261
					c0.087,0,0.164-0.01,0.24-0.021c0.991-0.104,1.895-0.219,2.713-0.344c0.087,0,0.164-0.021,0.24-0.031
					c1.058-0.156,1.962-0.323,2.703-0.49c0.087-0.021,0.164-0.042,0.24-0.063c1.357-0.333,2.088-0.688,2.088-1.063v-5.335H545.756z"
					/>
				<g>
					<g>
						<g>
							<path style="fill:#F0E0C4;" d="M615.962,415.613v6.461c0.087-0.021,0.164-0.042,0.24-0.063v-6.398H615.962z"/>
						</g>
						<g>
							<path style="fill:#F0E0C4;" d="M613.019,415.613v6.982c0.087,0,0.164-0.021,0.24-0.031v-6.95H613.019z"/>
						</g>
						<g>
							<path style="fill:#F0E0C4;" d="M610.065,415.613v7.346c0.087,0,0.164-0.01,0.24-0.021v-7.325H610.065z"/>
						</g>
						<g>
							<path style="fill:#F0E0C4;" d="M607.122,415.613v7.628c0.077,0,0.164-0.011,0.241-0.021v-7.607H607.122z"/>
						</g>
						<g>
							<path style="fill:#F0E0C4;" d="M604.168,414.821v8.649c0.077-0.01,0.163-0.01,0.24-0.01v-8.638H604.168z"/>
						</g>
						<g>
							<path style="fill:#F0E0C4;" d="M601.225,414.821v8.826c0.077,0,0.164-0.01,0.241-0.01v-8.815H601.225z"/>
						</g>
						<g>
							<path style="fill:#F0E0C4;" d="M598.281,414.821v8.972c0.086-0.01,0.164-0.01,0.24-0.01v-8.961H598.281z"/>
						</g>
						<g>
							<path style="fill:#F0E0C4;" d="M595.328,414.821v9.086c0.077,0,0.163-0.01,0.24-0.01v-9.076H595.328z"/>
						</g>
						<g>
							<path style="fill:#F0E0C4;" d="M592.384,414.821v9.17c0.077,0,0.164,0,0.241-0.01v-9.159H592.384z"/>
						</g>
						<g>
							<path style="fill:#F0E0C4;" d="M589.44,414.821v9.243c0.077,0,0.164-0.01,0.24-0.01v-9.232H589.44z"/>
						</g>
						<g>
							<path style="fill:#F0E0C4;" d="M586.487,414.821v9.274c0.077,0.01,0.164,0.01,0.24,0v-9.274H586.487z"/>
						</g>
					</g>
					<g>
						<g>
							<path style="fill:#F0E0C4;" d="M583.87,414.821v9.295c0.077,0.01,0.163,0.01,0.24,0v-9.295H583.87z"/>
						</g>
						<g>
							<path style="fill:#F0E0C4;" d="M580.927,414.821v9.295c0.077,0.01,0.154,0.01,0.231,0.01v-9.305H580.927z"/>
						</g>
						<g>
							<rect x="577.973" y="414.821" style="fill:#F0E0C4;" width="0.241" height="9.284"/>
						</g>
						<g>
							<path style="fill:#F0E0C4;" d="M575.03,414.821v9.243c0.077,0,0.154,0.01,0.24,0.01v-9.253H575.03z"/>
						</g>
						<g>
							<path style="fill:#F0E0C4;" d="M572.076,414.821v9.18c0.077,0.01,0.164,0.01,0.241,0.01v-9.19H572.076z"/>
						</g>
						<g>
							<path style="fill:#F0E0C4;" d="M569.133,414.821v9.097c0.077,0.01,0.163,0.01,0.24,0.01v-9.107H569.133z"/>
						</g>
						<g>
							<path style="fill:#F0E0C4;" d="M566.189,414.821v8.993c0.077,0,0.164,0,0.24,0.01v-9.003H566.189z"/>
						</g>
						<g>
							<path style="fill:#F0E0C4;" d="M563.236,414.821v8.847c0.077,0.011,0.154,0.011,0.24,0.011v-8.857H563.236z"/>
						</g>
						<g>
							<path style="fill:#F0E0C4;" d="M560.292,414.821v8.68c0.077,0,0.154,0,0.24,0.01v-8.69H560.292z"/>
						</g>
						<g>
							<path style="fill:#F0E0C4;" d="M557.339,414.821v8.461c0.077,0,0.154,0.01,0.24,0.021v-8.482H557.339z"/>
						</g>
						<g>
							<path style="fill:#F0E0C4;" d="M554.395,414.821v8.19c0.077,0.01,0.164,0.021,0.24,0.021v-8.211H554.395z"/>
						</g>
						<g>
							<path style="fill:#F0E0C4;" d="M551.692,414.821v7.878c0.077,0.01,0.154,0.021,0.24,0.031v-7.909H551.692z"/>
						</g>
						<g>
							<path style="fill:#F0E0C4;" d="M548.258,414.821v7.294c0.077,0.01,0.164,0.031,0.241,0.052v-7.346H548.258z"/>
						</g>
					</g>
				</g>
				<path style="fill:#F8C05A;" d="M545.756,415.618c0,2.057,16.238,3.725,36.269,3.725c20.031,0,36.269-1.668,36.269-3.725
					c0-2.057-16.238-3.725-36.269-3.725C561.994,411.893,545.756,413.561,545.756,415.618z"/>
				<path style="fill:none;stroke:#F0E0C4;stroke-width:0.5;stroke-miterlimit:10;" d="M549.21,415.707
					c0,1.567,14.692,2.838,32.815,2.838s32.815-1.271,32.815-2.838s-14.692-2.838-32.815-2.838S549.21,414.139,549.21,415.707z"/>
			</g>
			<g>
				<path style="fill:#7B85EF;" d="M553.371,409.228v5.335c0,0.406,0.885,0.802,2.501,1.167c0.077,0.01,0.164,0.031,0.241,0.052
					c0.875,0.188,1.943,0.365,3.194,0.532c0.077,0.01,0.154,0.021,0.24,0.031c0.76,0.094,1.578,0.188,2.463,0.281
					c0.077,0.01,0.164,0.021,0.241,0.021c0.856,0.083,1.76,0.167,2.703,0.25c0.077,0,0.154,0.01,0.24,0.021
					c0.866,0.063,1.77,0.136,2.713,0.198c0.077,0,0.154,0,0.241,0.01c0.866,0.052,1.77,0.104,2.703,0.156
					c0.077,0.01,0.154,0.01,0.24,0.01c0.875,0.052,1.789,0.094,2.713,0.135c0.077,0,0.164,0,0.24,0.01
					c0.885,0.031,1.78,0.063,2.703,0.094c0.077,0.01,0.164,0.01,0.241,0.01c0.885,0.031,1.789,0.052,2.703,0.073
					c0.077,0.01,0.163,0.01,0.241,0.01c0.895,0.021,1.799,0.042,2.713,0.052c0.077,0,0.154,0.01,0.24,0.01
					c0.885,0.01,1.789,0.021,2.703,0.031h0.24c0.895,0.01,1.799,0.021,2.713,0.01c0.077,0.01,0.154,0.01,0.231,0.01h0.866
					c0.616,0,1.231,0,1.847-0.01c0.077,0.01,0.164,0.01,0.24,0c0.799,0,1.597,0,2.376-0.021c0.077,0.01,0.164,0.01,0.24,0
					c0.914-0.011,1.818-0.021,2.713-0.031c0.077,0,0.164-0.01,0.241-0.01c0.914-0.01,1.818-0.031,2.703-0.062
					c0.077,0,0.164,0,0.241-0.01c0.923-0.021,1.818-0.042,2.703-0.073c0.077,0,0.164-0.011,0.24-0.011
					c0.924-0.031,1.828-0.063,2.713-0.104c0.087-0.01,0.163-0.01,0.24-0.01c0.924-0.042,1.828-0.083,2.703-0.135
					c0.077,0,0.164-0.01,0.241-0.01c0.933-0.052,1.838-0.115,2.703-0.167c0.077-0.01,0.164-0.01,0.24-0.01
					c0.943-0.073,1.847-0.146,2.713-0.219c0.077,0,0.164-0.01,0.241-0.021c0.952-0.073,1.857-0.167,2.703-0.26
					c0.087,0,0.164-0.01,0.24-0.021c0.991-0.104,1.895-0.219,2.713-0.344c0.086,0,0.163-0.021,0.24-0.031
					c1.058-0.156,1.962-0.323,2.703-0.49c0.087-0.021,0.164-0.042,0.24-0.062c1.357-0.334,2.088-0.688,2.088-1.063v-5.335H553.371z"
					/>
				<g>
					<g>
						<g>
							<path style="fill:#F0E0C4;" d="M623.576,409.228v6.461c0.087-0.021,0.164-0.042,0.24-0.062v-6.398H623.576z"/>
						</g>
						<g>
							<path style="fill:#F0E0C4;" d="M620.633,409.228v6.982c0.086,0,0.163-0.021,0.24-0.031v-6.95H620.633z"/>
						</g>
						<g>
							<path style="fill:#F0E0C4;" d="M617.679,409.228v7.346c0.087,0,0.164-0.01,0.24-0.021v-7.325H617.679z"/>
						</g>
						<g>
							<path style="fill:#F0E0C4;" d="M614.736,409.228v7.628c0.077,0,0.164-0.01,0.241-0.021v-7.607H614.736z"/>
						</g>
						<g>
							<path style="fill:#F0E0C4;" d="M611.782,408.436v8.649c0.077-0.01,0.164-0.01,0.24-0.01v-8.638H611.782z"/>
						</g>
						<g>
							<path style="fill:#F0E0C4;" d="M608.839,408.436v8.826c0.077,0,0.164-0.01,0.241-0.01v-8.815H608.839z"/>
						</g>
						<g>
							<path style="fill:#F0E0C4;" d="M605.895,408.436v8.972c0.087-0.01,0.163-0.01,0.24-0.01v-8.961H605.895z"/>
						</g>
						<g>
							<path style="fill:#F0E0C4;" d="M602.942,408.436v9.087c0.077,0,0.164-0.011,0.24-0.011v-9.076H602.942z"/>
						</g>
						<g>
							<path style="fill:#F0E0C4;" d="M599.998,408.436v9.17c0.077,0,0.164,0,0.241-0.01v-9.159H599.998z"/>
						</g>
						<g>
							<path style="fill:#F0E0C4;" d="M597.054,408.436v9.243c0.077,0,0.164-0.01,0.241-0.01v-9.232H597.054z"/>
						</g>
						<g>
							<path style="fill:#F0E0C4;" d="M594.101,408.436v9.274c0.077,0.01,0.164,0.01,0.24,0v-9.274H594.101z"/>
						</g>
					</g>
					<g>
						<g>
							<path style="fill:#F0E0C4;" d="M591.484,408.436v9.295c0.077,0.01,0.164,0.01,0.24,0v-9.295H591.484z"/>
						</g>
						<g>
							<path style="fill:#F0E0C4;" d="M588.541,408.436v9.295c0.077,0.01,0.154,0.01,0.231,0.01v-9.305H588.541z"/>
						</g>
						<g>
							<rect x="585.588" y="408.436" style="fill:#F0E0C4;" width="0.24" height="9.285"/>
						</g>
						<g>
							<path style="fill:#F0E0C4;" d="M582.644,408.436v9.243c0.077,0,0.154,0.01,0.24,0.01v-9.253H582.644z"/>
						</g>
						<g>
							<path style="fill:#F0E0C4;" d="M579.69,408.436v9.18c0.077,0.01,0.163,0.01,0.241,0.01v-9.191H579.69z"/>
						</g>
						<g>
							<path style="fill:#F0E0C4;" d="M576.747,408.436v9.097c0.077,0.01,0.164,0.01,0.241,0.01v-9.107H576.747z"/>
						</g>
						<g>
							<path style="fill:#F0E0C4;" d="M573.803,408.436v8.993c0.077,0,0.164,0,0.24,0.01v-9.003H573.803z"/>
						</g>
						<g>
							<path style="fill:#F0E0C4;" d="M570.85,408.436v8.847c0.077,0.01,0.154,0.01,0.24,0.01v-8.857H570.85z"/>
						</g>
						<g>
							<path style="fill:#F0E0C4;" d="M567.906,408.436v8.68c0.077,0,0.154,0,0.241,0.01v-8.69H567.906z"/>
						</g>
						<g>
							<path style="fill:#F0E0C4;" d="M564.953,408.436v8.461c0.077,0,0.154,0.01,0.24,0.021v-8.482H564.953z"/>
						</g>
						<g>
							<path style="fill:#F0E0C4;" d="M562.009,408.436v8.19c0.077,0.01,0.164,0.021,0.241,0.021v-8.211H562.009z"/>
						</g>
						<g>
							<path style="fill:#F0E0C4;" d="M559.306,408.436v7.878c0.077,0.01,0.154,0.021,0.24,0.031v-7.909H559.306z"/>
						</g>
						<g>
							<path style="fill:#F0E0C4;" d="M555.872,408.436v7.294c0.077,0.01,0.164,0.031,0.241,0.052v-7.346H555.872z"/>
						</g>
					</g>
				</g>
				<path style="fill:#F8C05A;" d="M553.37,409.233c0,2.057,16.238,3.724,36.269,3.724c20.031,0,36.269-1.667,36.269-3.724
					s-16.238-3.725-36.269-3.725C569.608,405.508,553.37,407.176,553.37,409.233z"/>
				
					<ellipse style="fill:none;stroke:#F0E0C4;stroke-width:0.5;stroke-miterlimit:10;" cx="589.639" cy="409.322" rx="32.815" ry="2.838"/>
			</g>
			<g>
				<path style="fill:#7B85EF;" d="M550.178,401.779v5.335c0,0.406,0.885,0.802,2.501,1.167c0.077,0.01,0.164,0.031,0.241,0.052
					c0.875,0.188,1.943,0.365,3.194,0.531c0.077,0.01,0.154,0.021,0.241,0.031c0.76,0.094,1.578,0.188,2.463,0.281
					c0.077,0.01,0.164,0.021,0.241,0.021c0.856,0.083,1.76,0.167,2.703,0.25c0.077,0,0.154,0.01,0.24,0.021
					c0.866,0.063,1.77,0.136,2.713,0.198c0.077,0,0.154,0,0.24,0.01c0.866,0.052,1.77,0.104,2.703,0.156
					c0.077,0.01,0.154,0.01,0.241,0.01c0.875,0.052,1.789,0.094,2.713,0.135c0.077,0,0.164,0,0.241,0.01
					c0.885,0.031,1.779,0.063,2.703,0.094c0.077,0.01,0.163,0.01,0.24,0.01c0.885,0.031,1.789,0.052,2.703,0.073
					c0.077,0.01,0.164,0.01,0.24,0.01c0.895,0.021,1.799,0.042,2.713,0.052c0.077,0,0.154,0.01,0.24,0.01
					c0.885,0.01,1.789,0.021,2.703,0.031h0.241c0.895,0.01,1.799,0.021,2.713,0.01c0.077,0.01,0.154,0.01,0.231,0.01h0.866
					c0.616,0,1.231,0,1.847-0.01c0.077,0.01,0.163,0.01,0.241,0c0.798,0,1.597,0,2.376-0.021c0.077,0.01,0.164,0.01,0.24,0
					c0.914-0.01,1.818-0.021,2.713-0.031c0.077,0,0.164-0.01,0.24-0.01c0.914-0.01,1.818-0.031,2.703-0.063
					c0.077,0,0.164,0,0.241-0.01c0.924-0.021,1.818-0.042,2.703-0.073c0.077,0,0.164-0.01,0.241-0.01
					c0.924-0.031,1.828-0.062,2.713-0.104c0.087-0.01,0.164-0.01,0.24-0.01c0.924-0.042,1.828-0.084,2.703-0.136
					c0.077,0,0.164-0.01,0.24-0.01c0.933-0.052,1.837-0.115,2.703-0.167c0.077-0.01,0.163-0.01,0.241-0.01
					c0.943-0.073,1.847-0.146,2.713-0.219c0.077,0,0.163-0.01,0.24-0.021c0.953-0.073,1.857-0.167,2.703-0.261
					c0.087,0,0.164-0.01,0.241-0.021c0.991-0.104,1.895-0.219,2.713-0.344c0.087,0,0.164-0.021,0.241-0.031
					c1.058-0.156,1.963-0.323,2.703-0.49c0.087-0.021,0.164-0.042,0.24-0.063c1.356-0.333,2.088-0.688,2.088-1.063v-5.335H550.178z"
					/>
				<g>
					<g>
						<g>
							<path style="fill:#F0E0C4;" d="M620.383,401.779v6.46c0.087-0.021,0.164-0.042,0.24-0.063v-6.398H620.383z"/>
						</g>
						<g>
							<path style="fill:#F0E0C4;" d="M617.44,401.779v6.981c0.087,0,0.164-0.021,0.241-0.031v-6.95H617.44z"/>
						</g>
						<g>
							<path style="fill:#F0E0C4;" d="M614.486,401.779v7.346c0.087,0,0.164-0.01,0.241-0.021v-7.325H614.486z"/>
						</g>
						<g>
							<path style="fill:#F0E0C4;" d="M611.543,401.779v7.628c0.077,0,0.163-0.01,0.24-0.021v-7.607H611.543z"/>
						</g>
						<g>
							<path style="fill:#F0E0C4;" d="M608.589,400.987v8.649c0.077-0.01,0.163-0.01,0.241-0.01v-8.638H608.589z"/>
						</g>
						<g>
							<path style="fill:#F0E0C4;" d="M605.646,400.987v8.826c0.077,0,0.164-0.01,0.24-0.01v-8.816H605.646z"/>
						</g>
						<g>
							<path style="fill:#F0E0C4;" d="M602.702,400.987v8.972c0.087-0.01,0.164-0.01,0.24-0.01v-8.961H602.702z"/>
						</g>
						<g>
							<path style="fill:#F0E0C4;" d="M599.749,400.987v9.086c0.077,0,0.164-0.01,0.241-0.01v-9.076H599.749z"/>
						</g>
						<g>
							<path style="fill:#F0E0C4;" d="M596.805,400.987v9.17c0.077,0,0.164,0,0.241-0.01v-9.159H596.805z"/>
						</g>
						<g>
							<path style="fill:#F0E0C4;" d="M593.861,400.987v9.243c0.077,0,0.164-0.01,0.24-0.01v-9.232H593.861z"/>
						</g>
						<g>
							<path style="fill:#F0E0C4;" d="M590.908,400.987v9.274c0.077,0.01,0.164,0.01,0.24,0v-9.274H590.908z"/>
						</g>
					</g>
					<g>
						<g>
							<path style="fill:#F0E0C4;" d="M588.292,400.987v9.295c0.077,0.01,0.163,0.01,0.241,0v-9.295H588.292z"/>
						</g>
						<g>
							<path style="fill:#F0E0C4;" d="M585.348,400.987v9.295c0.077,0.01,0.154,0.01,0.231,0.01v-9.305H585.348z"/>
						</g>
						<g>
							<rect x="582.394" y="400.987" style="fill:#F0E0C4;" width="0.241" height="9.284"/>
						</g>
						<g>
							<path style="fill:#F0E0C4;" d="M579.451,400.987v9.243c0.077,0,0.154,0.01,0.24,0.01v-9.253H579.451z"/>
						</g>
						<g>
							<path style="fill:#F0E0C4;" d="M576.497,400.987v9.18c0.077,0.01,0.164,0.01,0.24,0.01v-9.191H576.497z"/>
						</g>
						<g>
							<path style="fill:#F0E0C4;" d="M573.554,400.987v9.097c0.077,0.01,0.163,0.01,0.24,0.01v-9.107H573.554z"/>
						</g>
						<g>
							<path style="fill:#F0E0C4;" d="M570.61,400.987v8.993c0.077,0,0.164,0,0.241,0.01v-9.003H570.61z"/>
						</g>
						<g>
							<path style="fill:#F0E0C4;" d="M567.657,400.987v8.847c0.077,0.01,0.154,0.01,0.241,0.01v-8.857H567.657z"/>
						</g>
						<g>
							<path style="fill:#F0E0C4;" d="M564.713,400.987v8.68c0.077,0,0.154,0,0.24,0.01v-8.69H564.713z"/>
						</g>
						<g>
							<path style="fill:#F0E0C4;" d="M561.76,400.987v8.461c0.077,0,0.154,0.01,0.24,0.021v-8.482H561.76z"/>
						</g>
						<g>
							<path style="fill:#F0E0C4;" d="M558.816,400.987v8.19c0.077,0.01,0.164,0.021,0.241,0.021v-8.211H558.816z"/>
						</g>
						<g>
							<path style="fill:#F0E0C4;" d="M556.113,400.987v7.878c0.077,0.01,0.154,0.021,0.241,0.031v-7.909H556.113z"/>
						</g>
						<g>
							<path style="fill:#F0E0C4;" d="M552.679,400.987v7.294c0.077,0.01,0.164,0.031,0.241,0.052v-7.346H552.679z"/>
						</g>
					</g>
				</g>
				<path style="fill:#F8C05A;" d="M550.177,401.784c0,2.057,16.238,3.725,36.269,3.725c20.031,0,36.269-1.668,36.269-3.725
					c0-2.057-16.238-3.725-36.269-3.725C566.415,398.059,550.177,399.727,550.177,401.784z"/>
				<path style="fill:none;stroke:#F0E0C4;stroke-width:0.5;stroke-miterlimit:10;" d="M553.631,401.872
					c0,1.567,14.692,2.838,32.815,2.838c18.123,0,32.815-1.271,32.815-2.838c0-1.567-14.692-2.838-32.815-2.838
					C568.323,399.034,553.631,400.305,553.631,401.872z"/>
			</g>
			<g>
				<path style="fill:#7B85EF;" d="M544.774,395.926v5.335c0,0.406,0.885,0.802,2.501,1.167c0.077,0.01,0.164,0.031,0.24,0.052
					c0.875,0.188,1.943,0.365,3.194,0.531c0.077,0.01,0.154,0.021,0.241,0.031c0.76,0.094,1.578,0.188,2.463,0.281
					c0.077,0.01,0.164,0.021,0.241,0.021c0.856,0.084,1.76,0.167,2.703,0.25c0.077,0,0.154,0.01,0.24,0.021
					c0.866,0.063,1.77,0.135,2.713,0.198c0.077,0,0.154,0,0.24,0.01c0.866,0.052,1.77,0.104,2.703,0.156
					c0.077,0.01,0.154,0.01,0.241,0.01c0.875,0.052,1.789,0.094,2.713,0.135c0.077,0,0.164,0,0.24,0.01
					c0.885,0.031,1.78,0.063,2.703,0.094c0.077,0.01,0.164,0.01,0.241,0.01c0.885,0.031,1.789,0.052,2.703,0.073
					c0.077,0.01,0.163,0.01,0.24,0.01c0.894,0.021,1.799,0.042,2.713,0.052c0.077,0,0.154,0.01,0.24,0.01
					c0.885,0.01,1.789,0.021,2.703,0.031h0.241c0.895,0.01,1.799,0.021,2.713,0.01c0.077,0.01,0.154,0.01,0.231,0.01h0.866
					c0.616,0,1.231,0,1.847-0.01c0.077,0.01,0.164,0.01,0.24,0c0.798,0,1.597,0,2.376-0.021c0.077,0.01,0.164,0.01,0.24,0
					c0.914-0.01,1.818-0.021,2.713-0.031c0.077,0,0.164-0.01,0.241-0.01c0.914-0.01,1.818-0.031,2.703-0.063
					c0.077,0,0.164,0,0.24-0.01c0.924-0.021,1.818-0.042,2.703-0.073c0.077,0,0.164-0.01,0.24-0.01
					c0.924-0.031,1.828-0.063,2.713-0.104c0.087-0.01,0.164-0.01,0.24-0.01c0.924-0.042,1.828-0.083,2.703-0.135
					c0.077,0,0.164-0.01,0.24-0.01c0.933-0.052,1.837-0.115,2.703-0.167c0.077-0.01,0.164-0.01,0.24-0.01
					c0.943-0.073,1.847-0.146,2.713-0.219c0.077,0,0.164-0.011,0.241-0.021c0.952-0.073,1.857-0.167,2.703-0.26
					c0.087,0,0.164-0.01,0.241-0.021c0.991-0.104,1.895-0.219,2.713-0.344c0.086,0,0.163-0.021,0.24-0.031
					c1.058-0.156,1.962-0.323,2.703-0.49c0.087-0.021,0.164-0.042,0.241-0.062c1.357-0.333,2.087-0.688,2.087-1.063v-5.335H544.774z
					"/>
				<g>
					<g>
						<g>
							<path style="fill:#F0E0C4;" d="M614.98,395.926v6.46c0.087-0.021,0.164-0.042,0.241-0.062v-6.398H614.98z"/>
						</g>
						<g>
							<path style="fill:#F0E0C4;" d="M612.036,395.926v6.982c0.086,0,0.163-0.021,0.24-0.031v-6.95H612.036z"/>
						</g>
						<g>
							<path style="fill:#F0E0C4;" d="M609.083,395.926v7.346c0.087,0,0.164-0.01,0.241-0.021v-7.325H609.083z"/>
						</g>
						<g>
							<path style="fill:#F0E0C4;" d="M606.139,395.926v7.628c0.077,0,0.164-0.011,0.241-0.021v-7.607H606.139z"/>
						</g>
						<g>
							<path style="fill:#F0E0C4;" d="M603.186,395.134v8.649c0.077-0.01,0.164-0.01,0.24-0.01v-8.638H603.186z"/>
						</g>
						<g>
							<path style="fill:#F0E0C4;" d="M600.242,395.134v8.826c0.077,0,0.164-0.01,0.24-0.01v-8.815H600.242z"/>
						</g>
						<g>
							<path style="fill:#F0E0C4;" d="M597.299,395.134v8.972c0.087-0.01,0.164-0.01,0.24-0.01v-8.961H597.299z"/>
						</g>
						<g>
							<path style="fill:#F0E0C4;" d="M594.345,395.134v9.086c0.077,0,0.164-0.01,0.24-0.01v-9.076H594.345z"/>
						</g>
						<g>
							<path style="fill:#F0E0C4;" d="M591.402,395.134v9.17c0.077,0,0.164,0,0.24-0.01v-9.159H591.402z"/>
						</g>
						<g>
							<path style="fill:#F0E0C4;" d="M588.458,395.134v9.243c0.077,0,0.164-0.01,0.241-0.01v-9.232H588.458z"/>
						</g>
						<g>
							<path style="fill:#F0E0C4;" d="M585.505,395.134v9.274c0.077,0.01,0.164,0.01,0.24,0v-9.274H585.505z"/>
						</g>
					</g>
					<g>
						<g>
							<path style="fill:#F0E0C4;" d="M582.888,395.134v9.295c0.077,0.01,0.164,0.01,0.24,0v-9.295H582.888z"/>
						</g>
						<g>
							<path style="fill:#F0E0C4;" d="M579.944,395.134v9.295c0.077,0.01,0.154,0.01,0.231,0.01v-9.305H579.944z"/>
						</g>
						<g>
							<rect x="576.991" y="395.134" style="fill:#F0E0C4;" width="0.241" height="9.284"/>
						</g>
						<g>
							<path style="fill:#F0E0C4;" d="M574.047,395.134v9.243c0.077,0,0.154,0.01,0.24,0.01v-9.253H574.047z"/>
						</g>
						<g>
							<path style="fill:#F0E0C4;" d="M571.094,395.134v9.18c0.077,0.01,0.163,0.01,0.24,0.01v-9.191H571.094z"/>
						</g>
						<g>
							<path style="fill:#F0E0C4;" d="M568.15,395.134v9.097c0.077,0.01,0.164,0.01,0.241,0.01v-9.107H568.15z"/>
						</g>
						<g>
							<path style="fill:#F0E0C4;" d="M565.207,395.134v8.993c0.077,0,0.164,0,0.24,0.01v-9.003H565.207z"/>
						</g>
						<g>
							<path style="fill:#F0E0C4;" d="M562.253,395.134v8.847c0.077,0.01,0.154,0.01,0.241,0.01v-8.857H562.253z"/>
						</g>
						<g>
							<path style="fill:#F0E0C4;" d="M559.31,395.134v8.68c0.077,0,0.154,0,0.24,0.01v-8.691H559.31z"/>
						</g>
						<g>
							<path style="fill:#F0E0C4;" d="M556.356,395.134v8.461c0.077,0,0.154,0.01,0.24,0.021v-8.482H556.356z"/>
						</g>
						<g>
							<path style="fill:#F0E0C4;" d="M553.413,395.134v8.19c0.077,0.01,0.164,0.021,0.241,0.021v-8.211H553.413z"/>
						</g>
						<g>
							<path style="fill:#F0E0C4;" d="M550.709,395.134v7.878c0.077,0.01,0.154,0.021,0.241,0.031v-7.909H550.709z"/>
						</g>
						<g>
							<path style="fill:#F0E0C4;" d="M547.275,395.134v7.294c0.077,0.01,0.164,0.031,0.24,0.052v-7.346H547.275z"/>
						</g>
					</g>
				</g>
				<ellipse style="fill:#F8C05A;" cx="581.042" cy="395.931" rx="36.269" ry="3.725"/>
				<path style="fill:none;stroke:#F0E0C4;stroke-width:0.5;stroke-miterlimit:10;" d="M548.227,396.019
					c0,1.567,14.692,2.838,32.815,2.838c18.123,0,32.815-1.27,32.815-2.838c0-1.567-14.692-2.838-32.815-2.838
					C562.919,393.181,548.227,394.452,548.227,396.019z"/>
			</g>
			<g>
				<path style="fill:#7B85EF;" d="M544.774,389.452v5.335c0,0.407,0.885,0.803,2.501,1.167c0.077,0.01,0.164,0.031,0.24,0.052
					c0.875,0.188,1.943,0.365,3.194,0.531c0.077,0.01,0.154,0.021,0.241,0.031c0.76,0.094,1.578,0.188,2.463,0.281
					c0.077,0.01,0.164,0.021,0.241,0.021c0.856,0.083,1.76,0.167,2.703,0.25c0.077,0,0.154,0.01,0.24,0.021
					c0.866,0.063,1.77,0.135,2.713,0.198c0.077,0,0.154,0,0.24,0.01c0.866,0.052,1.77,0.104,2.703,0.156
					c0.077,0.01,0.154,0.01,0.241,0.01c0.875,0.052,1.789,0.094,2.713,0.136c0.077,0,0.164,0,0.24,0.01
					c0.885,0.031,1.78,0.063,2.703,0.094c0.077,0.01,0.164,0.01,0.241,0.01c0.885,0.032,1.789,0.052,2.703,0.073
					c0.077,0.01,0.163,0.01,0.24,0.01c0.894,0.021,1.799,0.042,2.713,0.052c0.077,0,0.154,0.01,0.24,0.01
					c0.885,0.01,1.789,0.021,2.703,0.031h0.241c0.895,0.01,1.799,0.021,2.713,0.01c0.077,0.01,0.154,0.01,0.231,0.01h0.866
					c0.616,0,1.231,0,1.847-0.01c0.077,0.01,0.164,0.01,0.24,0c0.798,0,1.597,0,2.376-0.021c0.077,0.01,0.164,0.01,0.24,0
					c0.914-0.01,1.818-0.021,2.713-0.031c0.077,0,0.164-0.01,0.241-0.01c0.914-0.01,1.818-0.031,2.703-0.063
					c0.077,0,0.164,0,0.24-0.01c0.924-0.021,1.818-0.042,2.703-0.073c0.077,0,0.164-0.01,0.24-0.01
					c0.924-0.031,1.828-0.063,2.713-0.104c0.087-0.01,0.164-0.01,0.24-0.01c0.924-0.042,1.828-0.083,2.703-0.135
					c0.077,0,0.164-0.01,0.24-0.01c0.933-0.052,1.837-0.115,2.703-0.167c0.077-0.01,0.164-0.01,0.24-0.01
					c0.943-0.073,1.847-0.146,2.713-0.219c0.077,0,0.164-0.01,0.241-0.021c0.952-0.073,1.857-0.167,2.703-0.26
					c0.087,0,0.164-0.01,0.241-0.021c0.991-0.104,1.895-0.219,2.713-0.344c0.086,0,0.163-0.021,0.24-0.031
					c1.058-0.156,1.962-0.323,2.703-0.49c0.087-0.021,0.164-0.042,0.241-0.063c1.357-0.334,2.087-0.688,2.087-1.063v-5.335H544.774z
					"/>
				<g>
					<g>
						<g>
							<path style="fill:#F0E0C4;" d="M614.98,389.452v6.461c0.087-0.021,0.164-0.042,0.241-0.063v-6.398H614.98z"/>
						</g>
						<g>
							<path style="fill:#F0E0C4;" d="M612.036,389.452v6.982c0.086,0,0.163-0.021,0.24-0.031v-6.95H612.036z"/>
						</g>
						<g>
							<path style="fill:#F0E0C4;" d="M609.083,389.452v7.346c0.087,0,0.164-0.01,0.241-0.021v-7.325H609.083z"/>
						</g>
						<g>
							<path style="fill:#F0E0C4;" d="M606.139,389.452v7.628c0.077,0,0.164-0.01,0.241-0.021v-7.607H606.139z"/>
						</g>
						<g>
							<path style="fill:#F0E0C4;" d="M603.186,388.66v8.649c0.077-0.01,0.164-0.01,0.24-0.01v-8.638H603.186z"/>
						</g>
						<g>
							<path style="fill:#F0E0C4;" d="M600.242,388.66v8.826c0.077,0,0.164-0.01,0.24-0.01v-8.815H600.242z"/>
						</g>
						<g>
							<path style="fill:#F0E0C4;" d="M597.299,388.66v8.972c0.087-0.01,0.164-0.01,0.24-0.01v-8.961H597.299z"/>
						</g>
						<g>
							<path style="fill:#F0E0C4;" d="M594.345,388.66v9.086c0.077,0,0.164-0.01,0.24-0.01v-9.076H594.345z"/>
						</g>
						<g>
							<path style="fill:#F0E0C4;" d="M591.402,388.66v9.17c0.077,0,0.164,0,0.24-0.01v-9.159H591.402z"/>
						</g>
						<g>
							<path style="fill:#F0E0C4;" d="M588.458,388.66v9.243c0.077,0,0.164-0.01,0.241-0.01v-9.232H588.458z"/>
						</g>
						<g>
							<path style="fill:#F0E0C4;" d="M585.505,388.66v9.274c0.077,0.01,0.164,0.01,0.24,0v-9.274H585.505z"/>
						</g>
					</g>
					<g>
						<g>
							<path style="fill:#F0E0C4;" d="M582.888,388.66v9.295c0.077,0.01,0.164,0.01,0.24,0v-9.295H582.888z"/>
						</g>
						<g>
							<path style="fill:#F0E0C4;" d="M579.944,388.66v9.295c0.077,0.01,0.154,0.01,0.231,0.01v-9.305H579.944z"/>
						</g>
						<g>
							<rect x="576.991" y="388.66" style="fill:#F0E0C4;" width="0.241" height="9.285"/>
						</g>
						<g>
							<path style="fill:#F0E0C4;" d="M574.047,388.66v9.243c0.077,0,0.154,0.01,0.24,0.01v-9.253H574.047z"/>
						</g>
						<g>
							<path style="fill:#F0E0C4;" d="M571.094,388.66v9.18c0.077,0.01,0.163,0.01,0.24,0.01v-9.191H571.094z"/>
						</g>
						<g>
							<path style="fill:#F0E0C4;" d="M568.15,388.66v9.097c0.077,0.01,0.164,0.01,0.241,0.01v-9.107H568.15z"/>
						</g>
						<g>
							<path style="fill:#F0E0C4;" d="M565.207,388.66v8.993c0.077,0,0.164,0,0.24,0.01v-9.003H565.207z"/>
						</g>
						<g>
							<path style="fill:#F0E0C4;" d="M562.253,388.66v8.847c0.077,0.01,0.154,0.01,0.241,0.01v-8.857H562.253z"/>
						</g>
						<g>
							<path style="fill:#F0E0C4;" d="M559.31,388.66v8.68c0.077,0,0.154,0,0.24,0.01v-8.691H559.31z"/>
						</g>
						<g>
							<path style="fill:#F0E0C4;" d="M556.356,388.66v8.461c0.077,0,0.154,0.01,0.24,0.021v-8.482H556.356z"/>
						</g>
						<g>
							<path style="fill:#F0E0C4;" d="M553.413,388.66v8.19c0.077,0.01,0.164,0.021,0.241,0.021v-8.211H553.413z"/>
						</g>
						<g>
							<path style="fill:#F0E0C4;" d="M550.709,388.66v7.878c0.077,0.01,0.154,0.021,0.241,0.031v-7.909H550.709z"/>
						</g>
						<g>
							<path style="fill:#F0E0C4;" d="M547.275,388.66v7.294c0.077,0.01,0.164,0.031,0.24,0.052v-7.346H547.275z"/>
						</g>
					</g>
				</g>
				<path style="fill:#F8C05A;" d="M544.773,389.457c0,2.057,16.238,3.725,36.269,3.725c20.031,0,36.269-1.668,36.269-3.725
					s-16.238-3.725-36.269-3.725C561.011,385.732,544.773,387.4,544.773,389.457z"/>
				<path style="fill:none;stroke:#F0E0C4;stroke-width:0.5;stroke-miterlimit:10;" d="M548.227,389.545
					c0,1.567,14.692,2.838,32.815,2.838c18.123,0,32.815-1.271,32.815-2.838c0-1.567-14.692-2.838-32.815-2.838
					C562.919,386.708,548.227,387.978,548.227,389.545z"/>
			</g>
		</g>
	</g>
	<g>
		<g>
			<path style="fill:#182341;" d="M339.29,167.009l-5.149,4.706c2.333,0.535,4.615,1.22,6.815,2.043
				c0.136,0.052,0.271,0.105,0.423,0.171c0.12,0.038,0.256,0.091,0.377,0.144c0.196,0.079,0.392,0.158,0.589,0.252
				c5.826,2.373,11.112,5.793,15.596,10.037l-0.908-8.473c-1.674-1.263-3.432-2.418-5.26-3.48c-0.152-0.081-0.304-0.177-0.456-0.258
				c-3.349-1.919-6.901-3.488-10.629-4.693c-0.151-0.066-0.286-0.104-0.421-0.142C339.935,167.199,339.62,167.111,339.29,167.009z
				 M319.772,164.679c-3.762,0.187-7.432,0.724-10.953,1.593c-0.132,0.021-0.263,0.057-0.38,0.093
				c-5.303,1.313-10.289,3.35-14.845,6.001c-0.13,0.066-0.245,0.131-0.374,0.211c-5.388,3.166-10.188,7.175-14.201,11.84
				c-0.126,0.139-0.238,0.278-0.35,0.402c-0.671,0.787-1.31,1.603-1.935,2.432c-0.111,0.139-0.223,0.277-0.319,0.43
				c-2.551,3.424-4.689,7.138-6.371,11.081c-0.889,2.055-1.641,4.178-2.243,6.352c-0.053,0.121-0.091,0.256-0.114,0.39
				c-1.508,5.383-2.171,11.095-1.88,16.966c0.23,4.632,1.042,9.087,2.361,13.325c0.122,0.378,0.245,0.757,0.381,1.12
				c0.922,2.779,2.075,5.458,3.414,8.009c9.869,18.602,30.308,30.868,53.262,29.73c30.654-1.52,54.443-26.36,54.013-55.915
				c-0.016-0.62-0.033-1.255-0.064-1.89c-0.254-5.119-1.223-10.04-2.813-14.678c-0.122-0.364-0.243-0.727-0.394-1.09
				c-0.156-0.465-0.326-0.915-0.511-1.35c0.014-0.015,0.014-0.015-0.001-0.015c-0.035-0.116-0.085-0.217-0.119-0.319
				c-2.057-5.104-4.879-9.814-8.325-14.005c-0.08-0.115-0.174-0.228-0.268-0.327c-2.736-3.295-5.841-6.261-9.267-8.857
				c-0.139-0.111-0.292-0.222-0.445-0.318c-1.674-1.263-3.432-2.418-5.26-3.48c-0.152-0.081-0.304-0.177-0.456-0.258
				c-3.349-1.919-6.901-3.488-10.629-4.693c-0.151-0.066-0.286-0.104-0.421-0.142c-0.331-0.117-0.646-0.205-0.977-0.306
				c-2.282-0.686-4.615-1.221-7.001-1.62c-2.55-0.421-5.15-0.676-7.786-0.753c-0.134-0.008-0.267-0.016-0.385-0.01
				C322.681,164.594,321.233,164.607,319.772,164.679z M309.436,172.142c3.402-0.878,6.953-1.439,10.626-1.621
				c1.578-0.078,3.131-0.081,4.672-0.025c0.134,0.008,0.267,0.016,0.385,0.01c0.504,0.034,0.993,0.054,1.499,0.103
				c2.567,0.183,5.085,0.561,7.523,1.106c2.333,0.535,4.615,1.22,6.815,2.043c0.136,0.052,0.271,0.105,0.423,0.171
				c0.12,0.038,0.256,0.091,0.377,0.144c0.196,0.079,0.392,0.158,0.589,0.252c5.826,2.373,11.112,5.793,15.596,10.037
				c0.14,0.141,0.295,0.281,0.451,0.436c0.544,0.535,1.089,1.085,1.619,1.635c0.094,0.099,0.188,0.213,0.296,0.311
				c3.75,4.058,6.821,8.727,9.028,13.867c0.049,0.101,0.099,0.217,0.135,0.333c0.35,0.796,0.657,1.609,0.948,2.423
				c1.56,4.329,2.5,8.956,2.739,13.78c0.045,0.915,0.061,1.816,0.061,2.718c-0.177,25.962-21.241,47.606-48.281,48.947
				c-22.983,1.14-43.117-12.738-50.322-32.774c-1.577-4.358-2.532-9.014-2.773-13.867c-0.024-0.487-0.048-0.974-0.058-1.461
				c0.009-0.119,0.003-0.237-0.003-0.355c-0.016-1.227,0.026-2.456,0.1-3.658c0.272-4.346,1.143-8.56,2.527-12.562
				c0.038-0.12,0.091-0.256,0.129-0.391c1.286-3.598,2.98-7.01,5.07-10.189c0.095-0.182,0.204-0.35,0.329-0.519
				c1.72-2.599,3.714-5.035,5.91-7.258c0.154-0.17,0.309-0.326,0.464-0.481c2.312-2.288,4.855-4.381,7.604-6.204
				c0.129-0.08,0.243-0.16,0.372-0.255c4.455-2.912,9.43-5.156,14.772-6.589C309.173,172.214,309.305,172.178,309.436,172.142z"/>
			<g>
				<path style="fill:#FBFAF1;" d="M328.365,188.13c-1.069-1.179-2.036-2.502-2.48-4.03c-0.444-1.528-0.293-3.295,0.698-4.54
					c0.727-0.913,1.82-1.46,2.927-1.827c6.851-2.268,28.076,3.439,25.005,13.985C351.509,202.045,332.528,192.719,328.365,188.13z"
					/>
				<path style="fill:#FBFAF1;" d="M316.013,176.438c-2.219,0.11-3.928,1.998-3.818,4.217c0.11,2.219,1.998,3.928,4.217,3.818
					c2.219-0.11,3.928-1.998,3.818-4.217C320.119,178.037,318.231,176.328,316.013,176.438z"/>
			</g>
			<polygon style="fill:#182341;" points="274.43,243.944 246.291,255.156 243.188,245.871 270.95,234.678 			"/>
			<path style="fill:#243971;" d="M259.869,238.245L94.307,292.347c1.199,3.713,3.639,9.692,4.853,12.163l164.864-55.827
				L259.869,238.245z"/>
		</g>
		<path style="fill:#FFA8C7;" d="M122.171,404.776l-4.246,7.134l1.235,5.731c0.498,2.313,2.033,4.284,4.183,5.271
			c2.411,1.106,5.289,3.095,5.452,6.324c0,0-4.359,0-7.643,0c-3.284,0-10.248-4.926-14.437-7.36
			c-4.19-2.435-6.058-3.737-4.586-5.945c1.472-2.208,7.19-9.625,7.19-9.625l3.68-6.794L122.171,404.776z"/>
		<path style="fill:#182341;" d="M102.129,415.93c1.366-2.048,6.378-8.57,7.097-9.504l8.699,5.484l1.235,5.731
			c0.498,2.313,2.033,4.284,4.183,5.271c2.411,1.106,5.289,3.095,5.452,6.324c0,0-4.36,0-7.643,0s-10.248-4.926-14.437-7.36
			C102.525,419.44,100.657,418.138,102.129,415.93z"/>
		<path style="fill:#243971;" d="M185.922,285.597l-5.209,127.955h-16.985c0,0,0.68-20.156,0-34.876
			c-0.445-9.639,0.179-19.57,0.662-25.277c0.29-3.427,0.234-6.87-0.164-10.286l-4.121-35.321c0,0-4.076,31.026-10.644,49.144
			c-6.568,18.117-27.403,49.823-27.403,49.823l-12.498-6.863c11.496-19.882,16.06-42.072,21.933-51.201
			c1.384-2.151,2.286-4.576,2.51-7.123l4.927-55.975H185.922z"/>
		<path style="fill:#182341;" d="M136.01,318.78l2.921-33.183h46.992l-0.021,0.519c-0.332,8.152-4.583,15.654-11.432,20.088
			c-4.094,2.651-8.645,5.746-13.582,8.289l-0.782-6.702c0,0-0.029,0.218-0.085,0.629c-0.648,4.714-4.023,8.618-8.608,9.891
			C146.541,319.663,141.39,320.064,136.01,318.78z"/>
		<path style="fill:#FFA8C7;" d="M176.448,205.551c0,0-0.075,3.454,0.944,5.549c1.019,2.095,3.05,5.605-0.91,5.718l-2.317,8.832
			h-9.285l2.604-11.097l-2.604-7.757L176.448,205.551z"/>
		<path style="fill:#182341;" d="M176.482,216.818c-1.638,0-3.771-1.095-4.507-2.265c-0.306,0.898-0.116,1.598,0.124,2.051
			c0.218,0.413,0.327,0.878,0.27,1.341c-0.128,1.043,0.082,2.869,2.909,3.462L176.482,216.818z"/>
		<path style="fill:#5F88F0;" d="M161.939,225.74c-5.043,0.048-9.975,1.407-14.342,3.929c-6.882,3.974-16.896,11.155-23.841,22.184
			c-11.55,18.344-9.625,27.516,9.512,29.214c0,0-2.378,7.927,5.888,7.927c8.266,0,30.12,0,41.217,0
			c11.097,0,9.851-6.228,6.907-9.625l5.435-12.456c0,0,10.078,10.531,16.872,14.947c6.794,4.416,14.041,3.963,20.948-0.113
			c6.907-4.077,18.797-11.097,16.872-19.363l2.944-3.057c0,0-0.679-5.775-3.963-6.681l-23.156,7.983c0,0,1.472-2.831-4.813-3.227
			c0,0-14.834-16.193-19.816-22.194c-4.982-6.001-10.696-9.452-17.464-9.538C176.959,225.616,168.1,225.682,161.939,225.74z"/>
		
			<line style="fill:none;stroke:#FFFFFF;stroke-width:0.5;stroke-miterlimit:10;" x1="221.365" y1="261.705" x2="208.286" y2="266.121"/>
		<path style="fill:none;stroke:#FFFFFF;stroke-width:0.5;stroke-miterlimit:10;" d="M218.024,265.611c0,0-3.68,2.151-5.492,5.322"
			/>
		<path style="fill:#FFA8C7;" d="M192.716,266.913l-7.392-7.87c-1.334-1.421-3.683-0.233-3.353,1.688
			c0.324,1.88,0.916,3.879,1.989,5.39c1.661,2.34-1.887,9.285,3.322,13.249L192.716,266.913z"/>
		<path style="fill:none;stroke:#FFFFFF;stroke-width:0.5;stroke-miterlimit:10;" d="M185.922,229.999
			c-10.531,4.643-7.007,19.477-3.51,24.572"/>
		<path style="fill:none;stroke:#FFFFFF;stroke-width:0.5;stroke-miterlimit:10;" d="M139.539,258.418
			c1.889-6.18,3.777-11.76,5.052-14.265"/>
		<path style="fill:#FFA8C7;" d="M119.77,276.834c0.82-0.98,1.895-1.76,3.145-2.241c2.119-0.816,5.507-2.855,7.409-4.735
			c4.926-4.869,5.775-11.135,8.837-10.197c-2.509,8.309-4.951,17.386-5.893,21.407C126.912,280.504,122.466,279.109,119.77,276.834z
			"/>
		<path style="fill:none;stroke:#FFFFFF;stroke-width:0.5;stroke-miterlimit:10;" d="M138.477,242.285c0,0-0.813,2.562,0.645,10.123
			"/>
		
			<line style="fill:none;stroke:#FFFFFF;stroke-width:0.5;stroke-miterlimit:10;" x1="173.454" y1="298.632" x2="162.017" y2="298.632"/>
		
			<line style="fill:none;stroke:#FFFFFF;stroke-width:0.5;stroke-miterlimit:10;" x1="151.826" y1="298.632" x2="142.315" y2="298.632"/>
		<path style="fill:#243971;" d="M122.058,406.758l-12.497-6.863c0.703-1.216,1.379-2.44,2.032-3.669l12.657,7.133
			C122.882,405.505,122.058,406.758,122.058,406.758z"/>
		<path style="fill:#FFA8C7;" d="M166.6,411.174c0,0-0.04,6.001-1.399,10.757c-0.443,1.55-0.753,2.86-0.971,3.921
			c-0.353,1.721,0.973,3.326,2.73,3.326h25.432c0.749,0,1.311-0.667,1.205-1.408c-0.161-1.134-0.844-2.65-3.202-3.348
			c-4.02-1.189-10.474-2.208-12.286-4.756c-1.812-2.548-0.962-8.493-0.962-8.493H166.6z"/>
		<path style="fill:#182341;" d="M166.96,429.178c-1.757,0-3.083-1.605-2.73-3.326c0.217-1.061,0.528-2.371,0.971-3.921
			c0.371-1.297,0.641-2.685,0.841-4.02h11.301c0.176,0.665,0.423,1.271,0.767,1.755c1.812,2.548,8.266,3.567,12.286,4.756
			c2.414,0.714,3.072,2.285,3.213,3.427c0.088,0.711-0.496,1.329-1.213,1.329H166.96z"/>
		<path style="fill:#243971;" d="M180.714,413.552h-16.985c0,0,0.061-1.821,0.128-4.756h17.05L180.714,413.552z"/>
		<path style="fill:#FFA8C7;" d="M249.22,258.959l3.284-1.637l6.424-2.362c1.808-0.665,2.952-2.453,2.797-4.374l-0.081-1.007
			c-0.034-0.416-0.282-0.784-0.655-0.97l-3.207-1.604c-0.487-0.244-1.079-0.115-1.421,0.309l-0.603,0.746l-2.859,0.453
			c0,0-3.454,2.548-3.255,4.756l-3.482,1.217L249.22,258.959z"/>
		<path style="fill:none;stroke:#182341;stroke-width:0.5;stroke-miterlimit:10;" d="M256.09,248.871l1.623,1.472
			c0,0-4.19,1.585-3.963,5.586"/>
		<path style="fill:#577248;" d="M246.39,252.646c3.284,0.906,3.963,6.681,3.963,6.681l-2.944,3.057
			c-0.712-2.657-1.911-6.893-5.677-8.132L246.39,252.646z"/>
		<path style="fill:#182341;" d="M175.914,200.029c-3.123,0.508-5.934,0.965-9.543,1.552s-4.086,2.909-3.337,4.888
			c0.261,0.69,1.992,5.324,2.651,6.207c0,0,0.001,0.002,0.001,0.002l0-0.001c0.934,1.25,1.898,1.874,1.898,1.874h2.774l0.934-1.585
			c-1.359-0.311-2.066-2.576-1.161-3.001c0.906-0.425,1.821,0.396,1.821,0.396l-0.159-3.573c1.418-0.231,3.29-0.535,4.355-0.708
			c1.874-0.305,3.48-0.281,4.055-2.441C180.781,201.481,179.037,199.521,175.914,200.029z"/>
	</g>
	<g>
		<g>
			
				<rect x="96.905" y="253.467" transform="matrix(-0.0466 0.9989 -0.9989 -0.0466 362.0988 172.527)" style="fill:none;stroke:#7B85EF;stroke-width:0.5;stroke-miterlimit:10;" width="3.622" height="11.195"/>
			
				<rect x="160.221" y="164.712" transform="matrix(0.3543 0.9351 -0.9351 0.3543 263.8812 -41.5551)" style="fill:none;stroke:#7B85EF;stroke-width:0.5;stroke-miterlimit:10;" width="3.622" height="11.195"/>
			
				<rect x="647.971" y="270.549" transform="matrix(-0.6119 0.791 -0.791 -0.6119 1265.7867 -68.8338)" style="fill:none;stroke:#7B85EF;stroke-width:0.5;stroke-miterlimit:10;" width="3.622" height="11.195"/>
			
				<rect x="564.1" y="142.697" transform="matrix(-0.6119 0.7909 -0.7909 -0.6119 1029.4861 -208.5587)" style="fill:none;stroke:#7B85EF;stroke-width:0.5;stroke-miterlimit:10;" width="3.622" height="11.195"/>
			
				<rect x="104.96" y="340.951" transform="matrix(0.8464 0.5326 -0.5326 0.8464 200.9616 -3.6289)" style="fill:none;stroke:#7B85EF;stroke-width:0.5;stroke-miterlimit:10;" width="3.622" height="11.195"/>
			
				<rect x="147.383" y="87.659" transform="matrix(0.5826 -0.8127 0.8127 0.5826 -13.5247 160.1765)" style="fill:none;stroke:#7B85EF;stroke-width:0.5;stroke-miterlimit:10;" width="3.622" height="11.195"/>
			
				<rect x="511.227" y="72.12" transform="matrix(0.9223 0.3864 -0.3864 0.9223 69.8688 -192.1881)" style="fill:none;stroke:#7B85EF;stroke-width:0.5;stroke-miterlimit:10;" width="3.622" height="11.195"/>
			
				<rect x="588.407" y="223.279" transform="matrix(0.7909 0.6119 -0.6119 0.7909 263.4479 -313.3075)" style="fill:none;stroke:#7B85EF;stroke-width:0.5;stroke-miterlimit:10;" width="3.622" height="11.195"/>
		</g>
		<g>
			<circle style="fill:none;stroke:#FFA8C7;stroke-width:0.5;stroke-miterlimit:10;" cx="71.865" cy="380.96" r="7.398"/>
			<circle style="fill:none;stroke:#FFA8C7;stroke-width:0.5;stroke-miterlimit:10;" cx="118.683" cy="213.945" r="7.398"/>
			<path style="fill:none;stroke:#FFA8C7;stroke-width:0.5;stroke-miterlimit:10;" d="M183.357,118.876
				c0,4.086-3.312,7.398-7.398,7.398c-4.085,0-7.397-3.312-7.397-7.398c0-4.085,3.312-7.398,7.397-7.398
				C180.045,111.479,183.357,114.791,183.357,118.876z"/>
			
				<ellipse transform="matrix(0.0826 -0.9966 0.9966 0.0826 391.8844 625.0284)" style="fill:none;stroke:#FFA8C7;stroke-width:0.5;stroke-miterlimit:10;" cx="535.424" cy="99.664" rx="7.398" ry="7.398"/>
			<path style="fill:none;stroke:#FFA8C7;stroke-width:0.5;stroke-miterlimit:10;" d="M548.378,236.597
				c4.086,0,7.398,3.312,7.398,7.398s-3.312,7.398-7.398,7.398c-4.086,0-7.398-3.312-7.398-7.398S544.292,236.597,548.378,236.597z"
				/>
			
				<ellipse transform="matrix(0.1606 -0.987 0.987 0.1606 291.6629 832.0341)" style="fill:none;stroke:#FFA8C7;stroke-width:0.5;stroke-miterlimit:10;" cx="634.987" cy="244.548" rx="7.398" ry="7.398"/>
		</g>
	</g>
	<g>
		<path style="fill:#5F88F0;" d="M246.627,408.264c0,0-11.671-6.992-20.23-16.538c-8.559-9.546-25.483-25.276-34.625-29.104
			c-3.112,8.554-7.586,18.601,2.334,29.104c9.921,10.503,14.978,7.954,20.231,17.694c5.252,9.74,10.942,15.849,19.307,20.141h31.075
			L246.627,408.264z"/>
		<path style="fill:#243971;" d="M200.622,372.743c1.751,3.906,2.599,10.615,5.836,13.44c8.608,7.513,23.71,9.926,28.465,13.643v0
			c-2.844-2.357-5.839-5.102-8.526-8.1c-8.559-9.546-25.483-25.276-34.625-29.104C194.984,364.26,198.871,368.837,200.622,372.743z"
			/>
		<path style="fill:none;stroke:#182341;stroke-width:0.5;stroke-miterlimit:10;" d="M194.495,367.936
			c3.647,3.884,6.857,16.456,13.276,23.79c6.419,7.334,8.462,8.696,16.048,13.525c7.587,4.829,20.863,15.931,24.364,24.31"/>
		<path style="fill:#5F88F0;" d="M251.101,324.894c0,0,3.647,7.8,4.96,19.223c1.217,10.585-0.584,12.727,1.751,24.735
			c2.334,12.008,4.474,15.44,6.906,29.449c2.432,14.009,4.182,31.26,4.182,31.26h22.969c0,0-1.766-4.622-2.009-16.014
			c-0.243-11.391,1.572-26.131-2.399-40.306C283.49,359.067,273.277,332.57,251.101,324.894z"/>
		<path style="fill:none;stroke:#182341;stroke-width:0.5;stroke-miterlimit:10;" d="M258.396,332.323
			c0,0,12.255,11.783,14.881,29.293c2.626,17.51,0.292,50.28,2.626,59.113"/>
		<g>
			<path style="fill:#243971;" d="M201.498,328.875c0,0,10.893,3.612,18.091,4.438c7.197,0.826,15.951,1.651,20.425,5.943
				c4.474,4.292,4.474,14.693,10.504,17.995c6.03,3.302,16.535,13.755,20.036,22.148c3.501,8.393,5.641,24.572,5.836,31.01
				c0.195,6.439,3.891,16.179,5.641,19.15h-22.565c0,0-16.34-13.867-20.62-24.764c-4.28-10.896-3.112-22.617-7.586-29.056
				c-4.474-6.438-12.414-15.071-18.674-22.792C204.026,342.393,201.498,328.875,201.498,328.875z"/>
			<path style="fill:#5F88F0;" d="M231.26,375.741c1.062,1.529,1.801,3.363,2.376,5.406c0.001,0,0.008,0.004,0.008,0.004
				c-1.605-14.82-4.523-23.424-9.97-28.202c-5.447-4.778-20.425-17.121-22.176-24.074c0,0,2.529,13.518,11.088,24.074
				C218.846,360.67,226.786,369.303,231.26,375.741z"/>
			<path style="fill:none;stroke:#182341;stroke-width:0.5;stroke-miterlimit:10;" d="M208.89,334.139
				c7.392,5.778,16.34,9.542,22.565,16.162c6.225,6.62,14.529,20.192,19.647,29.589c9.296,17.067,16.146,41.747,22.176,49.671"/>
		</g>
	</g>
	
		<line style="fill:none;stroke:#1A263D;stroke-width:0.5;stroke-linecap:round;stroke-linejoin:round;stroke-miterlimit:10;" x1="702.534" y1="429.561" x2="53.099" y2="429.561"/>
</g>
</svg>
