<?xml version="1.0" encoding="utf-8"?>
<!-- Generator: Adobe Illustrator 27.5.0, SVG Export Plug-In . SVG Version: 6.00 Build 0)  -->
<svg version="1.1" id="Layer_1" xmlns="http://www.w3.org/2000/svg" xmlns:xlink="http://www.w3.org/1999/xlink" x="0px" y="0px"
	 viewBox="0 0 3202 2000" style="enable-background:new 0 0 3202 2000;" xml:space="preserve">
<rect style="fill:#FFFFFF;" width="3202" height="2000"/>
<g>
	<g>
		<g>
			<g>
				<path style="fill:#FFE8CF;" d="M1988.62,383.822c-507.159-14.47-401.544-205.433-862.5-205.886
					C-144.182,176.687,253.33,1812.657,253.33,1812.657l2602.223,3.408C3311.373,1367.985,2934.489,410.793,1988.62,383.822z"/>
			</g>
		</g>
	</g>
	<g>
		<g>
			<g>
				<g>
					<g>
						<path style="fill:#3F9896;" d="M2118.548,1822.065c6.678-5.343,116.206-217.21,188.334-117.032
							c0,0,108.192-367.318,256.454-349.953s22.707,289.847,22.707,289.847s126.892-52.092,97.506,85.485
							c0,0,161.62-29.385,149.598,86.82L2118.548,1822.065z"/>
					</g>
				</g>
			</g>
			<g>
				<g>
					<g>
						
							<ellipse transform="matrix(0.6382 -0.7699 0.7699 0.6382 -152.9952 2655.6921)" style="fill:#3F9896;" cx="2748.842" cy="1490.615" rx="56.099" ry="30.053"/>
					</g>
				</g>
			</g>
			<g>
				<g>
					<g>
						<path style="fill:#3F9896;" d="M2755.87,1565.305c-11.705,14.121-15.061,30.651-7.496,36.922
							c7.565,6.27,23.186-0.094,34.891-14.215c11.705-14.121,15.061-30.651,7.496-36.922
							C2783.196,1544.82,2767.575,1551.184,2755.87,1565.305z"/>
					</g>
				</g>
			</g>
		</g>
		<g>
			<g>
				<g>
					<g>
						<path d="M2580.172,1671.788c-0.379-0.082-0.728-0.306-0.961-0.654c-0.476-0.713-0.285-1.676,0.427-2.151
							c1.296-0.867,32.05-21.147,59.043-15.291c0.006,0.001,0.009,0.002,0.016,0.003c0.837,0.182,1.368,1.008,1.186,1.845
							c-0.182,0.837-1.008,1.368-1.845,1.187c-0.003-0.002-0.009-0.002-0.015-0.003c-25.696-5.575-56.355,14.633-56.661,14.839
							C2580.999,1671.805,2580.569,1671.874,2580.172,1671.788z"/>
					</g>
				</g>
			</g>
			<g>
				<g>
					<g>
						<path d="M2600.842,1674.106c-0.382-0.083-0.732-0.309-0.965-0.66c-0.472-0.714-0.277-1.677,0.438-2.15
							c0.593-0.392,14.797-9.588,40.019-8.019c0.861,0.057,1.505,0.79,1.452,1.645c-0.053,0.856-0.79,1.506-1.645,1.453
							c-24.193-1.505-37.977,7.419-38.113,7.509C2601.664,1674.125,2601.237,1674.192,2600.842,1674.106z"/>
					</g>
				</g>
			</g>
		</g>
		<g>
			<g>
				<g>
					<path d="M2215.671,1734.099c-0.388,0-0.777-0.144-1.078-0.435c-0.616-0.595-0.633-1.578-0.038-2.194
						c1.083-1.122,26.839-27.461,54.459-27.461c0.893,0.018,1.568,0.688,1.568,1.552c0,0.856-0.695,1.551-1.551,1.551
						c-0.001-0.001-0.01,0-0.016,0c-26.318,0-51.971,26.248-52.227,26.513C2216.483,1733.94,2216.077,1734.099,2215.671,1734.099z"
						/>
				</g>
			</g>
		</g>
		<g>
			<g>
				<g>
					<path d="M2236.363,1731.98c-0.391,0-0.782-0.146-1.084-0.441c-0.612-0.598-0.625-1.579-0.027-2.192
						c0.495-0.509,12.427-12.507,37.407-16.321c0.86-0.127,1.638,0.453,1.768,1.299c0.129,0.848-0.452,1.639-1.299,1.768
						c-23.88,3.646-35.541,15.303-35.655,15.42C2237.169,1731.825,2236.766,1731.98,2236.363,1731.98z"/>
				</g>
			</g>
		</g>
	</g>
	<g>
		<g>
			<g>
				<g>
					<g>
						<path style="fill:#3F9896;" d="M766.917,1822.065c-5.351-4.281-93.108-174.035-150.899-93.77
							c0,0-86.686-294.306-205.479-280.393c-118.793,13.913-18.194,232.234-18.194,232.234s-101.669-41.738-78.125,68.493
							c0,0-129.495-23.544-119.863,69.563L766.917,1822.065z"/>
					</g>
				</g>
			</g>
		</g>
		<g>
			<g>
				<g>
					<g>
						<path d="M397.05,1701.658c0.304-0.066,0.584-0.245,0.77-0.524c0.381-0.571,0.228-1.343-0.343-1.724
							c-1.038-0.694-25.68-16.943-47.307-12.251c-0.005,0.001-0.007,0.001-0.013,0.003c-0.671,0.146-1.096,0.808-0.95,1.479
							c0.146,0.671,0.808,1.096,1.478,0.951c0.002-0.001,0.007-0.001,0.012-0.002c20.588-4.467,45.154,11.724,45.399,11.889
							C396.388,1701.672,396.732,1701.728,397.05,1701.658z"/>
					</g>
				</g>
			</g>
			<g>
				<g>
					<g>
						<path d="M380.489,1703.516c0.306-0.067,0.587-0.247,0.773-0.529c0.379-0.572,0.222-1.343-0.35-1.723
							c-0.475-0.314-11.856-7.682-32.064-6.425c-0.69,0.045-1.206,0.633-1.163,1.318c0.043,0.686,0.633,1.206,1.317,1.164
							c19.385-1.206,30.429,5.944,30.538,6.016C379.83,1703.531,380.172,1703.585,380.489,1703.516z"/>
					</g>
				</g>
			</g>
		</g>
		<g>
			<g>
				<g>
					<path d="M689.099,1751.584c0.311,0,0.622-0.116,0.864-0.349c0.494-0.477,0.507-1.264,0.031-1.758
						c-0.868-0.899-21.504-22.003-43.635-22.003c-0.715,0.015-1.256,0.552-1.256,1.244c0,0.686,0.557,1.243,1.243,1.243
						c0.001-0.001,0.008,0,0.013,0c21.087,0,41.641,21.031,41.846,21.243C688.449,1751.457,688.774,1751.584,689.099,1751.584z"/>
				</g>
			</g>
		</g>
		<g>
			<g>
				<g>
					<path d="M672.52,1749.887c0.313,0,0.626-0.117,0.868-0.353c0.49-0.479,0.501-1.265,0.022-1.756
						c-0.397-0.407-9.957-10.021-29.972-13.077c-0.689-0.102-1.313,0.363-1.416,1.041c-0.104,0.679,0.363,1.313,1.041,1.417
						c19.133,2.921,28.477,12.261,28.568,12.355C671.875,1749.762,672.197,1749.887,672.52,1749.887z"/>
				</g>
			</g>
		</g>
	</g>
	<path style="fill:#90DDB8;" d="M2215.06,1121.349l-693.88,693.88v0.646h989.766
		C2507.887,1544.004,2395.218,1298.455,2215.06,1121.349z"/>
	<path style="fill:#ED3B5E;" d="M532.081,1815.874h989.113v-0.646l-693.557-693.557
		C647.671,1298.756,535.141,1544.173,532.081,1815.874z"/>
	<path style="fill:#F99C50;" d="M1521.195,1815.228V837.412c-270.19,0.176-515.049,108.598-693.557,284.26L1521.195,1815.228z"/>
	<path style="fill:#6EAFEA;" d="M1521.178,1815.228l693.88-693.88c-178.618-175.61-423.594-283.937-693.88-283.937V1815.228z"/>
	<path style="opacity:0.3;fill:#90DDB8;" d="M2214.409,1121.349l-86.466,86.466c13.314,12.507,26.291,25.426,38.909,38.733
		c141.755,149.466,220.435,347.677,248.964,569.326h94.481C2507.237,1544.004,2394.567,1298.455,2214.409,1121.349z"/>
	<path style="opacity:0.3;fill:#ED3B5E;" d="M531.432,1815.874h106.863c28.499-221.48,93.373-419.574,234.975-569.003
		c12.815-13.527,26.005-26.658,39.539-39.378l-85.821-85.821C647.021,1298.756,534.491,1544.173,531.432,1815.874z"/>
	<path style="opacity:0.3;fill:#FECC86;" d="M912.81,1207.492c162.201-152.341,374.607-244.72,607.127-244.881h0.609V837.412
		c-270.19,0.176-515.049,108.598-693.557,284.26L912.81,1207.492z"/>
	<path style="opacity:0.3;fill:#6EAFEA;" d="M1520.529,962.611c232.66,0.176,445.176,92.672,607.413,245.204l86.466-86.466
		c-178.618-175.61-423.594-283.937-693.88-283.937V962.611z"/>
	<g>
		<path style="fill:#FFFFFF;" d="M798.919,1685.163c3.636-14.179,3.414-25.523-0.67-34.031
			c-4.083-8.508-12.091-14.294-24.026-17.354c-11.933-3.06-21.752-1.848-29.456,3.638c-7.703,5.487-13.373,15.319-17.01,29.498
			l-5.636,21.978l131.247,33.658l3.455-13.47l-60.085-15.409L798.919,1685.163z M788.592,1679.398l-2.932,11.431l-47.855-12.271
			l2.931-11.432c2.273-8.863,5.975-15.011,11.107-18.45c5.132-3.437,11.746-4.119,19.839-2.044
			c7.858,2.015,13.205,5.78,16.041,11.292C790.56,1663.437,790.849,1670.595,788.592,1679.398z"/>
		<path style="fill:#FFFFFF;" d="M831.434,1556.305c-21.974-7.174-39.585-9.586-52.831-7.238
			c-13.245,2.35-21.771,9.351-25.576,21.004c-3.823,11.713-1.085,22.391,8.213,32.034c9.3,9.645,24.965,18.062,46.997,25.255
			c21.975,7.173,39.605,9.625,52.89,7.352c13.285-2.271,21.839-9.263,25.662-20.976c3.805-11.653,1.024-22.345-8.344-32.077
			C869.08,1571.93,853.409,1563.478,831.434,1556.305z M874.613,1609.762c-2.48,7.596-8.795,11.613-18.948,12.052
			c-10.152,0.44-25.461-2.682-45.93-9.363c-17.857-5.83-30.394-11.847-37.608-18.052c-7.213-6.205-9.609-13.016-7.186-20.439
			c2.423-7.421,8.589-11.423,18.5-12.006c9.91-0.581,24.375,2.231,43.392,8.439c19.134,6.246,32.485,12.515,40.057,18.803
			C874.462,1595.485,877.036,1602.341,874.613,1609.762z"/>
		<path style="fill:#FFFFFF;" d="M865.882,1470.234c-21.393-8.753-38.782-12.44-52.164-11.063
			c-13.381,1.381-22.394,7.741-27.036,19.088c-4.666,11.403-2.712,22.253,5.86,32.547c8.573,10.295,23.584,19.83,45.035,28.607
			c21.395,8.754,38.799,12.482,52.214,11.182c13.416-1.297,22.455-7.649,27.121-19.052c4.642-11.347,2.647-22.212-5.988-32.6
			C902.292,1488.559,887.277,1478.989,865.882,1470.234z M905.058,1526.693c-3.026,7.395-9.617,10.942-19.775,10.641
			c-10.157-0.301-25.198-4.528-45.126-12.681c-17.386-7.114-29.451-14.027-36.194-20.741c-6.743-6.712-8.636-13.68-5.68-20.907
			c2.956-7.225,9.397-10.768,19.324-10.628c9.926,0.141,24.148,3.998,42.663,11.574c18.629,7.622,31.489,14.846,38.583,21.668
			C905.946,1512.444,908.014,1519.468,905.058,1526.693z"/>
		<path style="fill:#FFFFFF;" d="M893.792,1388.343c-3.297-5.772-8.647-10.532-16.047-14.281c-10.664-5.4-20.255-6.207-28.771-2.419
			c-8.516,3.789-16.095,12.24-22.737,25.353l-11.16,22.037l120.876,61.219l6.283-12.406l-57.132-28.935l2.439-4.816
			c0.799-1.578,1.64-3.306,2.523-5.184c0.883-1.876,2.11-4.502,3.682-7.878l66.677,10.9l6.779-13.386l-70.156-10.713
			C898.176,1400.613,897.091,1394.116,893.792,1388.343z M879.499,1422.843l-5.332,10.528l-42.115-21.33l5.332-10.528
			c4.244-8.379,9.148-13.74,14.71-16.085c5.563-2.344,11.882-1.725,18.955,1.857c7.019,3.554,11.229,8.302,12.631,14.241
			C885.081,1407.467,883.687,1414.573,879.499,1422.843z"/>
	</g>
	<g>
		<path style="fill:#FFFFFF;" d="M2175.106,1372.66c-13.286-1.107-31.253,3.264-53.907,13.114
			c-20.976,9.119-35.424,18.908-43.346,29.37c-7.923,10.461-9.316,21.594-4.186,33.394c2.02,4.643,4.572,8.371,7.658,11.188
			c3.084,2.813,6.886,4.902,11.403,6.264l-6.631,4.479l3.903,8.978l58.228-25.317l-13.097-30.12l-11.158,4.852l7.842,18.039
			l-14.598,6.347c-7.329,3.187-13.801,4.054-19.419,2.607c-5.615-1.45-9.667-5.026-12.146-10.73
			c-3.552-8.167-2.018-15.918,4.605-23.251c6.62-7.336,18.992-14.942,37.114-22.822c19.802-8.608,34.625-13.026,44.47-13.249
			c9.845-0.225,16.47,3.579,19.875,11.411c2.432,5.593,1.971,10.998-1.381,16.212c-3.354,5.215-9.463,10.016-18.329,14.403
			l5.361,12.333c12.138-5.276,20.469-12.157,24.994-20.643c4.524-8.485,4.719-17.481,0.586-26.99
			C2197.671,1380.39,2188.39,1373.769,2175.106,1372.66z"/>
		<path style="fill:#FFFFFF;" d="M2211.728,1460.976c-13.257-1.939-30.799,0.991-52.626,8.783
			c-21.77,7.775-37.213,16.622-46.329,26.549c-9.12,9.926-11.606,20.69-7.462,32.293c4.122,11.547,12.863,18.3,26.228,20.265
			c13.362,1.963,30.928-0.94,52.698-8.714c21.769-7.773,37.175-16.641,46.214-26.605c9.037-9.963,11.497-20.717,7.374-32.261
			C2233.683,1469.683,2224.983,1462.912,2211.728,1460.976z M2218.737,1506.316c-7.482,6.524-20.644,13.152-39.484,19.878
			c-18.956,6.768-33.352,9.98-43.187,9.641c-9.838-0.342-16.068-4.187-18.692-11.541c-2.688-7.526-0.15-14.567,7.612-21.127
			c7.761-6.559,21.779-13.458,42.056-20.699c17.689-6.318,31.287-9.229,40.789-8.736c9.503,0.494,15.565,4.415,18.191,11.769
			C2228.647,1492.852,2226.219,1499.791,2218.737,1506.316z"/>
		<path style="fill:#FFFFFF;" d="M2242.851,1552.41c-13.079-2.904-30.788-1.271-53.128,4.902
			c-22.282,6.155-38.333,13.849-48.154,23.079c-9.821,9.23-13.09,19.784-9.81,31.66c3.265,11.818,11.487,19.194,24.671,22.133
			c13.181,2.939,30.913,1.331,53.196-4.826c22.28-6.155,38.294-13.869,48.04-23.143c9.744-9.274,12.986-19.819,9.721-31.634
			C2264.106,1562.704,2255.927,1555.314,2242.851,1552.41z M2246.515,1598.143c-7.939,5.959-21.553,11.602-40.835,16.93
			c-19.4,5.36-33.993,7.507-43.778,6.447c-9.786-1.062-15.718-5.356-17.798-12.88c-2.127-7.704,0.92-14.54,9.141-20.512
			c8.221-5.972,22.707-11.827,43.462-17.561c18.106-5.002,31.881-6.908,41.322-5.72c9.44,1.188,15.199,5.544,17.278,13.07
			C2257.386,1585.443,2254.454,1592.185,2246.515,1598.143z"/>
		<path style="fill:#FFFFFF;" d="M2281.356,1639.747l-133.135,25.168l4.674,24.721c2.923,15.464,10.304,25.69,22.143,30.685
			c11.837,4.993,29.501,5.27,52.994,0.828c23.252-4.395,39.462-11.077,48.631-20.041c9.168-8.966,12.291-21.179,9.367-36.641
			L2281.356,1639.747z M2267.053,1691.89c-6.99,6.536-20.703,11.736-41.138,15.599c-20.737,3.92-35.584,4.104-44.542,0.552
			c-8.958-3.553-14.628-11.62-17.006-24.206c-0.147-0.779-0.288-1.684-0.421-2.713c-0.133-1.032-0.306-2.613-0.523-4.743
			l108.684-20.547c0.577,2.064,0.993,3.613,1.252,4.651c0.257,1.037,0.466,1.975,0.625,2.814
			C2276.353,1675.825,2274.042,1685.355,2267.053,1691.89z"/>
	</g>
	<path style="fill:#49263E;" d="M1521.195,1696.067c-0.007,0-0.015,0-0.015,0c-1.298-0.044-2.597-0.066-3.903-0.066
		c-31.94,0-60.975,12.493-82.453,32.857c-23.049,21.853-37.42,52.758-37.42,87.016h239.746c0-32.277-12.757-61.576-33.495-83.121
		C1582.683,1710.973,1553.56,1697.101,1521.195,1696.067z"/>
	<polygon style="fill:#49263E;" points="1489.331,1811.188 1544.671,1783.523 1691.761,890.241 1451.621,1750.862 	"/>
	<g>
		<g>
			<path style="fill:#FFB294;" d="M1002.864,1716.14c-1.245,0.311-28.11,9.283-28.11,9.283s-7.365,13.121-7.053,18.411
				c0.311,5.29,3.112,17.737,8.713,21.16s6.535,5.912,11.513,4.045c4.979-1.867,13.106-6.571,13.106-6.571l34.504-37.329
				C1035.537,1725.14,1004.108,1715.829,1002.864,1716.14z"/>
		</g>
		<g>
			<g>
				<g>
					<g>
						<g>
							<g>
								<g>
									<g>
										<g>
											<g>
												<g>
													<g>
														<g>
															<polygon style="fill:#FFB294;" points="1242.21,1788.548 1242.356,1801.122 1287.463,1800.966 1312.328,1747.803 
																1259.949,1741.911 															"/>
														</g>
													</g>
												</g>
											</g>
										</g>
									</g>
								</g>
							</g>
						</g>
					</g>
				</g>
			</g>
		</g>
		<g>
			<g>
				<g>
					<g>
						<g>
							<path style="fill:#FEC786;" d="M1355.297,1804.675h-7.858l-36.486-21.729l-19.948,21.729h-49.202
								c-1.228,0-2.224,0.996-2.224,2.224v7.453c0,0.84,0.681,1.522,1.522,1.522h114.403c3.455,0,6.179-3.129,5.493-6.708
								C1360.488,1806.507,1358.005,1804.675,1355.297,1804.675z"/>
						</g>
					</g>
				</g>
			</g>
			<g>
				<g>
					<g>
						<g>
							<path style="fill:#3AA1C9;" d="M1340.819,1794.766l-41.774-18.53c-16.822,16.382-35.905,2.845-35.905,2.845
								c-12.616-5.693-20.903,5.461-20.903,5.461v20.197h113.136C1352.273,1798.595,1340.819,1794.766,1340.819,1794.766z"/>
						</g>
					</g>
				</g>
			</g>
			<g>
				<g>
					<g>
						<g>
							<g>
								<g>
									<rect x="1241.819" y="1784.542" width="0.838" height="20.097"/>
								</g>
							</g>
						</g>
					</g>
				</g>
			</g>
			<g>
				<g>
					<g>
						<g>
							<g>
								<g>
									<path d="M1263.378,1778.736l-0.474,0.69c6.718,4.623,13.686,5.335,17.34,5.335c1.599,0,2.563-0.136,2.594-0.141
										l-0.124-0.828C1282.615,1783.805,1272.755,1785.188,1263.378,1778.736z"/>
								</g>
							</g>
						</g>
					</g>
				</g>
			</g>
			<g>
				<g>
					<g>
						<g>
							<g>
								<g>
									
										<rect x="1249.552" y="1795.602" transform="matrix(0.5591 -0.8291 0.8291 0.5591 -940.2878 1829.5568)" width="0.838" height="6.436"/>
								</g>
							</g>
						</g>
					</g>
				</g>
			</g>
			<g>
				<g>
					<g>
						<g>
							<g>
								<g>
									
										<rect x="1253.38" y="1794.584" transform="matrix(0.5591 -0.8291 0.8291 0.5591 -937.7582 1832.1948)" width="0.837" height="6.435"/>
								</g>
							</g>
						</g>
					</g>
				</g>
			</g>
			<g>
				<g>
					<g>
						<g>
							<g>
								<g>
									<g>
										<g>
											<g>
												<g>
													<g>
														<g>
															<path d="M1355.505,1804.294h-113.118c-1.779,0-3.226,1.448-3.226,3.227v5.583h0.838v-5.583
																c0-1.318,1.071-2.389,2.388-2.389h113.118c2.857,0,5.181,2.324,5.181,5.181c0,1.524-0.667,2.964-1.83,3.952
																l0.542,0.638c1.351-1.146,2.126-2.819,2.126-4.59C1361.523,1806.994,1358.823,1804.294,1355.505,1804.294z"/>
														</g>
													</g>
												</g>
											</g>
										</g>
									</g>
								</g>
							</g>
						</g>
					</g>
				</g>
			</g>
			<g>
				<g>
					<g>
						<g>
							<g>
								<g>
									<path d="M1344.948,1795.994c-8.403-3.583-45.36-19.975-45.732-20.14l-0.34,0.766c0.373,0.165,37.337,16.559,45.744,20.145
										c8.227,3.509,10.486,8.082,10.507,8.128l0.758-0.357C1355.791,1804.336,1353.499,1799.64,1344.948,1795.994z"/>
								</g>
							</g>
						</g>
					</g>
				</g>
			</g>
		</g>
		<g>
			<path style="fill:#3D1F35;" d="M1344.3,1371.027l-111.139,32.107v34.577c0,0,78.603,68.639,143.95,86.065l-126.468,220.391
				c0,0,26.35,28.225,70.119,28.225c0,0,172.953-252.065,173.012-281.543C1493.815,1469.743,1344.3,1371.027,1344.3,1371.027z"/>
		</g>
		<g>
			<path style="fill:#49263E;" d="M1213.291,1299.404l-246.976,417.39c27.167,24.08,67.301,40.134,67.301,40.134
				s34.577-50.63,90.764-137.072c56.187-86.442,109.287-124.105,154.977-166.091c45.691-41.986,74.093-82.737,74.093-82.737
				l-67.105-76.219L1213.291,1299.404z"/>
		</g>
		<g>
			<path style="fill:#3AA1C9;" d="M1023.023,1796.257c-11.843-6.258-14.714-5.434-25.962-9.715l3.972-24.073
				c-23.582-6.933-25.813-37.328-25.813-37.328l-21.386,2.565c-3.824,0.458-6.203,4.385-4.839,7.987l27.281,72.036h46.746
				C1023.023,1807.728,1029.611,1799.738,1023.023,1796.257z"/>
		</g>
		<g>
			<path style="fill:#FEC786;" d="M1024.191,1809.33c-0.553-1.006-1.633-1.605-2.781-1.605h-40.38c-2.86,0-5.422-1.769-6.435-4.444
				l-26.049-69.691c-0.42-1.11-1.412-1.976-2.598-2.046c-0.655-0.038-1.163,0.135-1.556,0.404c-0.943,0.644-1.243,1.907-0.87,2.986
				l25.808,74.783c1.117,3.181,4.12,5.31,7.491,5.31h44.933c2.23,0,3.65-1.782,3.126-3.949
				C1024.72,1810.415,1024.463,1809.824,1024.191,1809.33z"/>
		</g>
		<g>
			<path style="fill:#1D1D1B;" d="M1024.628,1809.091c-0.632-1.15-1.865-1.864-3.218-1.864h-40.38c-2.637,0-5.036-1.656-5.969-4.12
				l-26.05-69.695c-0.516-1.361-1.708-2.288-3.034-2.365c-0.714-0.054-1.332,0.123-1.866,0.489c-1.09,0.744-1.525,2.208-1.06,3.56
				l0.941-0.324c-0.315-0.915-0.029-1.93,0.682-2.414c0.347-0.24,0.761-0.346,1.245-0.318c0.936,0.055,1.784,0.732,2.16,1.722
				l26.05,69.695c1.08,2.85,3.853,4.765,6.901,4.765h40.38c0.99,0,1.888,0.516,2.344,1.348c0.294,0.534,0.509,1.081,0.641,1.624
				c0.215,0.892,0.062,1.727-0.432,2.354c-0.498,0.631-1.283,0.98-2.211,0.98v0.995c1.24,0,2.303-0.483,2.993-1.359
				c0.686-0.872,0.905-2.01,0.616-3.205C1025.21,1810.331,1024.964,1809.702,1024.628,1809.091z"/>
		</g>
		<g>
			<path style="fill:#3AA1C9;" d="M980.906,1735.2l-1.167-2.334l-1.886-4.427l-2.608-3.02l-3.819,6.845
				c0,0,6.388,14.002,6.466,14.08c0.078,0.078,1.342,3.287,1.342,3.287l3.501-2.003l0.117-2.82l-1.031-5.407L980.906,1735.2z"/>
		</g>
		<g>
			<path style="fill:#FE9F73;" d="M983.893,1753.06c0,0,1.785,4.196,3.84,5.44l2.713,1.566l5.034,1.703l4.698,0.587l0.207-2.476
				l-17.534-13.012L983.893,1753.06z"/>
		</g>
		<g>
			<path style="fill:#1D1D1B;" d="M996.935,1787.024c0.229,0.06,23.049,6.066,27.686,11.16l0.736-0.669
				c-4.835-5.313-27.219-11.207-28.17-11.456L996.935,1787.024z"/>
		</g>
		<g>
			<path style="fill:#1D1D1B;" d="M983.407,1748.215c-1.441-18.752-7.638-23.298-7.901-23.482l-0.573,0.813
				c0.061,0.044,6.083,4.552,7.481,22.744c0.951,12.372,10.713,13.647,17.841,14.578l0.203,0.027l-3.855,23.363l-7.204,5.199
				l0.583,0.806l7.536-5.438l4.09-24.783l-1.225-0.161C993.216,1760.946,984.296,1759.781,983.407,1748.215z"/>
		</g>
		<g>
			<g>
				<g>
					<g>
						<g>
							<g>
								<path style="fill:#FFB294;" d="M1397.435,909.367c-15.861-11.569-38.465-9.231-38.465-9.231s-10.404,8.442-11.48,9.471
									s8.833-0.396,8.833-0.396l47.484,40.212l3.275-10.623C1410.431,927.937,1406.619,916.066,1397.435,909.367z"/>
							</g>
						</g>
					</g>
				</g>
			</g>
			<g>
				<g>
					<g>
						<g>
							<g>
								<g>
									<g>
										<g>
											<path style="fill:#FFB294;" d="M1336.742,956.734l-3.857,14.242c0,0-12.844,27.445-13.361,33.859
												c-0.517,6.414,4.452,21.092,20.458,26.027c5.047,1.556,9.763,2.066,13.855,2.036c8.368-0.063,8.867,18.937,10.343,10.7
												l10.561-47.3c14.623,2.318,18.891-13.895,18.891-13.895l13.813-44.799l-52.046-34.911L1336.742,956.734z"/>
										</g>
									</g>
								</g>
							</g>
						</g>
					</g>
				</g>
			</g>
			<g>
				<g>
					<g>
						<g>
							<g>
								<g>
									<g>
										<g>
											<path style="fill:#4C222E;" d="M1363.632,945.613c-0.297,0.246-0.339,0.685-0.094,0.982
												c0.119,0.145,0.285,0.229,0.458,0.25c0.182,0.021,0.373-0.029,0.525-0.155c0.396-0.326,9.792-7.914,16.789-0.796
												c0.271,0.276,0.712,0.28,0.987,0.009c0.275-0.27,0.279-0.712,0.009-0.986
												C1374.409,936.881,1363.739,945.524,1363.632,945.613z"/>
										</g>
									</g>
								</g>
							</g>
						</g>
					</g>
				</g>
			</g>
			<g>
				<g>
					<g>
						<g>
							<g>
								<g>
									<g>
										<g>
											<path style="fill:#4C222E;" d="M1395.776,946.159c-0.385-0.008-0.704,0.298-0.712,0.683
												c-0.005,0.211,0.085,0.402,0.23,0.533c0.12,0.109,0.278,0.176,0.453,0.18c0.079,0.002,7.926,0.216,8.479,4.524
												c0.049,0.383,0.398,0.654,0.781,0.604c0.382-0.049,0.652-0.398,0.603-0.781
												C1404.906,946.402,1396.149,946.166,1395.776,946.159z"/>
										</g>
									</g>
								</g>
							</g>
						</g>
					</g>
				</g>
			</g>
			<g>
				<g>
					<g>
						<g>
							<g>
								<g>
									<g>
										<g>
											<path d="M1373.559,951.047c-1.105-0.341-2.277,0.279-2.618,1.384c-0.341,1.105,0.279,2.277,1.384,2.618
												c1.105,0.341,2.277-0.279,2.618-1.384C1375.284,952.56,1374.664,951.388,1373.559,951.047z"/>
										</g>
									</g>
								</g>
							</g>
						</g>
					</g>
				</g>
			</g>
			<g>
				<g>
					<g>
						<g>
							<g>
								<g>
									<g>
										<g>
											<path d="M1395.444,955.604c-1.105-0.341-2.277,0.279-2.618,1.384c-0.341,1.105,0.279,2.277,1.384,2.618
												c1.105,0.341,2.277-0.279,2.618-1.384C1397.169,957.117,1396.549,955.945,1395.444,955.604z"/>
										</g>
									</g>
								</g>
							</g>
						</g>
					</g>
				</g>
			</g>
			<g>
				<g>
					<g>
						<g>
							<g>
								<g>
									<g>
										<g>
											<path style="fill:#33192C;" d="M1333.626,906.896c-8.868,13.496-3.958,23.589-5.173,28.054
												c-1.214,4.464-13.396,33.33,8.203,37.555l20.82-47.464l-1.239-21.835l2.948-3.768
												C1359.185,899.438,1342.494,893.4,1333.626,906.896z"/>
										</g>
									</g>
								</g>
							</g>
						</g>
					</g>
				</g>
			</g>
			<g>
				<g>
					<g>
						<g>
							<g>
								<g>
									<g>
										<g>
											<path style="fill:#FFB294;" d="M1350.328,932.169c-6.63-2.044-13.662,1.673-15.706,8.303
												c-2.044,6.63,1.673,13.662,8.303,15.706c6.63,2.044,13.662-1.673,15.706-8.303
												C1360.676,941.245,1356.958,934.213,1350.328,932.169z"/>
										</g>
									</g>
								</g>
							</g>
						</g>
					</g>
				</g>
			</g>
			<g>
				<g>
					<g>
						<g>
							<g>
								<g>
									<g>
										<g>
											<path style="fill:#F07162;" d="M1342.989,936.933c-0.193,0.005-0.345,0.164-0.341,0.356
												c0.004,0.193,0.163,0.347,0.356,0.342c0.032-0.001,3.259-0.045,5.222,1.987c0.908,0.938,1.414,2.18,1.512,3.703
												c-0.984-1.193-3.068-2.995-6.235-2.164c-2.144,0.562-3.551,2.486-3.585,4.901c-0.029,2.042,1.059,4.43,3.552,5.199
												c0.023,0.007,0.047,0.014,0.071,0.021c0.185,0.054,0.379-0.052,0.433-0.237c0.054-0.184-0.05-0.376-0.232-0.432
												c-0.024-0.009-0.046-0.013-0.069-0.02c-2.293-0.707-3.081-2.871-3.057-4.521c0.022-1.59,0.839-3.653,3.064-4.236
												c4.02-1.053,6.019,2.603,6.102,2.76l0.589,1.106l0.068-1.251c0.121-2.23-0.456-4.02-1.714-5.318
												C1346.544,936.879,1343.133,936.93,1342.989,936.933z"/>
										</g>
									</g>
								</g>
							</g>
						</g>
					</g>
				</g>
			</g>
			<g>
				<g>
					<g>
						<g>
							<g>
								<g>
									<g>
										<g>
											<path style="fill:#F07162;" d="M1346.464,972.688c0,0-8.39,28.636,24.281,41.511l3.997-17.901
												C1374.742,996.298,1351.697,993.967,1346.464,972.688z"/>
										</g>
									</g>
								</g>
							</g>
						</g>
					</g>
				</g>
			</g>
			<g>
				<g>
					<g>
						<g>
							<g>
								<g>
									<g>
										<g>
											<path style="fill:#F07162;" d="M1388.442,951.836c-0.19-0.032-0.37,0.096-0.402,0.286l-2.738,16.384l-7.367,0.149
												c-0.193,0.004-0.346,0.163-0.342,0.356c0.003,0.154,0.106,0.283,0.246,0.326c0.035,0.011,0.072,0.016,0.11,0.015
												l7.945-0.16l2.834-16.955C1388.761,952.048,1388.635,951.864,1388.442,951.836z"/>
										</g>
									</g>
								</g>
							</g>
						</g>
					</g>
				</g>
			</g>
			<g>
				<g>
					<g>
						<g>
							<g>
								<g>
									<polygon style="fill:#FFB294;" points="1331.24,974.551 1338.972,977.648 1345.944,955.034 1340.529,952.684 									"/>
								</g>
							</g>
						</g>
					</g>
				</g>
			</g>
			<g>
				<g>
					<g>
						<g>
							<g>
								<path style="fill:#33192C;" d="M1410.932,912.478c0,0,7.479-16.28-9.472-16c-16.952,0.28-45.28-9.175-57.703,2.625
									c-12.423,11.8,13.504,26.636,13.504,26.636s51.913,12.698,58.739,1.724C1422.825,916.489,1410.932,912.478,1410.932,912.478
									z"/>
							</g>
						</g>
					</g>
				</g>
			</g>
			<g>
				<g>
					<g>
						<g>
							<path style="fill:#33192C;" d="M1357.03,915.796c-0.626,0.104-12.512,2.185-11.083,2.375c1.429,0.19,11.32,4.084,11.32,4.084
								l-3.396,11.006c0,0,2.27,7.791-1.682,15.579c0,0,2.766,2.107,4.103-0.302c1.337-2.409,3.602-21.315,10.844-22.647
								C1374.377,924.56,1357.656,915.692,1357.03,915.796z"/>
						</g>
					</g>
				</g>
			</g>
			<g>
				<g>
					<g>
						<g>
							<g>
								<g>
									<path style="fill:#FBFDFC;" d="M1376.675,978.778c4.536,1.495,7.847-2.961,7.847-2.961s-12.192-4.054-12.396-4.086
										C1372.126,971.731,1372.139,977.283,1376.675,978.778z"/>
								</g>
							</g>
						</g>
					</g>
				</g>
			</g>
		</g>
		<g>
			<g>
				<g>
					<g>
						<path style="fill:#FFB294;" d="M1651.948,1147.999c0,0,4.389-6.123-1.518-9.148c0,0,4.901-6.68-5.46-9.078
							c0,0,0.803-4.511-3.857-6.33c-4.665-1.826-16.344-1.168-18.235-0.418c-1.893,0.763-24.84,16.345-24.84,16.345
							s-24.288,24.126-25.884,25.116l20.626,42.16c9.809-5.488,26.342-16.182,31.618-21.532c0.008-0.005,0.008-0.005,0.011-0.017
							c0.505-0.5,0.904-0.966,1.183-1.37c0.015-0.009,0.034-0.031,0.044-0.048c0.074-0.119,0.141-0.234,0.197-0.332
							c1.037-1.881,2.442-3.852,4.097-5.827c4.289-6.905,7.84-14.633,9.68-16.512c1.701-1.737,6.621-2.713,9.809-3.183
							c2.655-0.391,4.82-2.527,4.985-5.205C1654.5,1151.064,1653.951,1149.386,1651.948,1147.999z"/>
					</g>
				</g>
			</g>
			<g>
				<g>
					<g>
						<g>
							<g>
								<g>
									<path style="fill:#F07162;" d="M1644.952,1129.134c-0.586,0.024-14.379,0.597-17.029,1.348
										c-2.671,0.756-8.427,4.478-8.671,4.635c-0.302,0.196-0.389,0.595-0.194,0.891c0.103,0.156,0.263,0.252,0.435,0.28
										c0.156,0.025,0.322-0.005,0.465-0.098c0.058-0.038,5.831-3.771,8.311-4.473c2.002-0.566,11.814-1.097,16.723-1.299
										c0.359-0.014,0.642-0.314,0.63-0.669C1645.611,1129.394,1645.308,1129.119,1644.952,1129.134z"/>
								</g>
							</g>
						</g>
					</g>
				</g>
			</g>
			<g>
				<g>
					<g>
						<g>
							<g>
								<g>
									<path style="fill:#F07162;" d="M1650.36,1138.214c-0.514,0.065-12.635,1.601-15.868,2.769
										c-3.242,1.172-7.748,4.227-7.938,4.356c-0.298,0.202-0.375,0.603-0.174,0.895c0.103,0.149,0.259,0.241,0.427,0.268
										c0.161,0.026,0.332-0.007,0.477-0.106c0.045-0.031,4.56-3.091,7.644-4.206c3.096-1.119,15.458-2.685,15.583-2.701
										c0.357-0.045,0.612-0.367,0.571-0.719C1651.04,1138.418,1650.717,1138.17,1650.36,1138.214z"/>
								</g>
							</g>
						</g>
					</g>
				</g>
			</g>
			<g>
				<g>
					<g>
						<g>
							<g>
								<g>
									<path style="fill:#F07162;" d="M1651.889,1147.356c-0.448,0.044-11.003,1.097-14.275,2.399
										c-3.265,1.299-6.245,3.494-6.37,3.587c-0.289,0.214-0.35,0.617-0.136,0.901c0.103,0.137,0.252,0.221,0.411,0.247
										c0.169,0.027,0.35-0.011,0.499-0.122c0.029-0.022,2.97-2.187,6.072-3.421c3.099-1.233,13.807-2.301,13.915-2.311
										c0.358-0.035,0.622-0.35,0.591-0.704C1652.563,1147.578,1652.245,1147.32,1651.889,1147.356z"/>
								</g>
							</g>
						</g>
					</g>
				</g>
			</g>
		</g>
		<g>
			<polygon style="fill:#A5EFED;" points="1305.379,1009.116 1370.406,1071.339 1371.29,1031.293 1326.418,985.456 			"/>
		</g>
		<g>
			<path style="fill:#FFFFFF;" d="M1348.624,1029.051c-24.072-33.334-50.877-18.074-50.877-18.074
				c-38.921,22.028-122.96,343.588-122.96,343.588s50.864-2.667,68.938-1.327c52.244,3.862,71.778,48.237,133.337,29.128
				c0,0-15.818-87.45-8.798-106.12c2.256-5.985,9.152-49.658,11.315-54.316c-11.757-17.317-2-66.999,9.466-126.489
				C1373.598,1068.343,1358.046,1042.095,1348.624,1029.051z"/>
		</g>
		<g>
			<path style="fill:#1D1D1B;" d="M1367.174,1289.141l-1.327,0.003c0.044,24.195,9.516,86.486,10.486,92.806
				c-23.136,9.551-53.182,4.05-89.324-16.343c-32.438-18.302-74.469-13.204-74.891-13.151l0.168,1.317
				c0.416-0.054,42.025-5.093,74.07,12.99c24.859,14.026,46.9,21.062,65.862,21.061c9.086,0,17.466-1.616,25.109-4.852l0.476-0.201
				l-0.079-0.512C1377.619,1381.584,1367.221,1314.413,1367.174,1289.141z"/>
		</g>
		<g>
			<path style="fill:#FFFFFF;" d="M1434.556,1163.315l-64.481-100.472l-88.16,50.204c0,0,69.653,113.109,112.734,133.868
				c43.081,20.759,202.096-40.105,202.096-40.105l-3.737-64.728L1434.556,1163.315z"/>
		</g>
		<g>
			<path style="fill:#1D1D1B;" d="M1394.938,1246.319c-42.414-20.438-111.761-132.489-112.457-133.618l-1.13,0.695
				c0.697,1.134,70.25,113.513,113.012,134.118c6.43,3.099,15.346,4.42,25.882,4.42c59.663,0,171.212-42.388,176.739-44.504
				l-0.474-1.239C1594.921,1206.799,1437.262,1266.711,1394.938,1246.319z"/>
		</g>
		<g>
			<polygon style="fill:#1D1D1B;" points="1434.886,1162.601 1369.509,1060.57 1368.392,1061.285 1434.225,1164.029 
				1570.519,1145.766 1570.343,1144.452 			"/>
		</g>
	</g>
	<g>
		<path style="fill:#49263E;" d="M942.58,661.585c-5.814,5.846-13.348,8.768-22.6,8.768c-12.441,0-22.131-5.36-29.07-16.082
			c-6.939-10.721-10.409-25.709-10.409-44.965c0-19.318,3.313-34.212,9.94-44.683c6.626-10.471,16.036-15.707,28.226-15.707
			c8.377,0,15.394,2.564,21.052,7.69c5.657,5.127,10.236,13.067,13.738,23.819l11.909-2.813
			c-3.751-13.503-9.393-23.505-16.926-30.008c-7.534-6.502-17.208-9.753-29.023-9.753c-16.755,0-29.68,6.111-38.776,18.333
			c-9.096,12.223-13.644,29.649-13.644,52.279c0,23.382,4.548,41.401,13.644,54.061c9.096,12.659,22.021,18.989,38.776,18.989
			c12.753,0,23.022-3.641,30.805-10.925c7.783-7.282,13.269-18.364,16.458-33.243l-11.347-2.532
			C952.645,646.816,948.394,655.74,942.58,661.585z"/>
		<path style="fill:#49263E;" d="M1073.489,601.288c4.626-6.033,6.939-13.738,6.939-23.115c0-12.503-4.158-21.911-12.472-28.226
			c-8.315-6.314-20.693-9.471-37.135-9.471H992.28v138.693h12.847v-63.017h34.228l32.258,63.017h14.535l-33.384-64.892
			C1061.955,611.651,1068.862,607.322,1073.489,601.288z M1036.448,605.274h-31.321v-53.639h27.476
			c11.628,0,20.27,2.189,25.929,6.564c5.657,4.376,8.487,11.098,8.487,20.161c0,8.627-2.641,15.271-7.924,19.927
			C1053.811,602.945,1046.262,605.274,1036.448,605.274z"/>
		<polygon style="fill:#49263E;" points="1125.534,611.369 1173.799,611.369 1173.799,600.21 1125.534,600.21 1125.534,551.635 
			1192.203,551.635 1192.203,540.476 1112.687,540.476 1112.687,679.168 1195.115,679.168 1195.115,668.009 1125.534,668.009 		"/>
		<path style="fill:#49263E;" d="M1253.536,540.476h-33.759v138.693h33.759c21.381,0,37.618-6.049,48.716-18.145
			c11.097-12.097,16.645-29.805,16.645-53.123c0-22.38-5.471-39.212-16.411-50.498
			C1291.546,546.118,1275.229,540.476,1253.536,540.476z M1292.359,653.896c-8.69,9.41-22.131,14.113-40.323,14.113h-19.411V551.635
			h19.974c18.816,0,32.32,4.548,40.511,13.644c8.189,9.096,12.284,24.085,12.284,44.965
			C1305.393,629.937,1301.048,644.487,1292.359,653.896z"/>
		<rect x="1348.999" y="540.476" style="fill:#49263E;" width="12.847" height="138.693"/>
		<polygon style="fill:#49263E;" points="1386.415,551.635 1427.489,551.635 1427.489,679.168 1440.43,679.168 1440.43,551.635 
			1481.503,551.635 1481.503,540.476 1386.415,540.476 		"/>
		<path style="fill:#49263E;" d="M1622.257,610.807c-3.938-2.687-12.723-6.344-26.351-10.972c-4.752-1.625-8.378-2.907-10.878-3.845
			c-6.502-2.312-11.3-5.313-14.394-9.002c-3.096-3.688-4.642-8.22-4.642-13.597c0-7.127,2.392-12.909,7.173-17.348
			c4.784-4.438,11.019-6.658,18.709-6.658c7.939,0,14.613,2.063,20.021,6.189c5.406,4.126,9.829,10.503,13.269,19.13l10.878-3.47
			c-3.751-11.19-9.206-19.489-16.364-24.897c-7.159-5.407-16.239-8.112-27.241-8.112c-12.378,0-22.1,3.298-29.164,9.893
			c-7.065,6.596-10.596,15.646-10.596,27.148c0,6.439,1.407,11.848,4.22,16.223c2.813,4.376,7.564,8.502,14.254,12.378
			c2.125,1.251,6.954,3.157,14.489,5.72c7.532,2.564,13.58,4.752,18.145,6.564c8.376,3.439,14.316,7.236,17.817,11.394
			c3.5,4.158,5.251,9.457,5.251,15.895c0,8.065-2.673,14.567-8.017,19.505c-5.346,4.939-12.395,7.408-21.147,7.408
			c-8.503,0-15.676-2.359-21.522-7.08c-5.846-4.72-10.643-12.018-14.394-21.896l-11.159,4.595
			c4.438,12.191,10.456,21.162,18.051,26.913c7.597,5.753,17.27,8.627,29.024,8.627c13.065,0,23.428-3.594,31.087-10.784
			c7.657-7.188,11.487-16.847,11.487-28.976c0-6.689-1.423-12.487-4.267-17.395C1633.15,619.45,1628.571,614.933,1622.257,610.807z"
			/>
		<path style="fill:#49263E;" d="M1732.536,661.585c-5.814,5.846-13.348,8.768-22.6,8.768c-12.442,0-22.131-5.36-29.07-16.082
			c-6.939-10.721-10.409-25.709-10.409-44.965c0-19.318,3.313-34.212,9.94-44.683c6.626-10.471,16.035-15.707,28.226-15.707
			c8.376,0,15.394,2.564,21.053,7.69c5.657,5.127,10.236,13.067,13.737,23.819l11.909-2.813
			c-3.751-13.503-9.393-23.505-16.927-30.008c-7.534-6.502-17.207-9.753-29.022-9.753c-16.755,0-29.68,6.111-38.775,18.333
			c-9.097,12.223-13.645,29.649-13.645,52.279c0,23.382,4.547,41.401,13.645,54.061c9.095,12.659,22.02,18.989,38.775,18.989
			c12.753,0,23.021-3.641,30.806-10.925c7.782-7.282,13.268-18.364,16.457-33.243l-11.347-2.532
			C1742.6,646.816,1738.35,655.74,1732.536,661.585z"/>
		<path style="fill:#49263E;" d="M1826.218,538.225c-16.317,0-29.461,6.517-39.432,19.552
			c-9.973,13.035-14.958,30.399-14.958,52.092c0,21.694,4.984,39.057,14.958,52.092c9.971,13.035,23.115,19.552,39.432,19.552
			s29.413-6.517,39.292-19.552c9.877-13.035,14.816-30.398,14.816-52.092c0-21.693-4.94-39.057-14.816-52.092
			C1855.632,544.742,1842.535,538.225,1826.218,538.225z M1856.132,654.177c-7.314,10.784-17.286,16.176-29.914,16.176
			c-12.629,0-22.6-5.392-29.914-16.176c-7.314-10.784-10.972-25.554-10.972-44.309c0-18.816,3.657-33.602,10.972-44.355
			c7.314-10.752,17.285-16.129,29.914-16.129c12.628,0,22.6,5.377,29.914,16.129c7.314,10.753,10.972,25.539,10.972,44.355
			C1867.104,628.624,1863.447,643.393,1856.132,654.177z"/>
		<path style="fill:#49263E;" d="M1990.23,601.288c4.625-6.033,6.939-13.738,6.939-23.115c0-12.503-4.158-21.911-12.472-28.226
			c-8.316-6.314-20.694-9.471-37.135-9.471h-38.541v138.693h12.847v-63.017h34.228l32.258,63.017h14.535l-33.384-64.892
			C1978.696,611.651,1985.603,607.322,1990.23,601.288z M1953.189,605.274h-31.321v-53.639h27.476
			c11.628,0,20.27,2.189,25.929,6.564c5.657,4.376,8.486,11.098,8.486,20.161c0,8.627-2.641,15.271-7.923,19.927
			C1970.552,602.945,1963.004,605.274,1953.189,605.274z"/>
		<polygon style="fill:#49263E;" points="2042.275,611.369 2090.54,611.369 2090.54,600.21 2042.275,600.21 2042.275,551.635 
			2108.944,551.635 2108.944,540.476 2029.428,540.476 2029.428,679.168 2111.855,679.168 2111.855,668.009 2042.275,668.009 		"/>
	</g>
	<path style="fill:#FFFFFF;" d="M2427.664,807.198c0,0,7.619-137.163-95.989-146.249
		c-118.827-10.42-120.266,124.335-120.266,124.335s-54.008-51.272-92.961,13.732c0,0-67.319-38.909-101.276,32.955
		c-1.142,2.416-1.355,4.938-0.853,7.259h459.755c0.513-5.323-1.063-10.929-5.424-15.576
		C2462.94,815.438,2449.787,808.745,2427.664,807.198z"/>
	<path style="fill:#FFFFFF;" d="M709.737,787.264c-29.712-49.583-70.908-10.475-70.908-10.475s-1.098-102.787-91.735-94.839
		c-79.028,6.93-73.217,111.553-73.217,111.553c-16.875,1.181-26.907,6.286-32.789,12.553c-3.326,3.544-4.529,7.82-4.137,11.881
		h350.686c0.383-1.77,0.22-3.694-0.651-5.537C761.085,757.586,709.737,787.264,709.737,787.264z"/>
	<path style="fill:#FFFFFF;" d="M1232.771,378.774c0,0-13.598-42.005-54.899-34.652c-41.301,7.354-26.695,68.444-26.695,68.444
		s-13.328-2.817-22.567,3.49c-3.072,2.097-4.541,5.115-4.72,8.167h214.436c8.777-8.284,14.226-20.066,13.932-33.177
		c-0.243-10.827-4.126-23.423-14.176-37.696C1299.387,298.394,1232.125,350.877,1232.771,378.774z"/>
	<rect x="153.518" y="1812.657" style="fill:#49263E;" width="2744.741" height="9.408"/>
</g>
</svg>
